Arima Madurai-Light.ufo
<glyph name="exclam" format="1">
  <advance width="268"/>
  <unicode hex="0021"/>
  <outline>
    <contour>
      <point x="119" y="163" type="line"/>
      <point x="115" y="718" type="line"/>
      <point x="127" y="721"/>
      <point x="141" y="721"/>
      <point x="153" y="718" type="curve"/>
      <point x="149" y="163" type="line"/>
    </contour>
    <component base="period" xOffset="20"/>
  </outline>
</glyph>
<glyph name="parenleft" format="1">
  <advance width="404"/>
  <unicode hex="0028"/>
  <outline>
    <contour>
      <point x="346" y="-172" type="curve"/>
      <point x="364" y="-172"/>
      <point x="364" y="-163"/>
      <point x="364" y="-153" type="curve"/>
      <point x="249" y="-125"/>
      <point x="151" y="69"/>
      <point x="151" y="288" type="curve"/>
      <point x="151" y="507"/>
      <point x="249" y="701"/>
      <point x="364" y="729" type="curve"/>
      <point x="364" y="739"/>
      <point x="364" y="748"/>
      <point x="346" y="748" type="curve"/>
      <point x="283" y="748"/>
      <point x="120" y="614"/>
      <point x="120" y="288" type="curve"/>
      <point x="120" y="-38"/>
      <point x="283" y="-172"/>
    </contour>
  </outline>
</glyph>
<glyph name="period" format="1">
  <advance width="228"/>
  <unicode hex="002E"/>
  <outline>
    <contour>
      <point x="114" y="-12" type="curve"/>
      <point x="132" y="-12"/>
      <point x="148" y="4"/>
      <point x="148" y="22" type="curve"/>
      <point x="148" y="40"/>
      <point x="132" y="56"/>
      <point x="114" y="56" type="curve"/>
      <point x="96" y="56"/>
      <point x="80" y="40"/>
      <point x="80" y="22" type="curve"/>
      <point x="80" y="4"/>
      <point x="96" y="-12"/>
    </contour>
  </outline>
</glyph>
<glyph name="less" format="1">
  <advance width="477"/>
  <unicode hex="003C"/>
  <outline>
    <contour>
      <point x="41" y="340" type="curve"/>
      <point x="407" y="168" type="line" smooth="yes"/>
      <point x="416" y="164"/>
      <point x="424" y="180"/>
      <point x="420" y="197" type="curve"/>
      <point x="78" y="351" type="line"/>
      <point x="420" y="505" type="line"/>
      <point x="425" y="523"/>
      <point x="416" y="538"/>
      <point x="407" y="534" type="curve"/>
      <point x="41" y="362" type="line"/>
      <point x="36" y="355"/>
      <point x="36" y="347"/>
    </contour>
  </outline>
</glyph>
<glyph name="equal" format="1">
  <advance width="557"/>
  <unicode hex="003D"/>
  <outline>
    <contour>
      <point x="474" y="472" type="curve"/>
      <point x="83" y="472" type="line"/>
      <point x="79" y="462"/>
      <point x="79" y="452"/>
      <point x="83" y="442" type="curve"/>
      <point x="474" y="442" type="line"/>
      <point x="478" y="452"/>
      <point x="478" y="462"/>
    </contour>
    <contour>
      <point x="474" y="262" type="curve"/>
      <point x="83" y="262" type="line"/>
      <point x="79" y="252"/>
      <point x="79" y="242"/>
      <point x="83" y="232" type="curve"/>
      <point x="474" y="232" type="line"/>
      <point x="478" y="242"/>
      <point x="478" y="252"/>
    </contour>
  </outline>
</glyph>
<glyph name="question" format="1">
  <advance width="486"/>
  <unicode hex="003F"/>
  <outline>
    <contour>
      <point x="174" y="307" type="curve"/>
      <point x="174" y="163" type="line"/>
      <point x="203" y="163" type="line"/>
      <point x="203" y="278" type="line"/>
      <point x="337" y="299"/>
      <point x="430" y="391"/>
      <point x="430" y="520" type="curve"/>
      <point x="430" y="673"/>
      <point x="316" y="730"/>
      <point x="212" y="730" type="curve"/>
      <point x="87" y="730"/>
      <point x="27" y="647"/>
      <point x="27" y="604" type="curve"/>
      <point x="27" y="587"/>
      <point x="37" y="580"/>
      <point x="49" y="580" type="curve"/>
      <point x="53" y="615"/>
      <point x="91" y="702"/>
      <point x="207" y="702" type="curve"/>
      <point x="335" y="702"/>
      <point x="398" y="622"/>
      <point x="398" y="513" type="curve"/>
      <point x="398" y="372"/>
      <point x="255" y="307"/>
    </contour>
    <component base="period" xOffset="57"/>
  </outline>
</glyph>
<glyph name="E" format="1">
  <advance width="523"/>
  <unicode hex="0045"/>
  <outline>
    <contour>
      <point x="126" y="0" type="curve"/>
      <point x="443" y="0" type="line"/>
      <point x="455" y="0"/>
      <point x="453" y="22"/>
      <point x="443" y="26" type="curve"/>
      <point x="341" y="26"/>
      <point x="240" y="25"/>
      <point x="138" y="25" type="curve"/>
      <point x="136" y="662" type="line"/>
      <point x="238" y="662"/>
      <point x="328" y="662"/>
      <point x="430" y="662" type="curve"/>
      <point x="441" y="665"/>
      <point x="447" y="688"/>
      <point x="433" y="688" type="curve"/>
      <point x="119" y="688" type="line" smooth="yes"/>
      <point x="110" y="688"/>
      <point x="105" y="685"/>
      <point x="101" y="680" type="curve"/>
      <point x="105" y="664"/>
      <point x="107" y="640"/>
      <point x="107" y="600" type="curve"/>
      <point x="109" y="22" type="line" smooth="yes"/>
      <point x="109" y="8"/>
      <point x="115" y="0"/>
    </contour>
    <contour>
      <point x="131" y="380" type="line"/>
      <point x="131" y="354" type="line"/>
      <point x="411" y="354" type="line"/>
      <point x="414" y="363"/>
      <point x="414" y="371"/>
      <point x="411" y="380" type="curve"/>
    </contour>
    <contour>
      <point x="262" y="0" type="move" name="bottom"/>
    </contour>
    <contour>
      <point x="378" y="2" type="move" name="ogonek"/>
    </contour>
    <contour>
      <point x="276" y="688" type="move" name="top"/>
    </contour>
    <contour>
      <point x="20" y="688" type="move" name="topleft"/>
    </contour>
  </outline>
</glyph>
<glyph name="L" format="1">
  <advance width="456"/>
  <unicode hex="004C"/>
  <outline>
    <contour>
      <point x="138" y="25" type="curve"/>
      <point x="136" y="673" type="line"/>
      <point x="136" y="687"/>
      <point x="130" y="695"/>
      <point x="119" y="695" type="curve"/>
      <point x="110" y="695"/>
      <point x="105" y="691"/>
      <point x="101" y="687" type="curve"/>
      <point x="105" y="671"/>
      <point x="107" y="640"/>
      <point x="107" y="600" type="curve"/>
      <point x="109" y="22" type="line" smooth="yes"/>
      <point x="109" y="8"/>
      <point x="115" y="0"/>
      <point x="126" y="0" type="curve"/>
      <point x="413" y="0" type="line"/>
      <point x="425" y="0"/>
      <point x="423" y="22"/>
      <point x="413" y="26" type="curve"/>
      <point x="321" y="26"/>
      <point x="230" y="25"/>
    </contour>
    <contour>
      <point x="261" y="0" type="move" name="bottom"/>
    </contour>
    <contour>
      <point x="228" y="344" type="move" name="center"/>
    </contour>
    <contour>
      <point x="136" y="687" type="move" name="top"/>
    </contour>
    <contour>
      <point x="436" y="688" type="move" name="topright"/>
    </contour>
  </outline>
</glyph>
<glyph name="N" format="1">
  <advance width="667"/>
  <unicode hex="004E"/>
  <outline>
    <contour>
      <point x="121" y="-8" type="curve"/>
      <point x="132" y="-8"/>
      <point x="138" y="0"/>
      <point x="138" y="14" type="curve"/>
      <point x="136" y="629" type="line"/>
      <point x="243" y="460"/>
      <point x="473" y="90"/>
      <point x="542" y="-5" type="curve"/>
      <point x="548" y="-7"/>
      <point x="561" y="-6"/>
      <point x="566" y="0" type="curve"/>
      <point x="564" y="16"/>
      <point x="564" y="47"/>
      <point x="564" y="87" type="curve"/>
      <point x="562" y="673" type="line" smooth="yes"/>
      <point x="562" y="687"/>
      <point x="556" y="695"/>
      <point x="545" y="695" type="curve"/>
      <point x="536" y="695"/>
      <point x="531" y="691"/>
      <point x="527" y="687" type="curve"/>
      <point x="531" y="671"/>
      <point x="533" y="640"/>
      <point x="533" y="600" type="curve"/>
      <point x="535" y="53" type="line"/>
      <point x="423" y="221"/>
      <point x="228" y="547"/>
      <point x="133" y="688" type="curve"/>
      <point x="130" y="691"/>
      <point x="113" y="696"/>
      <point x="101" y="687" type="curve"/>
      <point x="105" y="671"/>
      <point x="107" y="630"/>
      <point x="107" y="590" type="curve"/>
      <point x="109" y="87" type="line" smooth="yes"/>
      <point x="109" y="47"/>
      <point x="107" y="16"/>
      <point x="103" y="0" type="curve"/>
      <point x="107" y="-4"/>
      <point x="112" y="-8"/>
    </contour>
    <contour>
      <point x="334" y="0" type="move" name="bottom"/>
    </contour>
    <contour>
      <point x="332" y="688" type="move" name="top"/>
    </contour>
  </outline>
</glyph>
<glyph name="T" format="1">
  <advance width="503"/>
  <unicode hex="0054"/>
  <outline>
    <contour>
      <point x="256" y="-8" type="curve"/>
      <point x="265" y="-8"/>
      <point x="270" y="-4"/>
      <point x="274" y="0" type="curve"/>
      <point x="270" y="16"/>
      <point x="268" y="46"/>
      <point x="268" y="87" type="curve"/>
      <point x="267" y="677" type="line"/>
      <point x="237" y="675" type="line"/>
      <point x="239" y="14" type="line" smooth="yes"/>
      <point x="239" y="0"/>
      <point x="245" y="-8"/>
    </contour>
    <contour>
      <point x="32" y="662" type="curve"/>
      <point x="103" y="662"/>
      <point x="176" y="662"/>
      <point x="248" y="662" type="curve"/>
      <point x="322" y="662"/>
      <point x="397" y="662"/>
      <point x="472" y="662" type="curve"/>
      <point x="483" y="665"/>
      <point x="489" y="688"/>
      <point x="475" y="688" type="curve"/>
      <point x="29" y="688" type="line"/>
      <point x="15" y="688"/>
      <point x="21" y="665"/>
    </contour>
    <contour>
      <point x="259" y="0" type="move" name="bottom"/>
    </contour>
    <contour>
      <point x="252" y="344" type="move" name="center"/>
    </contour>
    <contour>
      <point x="252" y="688" type="move" name="top"/>
    </contour>
  </outline>
</glyph>
<glyph name="Z" format="1">
  <advance width="553"/>
  <unicode hex="005A"/>
  <outline>
    <contour>
      <point x="52" y="9" type="curve"/>
      <point x="63" y="-5" type="line"/>
      <point x="103" y="0"/>
      <point x="147" y="0"/>
      <point x="187" y="0" type="curve"/>
      <point x="394" y="0" type="line" smooth="yes"/>
      <point x="482" y="0"/>
      <point x="520" y="44"/>
      <point x="520" y="97" type="curve"/>
      <point x="520" y="131"/>
      <point x="502" y="189"/>
      <point x="463" y="189" type="curve"/>
      <point x="455" y="189"/>
      <point x="453" y="186"/>
      <point x="444" y="181" type="curve"/>
      <point x="468" y="167"/>
      <point x="491" y="136"/>
      <point x="490" y="95" type="curve"/>
      <point x="489" y="58"/>
      <point x="466" y="26"/>
      <point x="383" y="26" type="curve"/>
      <point x="78" y="26" type="line"/>
      <point x="78" y="13" type="line"/>
      <point x="477" y="633" type="line" smooth="yes"/>
      <point x="485" y="646"/>
      <point x="492" y="663"/>
      <point x="492" y="685" type="curve"/>
      <point x="475" y="694" type="line"/>
      <point x="453" y="689"/>
      <point x="416" y="689"/>
      <point x="347" y="689" type="curve"/>
      <point x="173" y="689" type="line" smooth="yes"/>
      <point x="100" y="689"/>
      <point x="59" y="649"/>
      <point x="59" y="603" type="curve"/>
      <point x="59" y="564"/>
      <point x="82" y="519"/>
      <point x="116" y="519" type="curve"/>
      <point x="126" y="519"/>
      <point x="133" y="523"/>
      <point x="136" y="529" type="curve"/>
      <point x="104" y="548"/>
      <point x="87" y="568"/>
      <point x="87" y="602" type="curve"/>
      <point x="87" y="635"/>
      <point x="111" y="663"/>
      <point x="176" y="663" type="curve"/>
      <point x="475" y="663" type="line"/>
      <point x="463" y="665" type="line"/>
      <point x="71" y="53" type="line" smooth="yes"/>
      <point x="61" y="38"/>
      <point x="52" y="21"/>
    </contour>
    <contour>
      <point x="283" y="0" type="move" name="bottom"/>
    </contour>
    <contour>
      <point x="283" y="688" type="move" name="top"/>
    </contour>
  </outline>
</glyph>
<glyph name="a" format="1">
  <advance width="534"/>
  <unicode hex="0061"/>
  <outline>
    <contour>
      <point x="473" y="-10" type="curve"/>
      <point x="495" y="-10"/>
      <point x="521" y="2"/>
      <point x="521" y="24" type="curve"/>
      <point x="521" y="30"/>
      <point x="519" y="37"/>
      <point x="512" y="45" type="curve"/>
      <point x="504" y="28"/>
      <point x="487" y="18"/>
      <point x="474" y="18" type="curve"/>
      <point x="450" y="18"/>
      <point x="436" y="34"/>
      <point x="436" y="71" type="curve"/>
      <point x="436" y="298" type="line" smooth="yes"/>
      <point x="436" y="437"/>
      <point x="376" y="512"/>
      <point x="247" y="512" type="curve"/>
      <point x="143" y="512"/>
      <point x="76" y="474"/>
      <point x="76" y="395" type="curve"/>
      <point x="76" y="357"/>
      <point x="98" y="312"/>
      <point x="128" y="312" type="curve"/>
      <point x="134" y="312"/>
      <point x="147" y="315"/>
      <point x="155" y="328" type="curve"/>
      <point x="121" y="336"/>
      <point x="105" y="371"/>
      <point x="105" y="397" type="curve"/>
      <point x="105" y="468"/>
      <point x="182" y="484"/>
      <point x="241" y="484" type="curve"/>
      <point x="357" y="484"/>
      <point x="406" y="422"/>
      <point x="406" y="298" type="curve"/>
      <point x="406" y="272" type="line"/>
      <point x="344" y="279"/>
      <point x="270" y="274"/>
      <point x="212" y="259" type="curve"/>
      <point x="106" y="230"/>
      <point x="55" y="173"/>
      <point x="55" y="102" type="curve"/>
      <point x="55" y="38"/>
      <point x="93" y="-12"/>
      <point x="173" y="-12" type="curve"/>
      <point x="271" y="-12"/>
      <point x="373" y="63"/>
      <point x="420" y="194" type="curve"/>
      <point x="406" y="206" type="line"/>
      <point x="406" y="73" type="line" smooth="yes"/>
      <point x="406" y="23"/>
      <point x="426" y="-10"/>
    </contour>
    <contour>
      <point x="179" y="15" type="curve"/>
      <point x="111" y="15"/>
      <point x="87" y="58"/>
      <point x="87" y="104" type="curve"/>
      <point x="87" y="166"/>
      <point x="133" y="208"/>
      <point x="214" y="232" type="curve"/>
      <point x="264" y="247"/>
      <point x="352" y="256"/>
      <point x="406" y="251" type="curve"/>
      <point x="403" y="136"/>
      <point x="281" y="15"/>
    </contour>
    <contour>
      <point x="267" y="0" type="move" name="bottom"/>
    </contour>
    <contour>
      <point x="479" y="-3" type="move" name="ogonek"/>
    </contour>
    <contour>
      <point x="253" y="500" type="move" name="top"/>
    </contour>
  </outline>
</glyph>
<glyph name="i" format="1">
  <advance width="248"/>
  <unicode hex="0069"/>
  <outline>
    <contour>
      <point x="120" y="620" type="curve"/>
      <point x="138" y="620"/>
      <point x="154" y="636"/>
      <point x="154" y="654" type="curve"/>
      <point x="154" y="672"/>
      <point x="138" y="688"/>
      <point x="120" y="688" type="curve"/>
      <point x="102" y="688"/>
      <point x="86" y="672"/>
      <point x="86" y="654" type="curve"/>
      <point x="86" y="636"/>
      <point x="102" y="620"/>
    </contour>
    <contour>
      <point x="139" y="87" type="curve"/>
      <point x="137" y="490" type="line" smooth="yes"/>
      <point x="137" y="504"/>
      <point x="131" y="512"/>
      <point x="120" y="512" type="curve"/>
      <point x="111" y="512"/>
      <point x="106" y="508"/>
      <point x="102" y="504" type="curve"/>
      <point x="106" y="488"/>
      <point x="108" y="457"/>
      <point x="108" y="417" type="curve"/>
      <point x="110" y="14" type="line" smooth="yes"/>
      <point x="110" y="0"/>
      <point x="116" y="-8"/>
      <point x="127" y="-8" type="curve"/>
      <point x="136" y="-8"/>
      <point x="141" y="-4"/>
      <point x="145" y="0" type="curve"/>
      <point x="141" y="16"/>
      <point x="139" y="47"/>
    </contour>
    <contour>
      <point x="124" y="0" type="move" name="bottom"/>
    </contour>
  </outline>
</glyph>
<glyph name="o" format="1">
  <advance width="534"/>
  <unicode hex="006F"/>
  <outline>
    <contour>
      <point x="267" y="-12" type="curve"/>
      <point x="402" y="-12"/>
      <point x="481" y="85"/>
      <point x="481" y="250" type="curve"/>
      <point x="481" y="415"/>
      <point x="402" y="512"/>
      <point x="267" y="512" type="curve"/>
      <point x="132" y="512"/>
      <point x="53" y="415"/>
      <point x="53" y="250" type="curve"/>
      <point x="53" y="85"/>
      <point x="132" y="-12"/>
    </contour>
    <contour>
      <point x="267" y="16" type="curve"/>
      <point x="153" y="16"/>
      <point x="85" y="103"/>
      <point x="85" y="250" type="curve"/>
      <point x="85" y="397"/>
      <point x="153" y="484"/>
      <point x="267" y="484" type="curve"/>
      <point x="381" y="484"/>
      <point x="449" y="397"/>
      <point x="449" y="250" type="curve"/>
      <point x="449" y="103"/>
      <point x="381" y="16"/>
    </contour>
    <contour>
      <point x="267" y="0" type="move" name="bottom"/>
    </contour>
    <contour>
      <point x="267" y="250" type="move" name="center"/>
    </contour>
    <contour>
      <point x="481" y="10" type="move" name="ogonek"/>
    </contour>
    <contour>
      <point x="267" y="500" type="move" name="top"/>
    </contour>
    <contour>
      <point x="372" y="490" type="move" name="topright"/>
    </contour>
  </outline>
</glyph>
<glyph name="q" format="1">
  <advance width="532"/>
  <unicode hex="0071"/>
  <outline>
    <contour>
      <point x="423" y="-228" type="curve"/>
      <point x="435" y="-228"/>
      <point x="442" y="-220"/>
      <point x="442" y="-206" type="curve"/>
      <point x="442" y="444" type="line"/>
      <point x="409" y="484"/>
      <point x="341" y="512"/>
      <point x="257" y="512" type="curve"/>
      <point x="92" y="512"/>
      <point x="53" y="334"/>
      <point x="53" y="237" type="curve"/>
      <point x="53" y="68"/>
      <point x="113" y="-13"/>
      <point x="226" y="-13" type="curve"/>
      <point x="315" y="-13"/>
      <point x="386" y="54"/>
      <point x="411" y="139" type="curve"/>
      <point x="411" y="-84" type="line" smooth="yes"/>
      <point x="411" y="-160"/>
      <point x="409" y="-204"/>
      <point x="405" y="-220" type="curve"/>
      <point x="409" y="-224"/>
      <point x="414" y="-228"/>
    </contour>
    <contour>
      <point x="229" y="15" type="curve"/>
      <point x="137" y="15"/>
      <point x="85" y="79"/>
      <point x="85" y="234" type="curve"/>
      <point x="85" y="298"/>
      <point x="101" y="484"/>
      <point x="259" y="484" type="curve"/>
      <point x="326" y="484"/>
      <point x="390" y="457"/>
      <point x="412" y="433" type="curve"/>
      <point x="412" y="274" type="line" smooth="yes"/>
      <point x="412" y="196"/>
      <point x="368" y="15"/>
    </contour>
    <contour>
      <point x="227" y="284" type="move" name="bottom"/>
    </contour>
    <contour>
      <point x="227" y="-216" type="move" name="top"/>
    </contour>
  </outline>
</glyph>
<glyph name="t" format="1">
  <advance width="325"/>
  <unicode hex="0074"/>
  <outline>
    <contour>
      <point x="190" y="-12" type="curve"/>
      <point x="223" y="-12"/>
      <point x="254" y="0"/>
      <point x="254" y="22" type="curve"/>
      <point x="254" y="28"/>
      <point x="252" y="35"/>
      <point x="245" y="43" type="curve"/>
      <point x="237" y="26"/>
      <point x="214" y="16"/>
      <point x="191" y="16" type="curve"/>
      <point x="157" y="16"/>
      <point x="140" y="38"/>
      <point x="140" y="71" type="curve"/>
      <point x="141" y="428" type="line" smooth="yes"/>
      <point x="141" y="548"/>
      <point x="141" y="609"/>
      <point x="147" y="624" type="curve"/>
      <point x="143" y="628"/>
      <point x="138" y="632"/>
      <point x="129" y="632" type="curve"/>
      <point x="117" y="632"/>
      <point x="110" y="624"/>
      <point x="110" y="610" type="curve"/>
      <point x="110" y="71" type="line" smooth="yes"/>
      <point x="110" y="17"/>
      <point x="142" y="-12"/>
    </contour>
    <contour>
      <point x="37" y="486" type="curve"/>
      <point x="36" y="472" type="line"/>
      <point x="49" y="473"/>
      <point x="83" y="474"/>
      <point x="96" y="474" type="curve"/>
      <point x="258" y="474" type="line" smooth="yes"/>
      <point x="264" y="474"/>
      <point x="268" y="480"/>
      <point x="269" y="488" type="curve"/>
      <point x="270" y="502" type="line"/>
      <point x="260" y="501"/>
      <point x="228" y="500"/>
      <point x="218" y="500" type="curve"/>
      <point x="48" y="500" type="line" smooth="yes"/>
      <point x="42" y="500"/>
      <point x="38" y="494"/>
    </contour>
    <contour>
      <point x="183" y="0" type="move" name="bottom"/>
    </contour>
    <contour>
      <point x="167" y="250" type="move" name="center"/>
    </contour>
    <contour>
      <point x="124" y="566" type="move" name="top"/>
    </contour>
    <contour>
      <point x="305" y="500" type="move" name="topright"/>
    </contour>
  </outline>
</glyph>
<glyph name="x" format="1">
  <advance width="483"/>
  <unicode hex="0078"/>
  <outline>
    <contour>
      <point x="421" y="-13" type="curve"/>
      <point x="452" y="-13"/>
      <point x="470" y="6"/>
      <point x="470" y="24" type="curve"/>
      <point x="470" y="37"/>
      <point x="462" y="47"/>
      <point x="447" y="48" type="curve"/>
      <point x="451" y="35"/>
      <point x="444" y="16"/>
      <point x="421" y="16" type="curve"/>
      <point x="398" y="16"/>
      <point x="385" y="34"/>
      <point x="371" y="58" type="curve"/>
      <point x="250" y="267" type="line"/>
      <point x="143" y="455" type="line" smooth="yes"/>
      <point x="127" y="483"/>
      <point x="104" y="512"/>
      <point x="66" y="512" type="curve"/>
      <point x="36" y="512"/>
      <point x="17" y="493"/>
      <point x="17" y="474" type="curve"/>
      <point x="17" y="462"/>
      <point x="25" y="452"/>
      <point x="40" y="451" type="curve"/>
      <point x="37" y="467"/>
      <point x="44" y="483"/>
      <point x="67" y="483" type="curve"/>
      <point x="87" y="483"/>
      <point x="99" y="470"/>
      <point x="116" y="441" type="curve"/>
      <point x="224" y="253" type="line"/>
      <point x="344" y="44" type="line" smooth="yes"/>
      <point x="361" y="14"/>
      <point x="383" y="-13"/>
    </contour>
    <contour>
      <point x="51" y="-12" type="curve"/>
      <point x="58" y="-12"/>
      <point x="64" y="-8"/>
      <point x="69" y="-1" type="curve"/>
      <point x="250" y="256" type="line"/>
      <point x="233" y="280" type="line"/>
      <point x="84" y="73" type="line" smooth="yes"/>
      <point x="56" y="34"/>
      <point x="41" y="15"/>
      <point x="33" y="8" type="curve"/>
      <point x="35" y="-7"/>
      <point x="43" y="-12"/>
    </contour>
    <contour>
      <point x="235" y="273" type="line"/>
      <point x="252" y="251" type="line"/>
      <point x="384" y="426" type="line" smooth="yes"/>
      <point x="407" y="457"/>
      <point x="423" y="481"/>
      <point x="436" y="492" type="curve"/>
      <point x="433" y="506"/>
      <point x="427" y="512"/>
      <point x="418" y="512" type="curve"/>
      <point x="411" y="512"/>
      <point x="405" y="508"/>
      <point x="400" y="501" type="curve"/>
    </contour>
    <contour>
      <point x="241" y="0" type="move" name="bottom"/>
    </contour>
    <contour>
      <point x="241" y="500" type="move" name="top"/>
    </contour>
  </outline>
</glyph>
<glyph name="y" format="1">
  <advance width="536"/>
  <unicode hex="0079"/>
  <outline>
    <contour>
      <point x="235" y="-240" type="curve"/>
      <point x="358" y="-240"/>
      <point x="449" y="-170"/>
      <point x="449" y="46" type="curve"/>
      <point x="447" y="490" type="line" smooth="yes"/>
      <point x="447" y="504"/>
      <point x="441" y="512"/>
      <point x="430" y="512" type="curve"/>
      <point x="421" y="512"/>
      <point x="416" y="508"/>
      <point x="412" y="504" type="curve"/>
      <point x="418" y="481"/>
      <point x="418" y="447"/>
      <point x="418" y="267" type="curve"/>
      <point x="418" y="71"/>
      <point x="319" y="18"/>
      <point x="237" y="18" type="curve"/>
      <point x="155" y="18"/>
      <point x="119" y="70"/>
      <point x="119" y="206" type="curve"/>
      <point x="118" y="490" type="line" smooth="yes"/>
      <point x="118" y="504"/>
      <point x="112" y="512"/>
      <point x="101" y="512" type="curve"/>
      <point x="92" y="512"/>
      <point x="87" y="508"/>
      <point x="83" y="504" type="curve"/>
      <point x="87" y="488"/>
      <point x="89" y="460"/>
      <point x="89" y="417" type="curve"/>
      <point x="90" y="207" type="line" smooth="yes"/>
      <point x="91" y="46"/>
      <point x="143" y="-10"/>
      <point x="236" y="-10" type="curve"/>
      <point x="346" y="-10"/>
      <point x="422" y="71"/>
      <point x="431" y="195" type="curve"/>
      <point x="418" y="187" type="line"/>
      <point x="418" y="145"/>
      <point x="418" y="104"/>
      <point x="418" y="62" type="curve"/>
      <point x="418" y="-129"/>
      <point x="365" y="-212"/>
      <point x="233" y="-212" type="curve"/>
      <point x="183" y="-212"/>
      <point x="112" y="-195"/>
      <point x="112" y="-123" type="curve"/>
      <point x="112" y="-114"/>
      <point x="113" y="-90"/>
      <point x="132" y="-80" type="curve"/>
      <point x="128" y="-74"/>
      <point x="121" y="-71"/>
      <point x="114" y="-71" type="curve"/>
      <point x="94" y="-71"/>
      <point x="83" y="-99"/>
      <point x="83" y="-130" type="curve"/>
      <point x="83" y="-209"/>
      <point x="163" y="-240"/>
    </contour>
    <contour>
      <point x="256" y="-212" type="move" name="bottom"/>
    </contour>
    <contour>
      <point x="276" y="500" type="move" name="top"/>
    </contour>
  </outline>
</glyph>
<glyph name="braceleft" format="1">
  <advance width="342"/>
  <unicode hex="007B"/>
  <outline>
    <contour>
      <point x="255" y="-171" type="curve"/>
      <point x="281" y="-171"/>
      <point x="306" y="-165"/>
      <point x="310" y="-161" type="curve"/>
      <point x="314" y="-158"/>
      <point x="314" y="-145"/>
      <point x="303" y="-142" type="curve"/>
      <point x="292" y="-143"/>
      <point x="276" y="-145"/>
      <point x="265" y="-145" type="curve"/>
      <point x="200" y="-145"/>
      <point x="159" y="-107"/>
      <point x="159" y="-32" type="curve"/>
      <point x="159" y="16"/>
      <point x="176" y="96"/>
      <point x="176" y="162" type="curve"/>
      <point x="176" y="238"/>
      <point x="154" y="276"/>
      <point x="125" y="285" type="curve"/>
      <point x="125" y="291" type="line"/>
      <point x="152" y="300"/>
      <point x="176" y="332"/>
      <point x="176" y="416" type="curve"/>
      <point x="176" y="487"/>
      <point x="159" y="560"/>
      <point x="159" y="608" type="curve"/>
      <point x="159" y="682"/>
      <point x="200" y="720"/>
      <point x="265" y="720" type="curve"/>
      <point x="276" y="720"/>
      <point x="292" y="718"/>
      <point x="303" y="717" type="curve"/>
      <point x="314" y="720"/>
      <point x="314" y="733"/>
      <point x="310" y="736" type="curve"/>
      <point x="306" y="740"/>
      <point x="281" y="746"/>
      <point x="255" y="746" type="curve"/>
      <point x="185" y="746"/>
      <point x="131" y="703"/>
      <point x="131" y="604" type="curve"/>
      <point x="131" y="550"/>
      <point x="147" y="482"/>
      <point x="147" y="408" type="curve"/>
      <point x="147" y="350"/>
      <point x="134" y="321"/>
      <point x="80" y="300" type="curve"/>
      <point x="80" y="276" type="line"/>
      <point x="129" y="256"/>
      <point x="147" y="235"/>
      <point x="147" y="172" type="curve"/>
      <point x="147" y="101"/>
      <point x="131" y="24"/>
      <point x="131" y="-30" type="curve"/>
      <point x="131" y="-128"/>
      <point x="185" y="-171"/>
    </contour>
  </outline>
</glyph>
<glyph name="sterling" format="1">
  <advance width="508"/>
  <unicode hex="00A3"/>
  <outline>
    <contour>
      <point x="165" y="261" type="curve"/>
      <point x="165" y="350"/>
      <point x="146" y="421"/>
      <point x="146" y="499" type="curve"/>
      <point x="146" y="644"/>
      <point x="216" y="672"/>
      <point x="292" y="672" type="curve"/>
      <point x="344" y="672"/>
      <point x="393" y="642"/>
      <point x="393" y="582" type="curve"/>
      <point x="395" y="581"/>
      <point x="399" y="580"/>
      <point x="403" y="580" type="curve"/>
      <point x="410" y="580"/>
      <point x="418" y="584"/>
      <point x="418" y="603" type="curve"/>
      <point x="418" y="652"/>
      <point x="371" y="700"/>
      <point x="292" y="700" type="curve"/>
      <point x="198" y="700"/>
      <point x="117" y="659"/>
      <point x="117" y="498" type="curve"/>
      <point x="117" y="435"/>
      <point x="137" y="333"/>
      <point x="137" y="263" type="curve"/>
      <point x="137" y="173"/>
      <point x="112" y="122"/>
      <point x="44" y="22" type="curve"/>
      <point x="44" y="0" type="line"/>
      <point x="450" y="0" type="line"/>
      <point x="458" y="0"/>
      <point x="463" y="8"/>
      <point x="463" y="16" type="curve"/>
      <point x="463" y="20"/>
      <point x="462" y="24"/>
      <point x="458" y="26" type="curve"/>
      <point x="330" y="26"/>
      <point x="201" y="25"/>
      <point x="73" y="25" type="curve"/>
      <point x="140" y="113"/>
      <point x="165" y="167"/>
    </contour>
    <contour>
      <point x="34" y="313" type="curve"/>
      <point x="33" y="299" type="line"/>
      <point x="46" y="300"/>
      <point x="80" y="301"/>
      <point x="93" y="301" type="curve"/>
      <point x="340" y="301" type="line" smooth="yes"/>
      <point x="346" y="301"/>
      <point x="350" y="307"/>
      <point x="351" y="315" type="curve"/>
      <point x="352" y="329" type="line"/>
      <point x="342" y="328"/>
      <point x="310" y="327"/>
      <point x="300" y="327" type="curve"/>
      <point x="45" y="327" type="line" smooth="yes"/>
      <point x="39" y="327"/>
      <point x="35" y="321"/>
    </contour>
  </outline>
</glyph>
<glyph name="plusminus" format="1">
  <advance width="577"/>
  <unicode hex="00B1"/>
  <outline>
    <contour>
      <point x="484" y="372" type="curve"/>
      <point x="93" y="372" type="line"/>
      <point x="89" y="362"/>
      <point x="89" y="352"/>
      <point x="93" y="342" type="curve"/>
      <point x="484" y="342" type="line"/>
      <point x="488" y="352"/>
      <point x="488" y="362"/>
    </contour>
    <contour>
      <point x="303" y="211" type="curve"/>
      <point x="303" y="503" type="line"/>
      <point x="293" y="507"/>
      <point x="283" y="507"/>
      <point x="273" y="503" type="curve"/>
      <point x="274" y="212" type="line"/>
      <point x="283" y="208"/>
      <point x="294" y="208"/>
    </contour>
    <contour>
      <point x="484" y="152" type="curve"/>
      <point x="93" y="152" type="line"/>
      <point x="89" y="142"/>
      <point x="89" y="132"/>
      <point x="93" y="122" type="curve"/>
      <point x="484" y="122" type="line"/>
      <point x="488" y="132"/>
      <point x="488" y="142"/>
    </contour>
  </outline>
</glyph>
<glyph name="twosuperior" format="1">
  <advance width="349"/>
  <unicode hex="00B2"/>
  <outline>
    <contour>
      <point x="41" y="243" type="curve"/>
      <point x="327" y="243" type="line"/>
      <point x="334" y="246"/>
      <point x="334" y="263"/>
      <point x="328" y="267" type="curve"/>
      <point x="242" y="265"/>
      <point x="148" y="263"/>
      <point x="60" y="262" type="curve"/>
      <point x="178" y="347"/>
      <point x="303" y="450"/>
      <point x="303" y="571" type="curve"/>
      <point x="303" y="663"/>
      <point x="236" y="700"/>
      <point x="169" y="700" type="curve"/>
      <point x="90" y="700"/>
      <point x="47" y="647"/>
      <point x="47" y="617" type="curve"/>
      <point x="47" y="605"/>
      <point x="55" y="598"/>
      <point x="66" y="598" type="curve"/>
      <point x="69" y="622"/>
      <point x="93" y="679"/>
      <point x="167" y="679" type="curve"/>
      <point x="240" y="679"/>
      <point x="276" y="628"/>
      <point x="276" y="568" type="curve"/>
      <point x="276" y="462"/>
      <point x="165" y="368"/>
      <point x="34" y="265" type="curve"/>
      <point x="34" y="256"/>
      <point x="34" y="247"/>
    </contour>
  </outline>
</glyph>
<glyph name="AE" format="1">
  <advance width="803"/>
  <unicode hex="00C6"/>
  <outline>
    <contour>
      <point x="45" y="-8" type="curve"/>
      <point x="50" y="-8"/>
      <point x="54" y="-8"/>
      <point x="59" y="-6" type="curve"/>
      <point x="57" y="-2"/>
      <point x="57" y="4"/>
      <point x="57" y="8" type="curve"/>
      <point x="57" y="14"/>
      <point x="59" y="24"/>
      <point x="62" y="29" type="curve"/>
      <point x="386" y="634" type="line"/>
      <point x="387" y="624"/>
      <point x="387" y="613"/>
      <point x="387" y="600" type="curve"/>
      <point x="389" y="22" type="line" smooth="yes"/>
      <point x="389" y="8"/>
      <point x="395" y="0"/>
      <point x="406" y="0" type="curve"/>
      <point x="723" y="0" type="line" smooth="yes"/>
      <point x="735" y="0"/>
      <point x="733" y="22"/>
      <point x="723" y="26" type="curve"/>
      <point x="621" y="26"/>
      <point x="520" y="25"/>
      <point x="418" y="25" type="curve"/>
      <point x="416" y="662" type="line"/>
      <point x="514" y="662"/>
      <point x="612" y="662"/>
      <point x="710" y="662" type="curve"/>
      <point x="721" y="665"/>
      <point x="727" y="688"/>
      <point x="713" y="688" type="curve"/>
      <point x="435" y="688" type="line"/>
      <point x="419" y="688"/>
      <point x="403" y="688"/>
      <point x="387" y="688" type="curve"/>
      <point x="33" y="34" type="line" smooth="yes"/>
      <point x="29" y="27"/>
      <point x="27" y="17"/>
      <point x="27" y="10" type="curve"/>
      <point x="26" y="-1"/>
      <point x="34" y="-8"/>
    </contour>
    <contour>
      <point x="166" y="260" type="line"/>
      <point x="166" y="234" type="line"/>
      <point x="399" y="234" type="line"/>
      <point x="399" y="260" type="line"/>
    </contour>
    <contour>
      <point x="411" y="380" type="line"/>
      <point x="411" y="354" type="line"/>
      <point x="691" y="354" type="line"/>
      <point x="694" y="363"/>
      <point x="694" y="371"/>
      <point x="691" y="380" type="curve"/>
    </contour>
    <contour>
      <point x="194" y="0" type="move" name="bottom"/>
    </contour>
    <contour>
      <point x="403" y="-4" type="move" name="ogonek"/>
    </contour>
    <contour>
      <point x="194" y="688" type="move" name="top"/>
    </contour>
    <contour>
      <point x="464" y="688" type="move" name="topleft"/>
    </contour>
  </outline>
</glyph>
<glyph name="Eth" format="1">
  <advance width="619"/>
  <unicode hex="00D0"/>
  <outline>
    <contour>
      <point x="310" y="361" type="curve"/>
      <point x="27" y="361" type="line"/>
      <point x="23" y="353"/>
      <point x="23" y="344"/>
      <point x="27" y="336" type="curve"/>
      <point x="310" y="336" type="line"/>
      <point x="314" y="344"/>
      <point x="314" y="353"/>
    </contour>
    <component base="D"/>
  </outline>
</glyph>
<glyph name="Oslash" format="1">
  <advance width="618"/>
  <unicode hex="00D8"/>
  <outline>
    <contour>
      <point x="496" y="701" type="curve"/>
      <point x="88" y="-1" type="line"/>
      <point x="92" y="-9"/>
      <point x="100" y="-13"/>
      <point x="110" y="-13" type="curve"/>
      <point x="517" y="688" type="line"/>
      <point x="513" y="696"/>
      <point x="506" y="701"/>
    </contour>
    <component base="O"/>
    <contour>
      <point x="309" y="0" type="move" name="bottom"/>
    </contour>
    <contour>
      <point x="309" y="688" type="move" name="top"/>
    </contour>
  </outline>
</glyph>
<glyph name="ae" format="1">
  <advance width="849"/>
  <unicode hex="00E6"/>
  <outline>
    <contour>
      <point x="173" y="-12" type="curve"/>
      <point x="271" y="-12"/>
      <point x="375" y="63"/>
      <point x="422" y="194" type="curve"/>
      <point x="406" y="206" type="line"/>
      <point x="406" y="176" type="line"/>
      <point x="436" y="166" type="line"/>
      <point x="436" y="298" type="line" smooth="yes"/>
      <point x="436" y="437"/>
      <point x="376" y="512"/>
      <point x="247" y="512" type="curve"/>
      <point x="143" y="512"/>
      <point x="76" y="474"/>
      <point x="76" y="395" type="curve"/>
      <point x="76" y="357"/>
      <point x="98" y="312"/>
      <point x="128" y="312" type="curve"/>
      <point x="134" y="312"/>
      <point x="147" y="315"/>
      <point x="155" y="328" type="curve"/>
      <point x="121" y="336"/>
      <point x="105" y="371"/>
      <point x="105" y="397" type="curve"/>
      <point x="105" y="468"/>
      <point x="182" y="484"/>
      <point x="241" y="484" type="curve"/>
      <point x="357" y="484"/>
      <point x="406" y="422"/>
      <point x="406" y="298" type="curve"/>
      <point x="406" y="272" type="line"/>
      <point x="344" y="279"/>
      <point x="270" y="274"/>
      <point x="212" y="259" type="curve"/>
      <point x="106" y="230"/>
      <point x="55" y="173"/>
      <point x="55" y="102" type="curve"/>
      <point x="55" y="38"/>
      <point x="93" y="-12"/>
    </contour>
    <contour>
      <point x="179" y="15" type="curve"/>
      <point x="111" y="15"/>
      <point x="87" y="58"/>
      <point x="87" y="104" type="curve"/>
      <point x="87" y="166"/>
      <point x="133" y="208"/>
      <point x="214" y="232" type="curve"/>
      <point x="264" y="247"/>
      <point x="352" y="256"/>
      <point x="406" y="251" type="curve"/>
      <point x="403" y="136"/>
      <point x="281" y="15"/>
    </contour>
    <component base="e" xOffset="352"/>
    <contour>
      <point x="118" y="0" type="move" name="bottom"/>
    </contour>
    <contour>
      <point x="297" y="-3" type="move" name="ogonek"/>
    </contour>
    <contour>
      <point x="118" y="500" type="move" name="top"/>
    </contour>
  </outline>
</glyph>
<glyph name="divide" format="1">
  <advance width="557"/>
  <unicode hex="00F7"/>
  <outline>
    <contour>
      <point x="474" y="368" type="curve"/>
      <point x="83" y="368" type="line"/>
      <point x="79" y="358"/>
      <point x="79" y="348"/>
      <point x="83" y="338" type="curve"/>
      <point x="474" y="338" type="line"/>
      <point x="478" y="348"/>
      <point x="478" y="358"/>
    </contour>
    <contour>
      <point x="279" y="478" type="curve"/>
      <point x="297" y="478"/>
      <point x="313" y="494"/>
      <point x="313" y="512" type="curve"/>
      <point x="313" y="530"/>
      <point x="297" y="546"/>
      <point x="279" y="546" type="curve"/>
      <point x="261" y="546"/>
      <point x="245" y="530"/>
      <point x="245" y="512" type="curve"/>
      <point x="245" y="494"/>
      <point x="261" y="478"/>
    </contour>
    <contour>
      <point x="279" y="160" type="curve"/>
      <point x="297" y="160"/>
      <point x="313" y="176"/>
      <point x="313" y="194" type="curve"/>
      <point x="313" y="212"/>
      <point x="297" y="228"/>
      <point x="279" y="228" type="curve"/>
      <point x="261" y="228"/>
      <point x="245" y="212"/>
      <point x="245" y="194" type="curve"/>
      <point x="245" y="176"/>
      <point x="261" y="160"/>
    </contour>
  </outline>
</glyph>
<glyph name="oslash" format="1">
  <advance width="534"/>
  <unicode hex="00F8"/>
  <outline>
    <contour>
      <point x="409" y="512" type="curve"/>
      <point x="106" y="3" type="line"/>
      <point x="111" y="-5"/>
      <point x="117" y="-8"/>
      <point x="127" y="-9" type="curve"/>
      <point x="431" y="499" type="line"/>
      <point x="427" y="507"/>
      <point x="419" y="512"/>
    </contour>
    <component base="o"/>
    <contour>
      <point x="267" y="500" type="move" name="top"/>
    </contour>
  </outline>
</glyph>
<glyph name="dcroat" format="1">
  <advance width="548"/>
  <unicode hex="0111"/>
  <outline>
    <contour>
      <point x="518" y="613" type="curve"/>
      <point x="289" y="613" type="line"/>
      <point x="285" y="605"/>
      <point x="285" y="596"/>
      <point x="289" y="588" type="curve"/>
      <point x="518" y="588" type="line"/>
      <point x="522" y="596"/>
      <point x="522" y="605"/>
    </contour>
    <component base="d"/>
  </outline>
</glyph>
<glyph name="eogonek" format="1">
  <advance width="497"/>
  <unicode hex="0119"/>
  <outline>
    <component base="e"/>
    <component base="ogonekcomb" xOffset="44" yOffset="17"/>
    <contour>
      <point x="300" y="500" type="move" name="top"/>
    </contour>
  </outline>
</glyph>
<glyph name="Hbar" format="1">
  <advance width="662"/>
  <unicode hex="0126"/>
  <outline>
    <contour>
      <point x="605" y="578" type="curve"/>
      <point x="56" y="578" type="line"/>
      <point x="52" y="570"/>
      <point x="52" y="561"/>
      <point x="56" y="553" type="curve"/>
      <point x="605" y="553" type="line"/>
      <point x="609" y="561"/>
      <point x="609" y="570"/>
    </contour>
    <component base="H"/>
  </outline>
</glyph>
<glyph name="hbar" format="1">
  <advance width="564"/>
  <unicode hex="0127"/>
  <outline>
    <contour>
      <point x="259" y="613" type="curve"/>
      <point x="30" y="613" type="line"/>
      <point x="26" y="605"/>
      <point x="26" y="596"/>
      <point x="30" y="588" type="curve"/>
      <point x="259" y="588" type="line"/>
      <point x="263" y="596"/>
      <point x="263" y="605"/>
    </contour>
    <component base="h"/>
  </outline>
</glyph>
<glyph name="Lslash" format="1">
  <advance width="456"/>
  <unicode hex="0141"/>
  <outline>
    <contour>
      <point x="259" y="407" type="curve"/>
      <point x="37" y="186" type="line"/>
      <point x="39" y="176"/>
      <point x="45" y="171"/>
      <point x="55" y="169" type="curve"/>
      <point x="277" y="389" type="line"/>
      <point x="274" y="398"/>
      <point x="268" y="404"/>
    </contour>
    <component base="L"/>
  </outline>
</glyph>
<glyph name="Ohorn" format="1">
  <advance width="638"/>
  <unicode hex="01A0"/>
  <outline>
    <component base="O"/>
    <component base="horncomb" xOffset="317" yOffset="123"/>
    <contour>
      <point x="300" y="0" type="move" name="bottom"/>
    </contour>
    <contour>
      <point x="300" y="688" type="move" name="top"/>
    </contour>
  </outline>
</glyph>
<glyph name="dotlessj" format="1">
  <advance width="238"/>
  <unicode hex="0237"/>
  <outline>
    <contour>
      <point x="34" y="-236" type="curve"/>
      <point x="136" y="-236"/>
      <point x="148" y="-145"/>
      <point x="148" y="-83" type="curve"/>
      <point x="147" y="490" type="line" smooth="yes"/>
      <point x="147" y="504"/>
      <point x="141" y="512"/>
      <point x="130" y="512" type="curve"/>
      <point x="121" y="512"/>
      <point x="116" y="508"/>
      <point x="112" y="504" type="curve"/>
      <point x="116" y="488"/>
      <point x="118" y="455"/>
      <point x="118" y="417" type="curve"/>
      <point x="117" y="-80" type="line" smooth="yes"/>
      <point x="117" y="-160"/>
      <point x="101" y="-208"/>
      <point x="32" y="-208" type="curve"/>
      <point x="7" y="-208"/>
      <point x="-30" y="-202"/>
      <point x="-30" y="-154" type="curve"/>
      <point x="-30" y="-147"/>
      <point x="-30" y="-140"/>
      <point x="-28" y="-132" type="curve"/>
      <point x="-29" y="-132"/>
      <point x="-30" y="-132"/>
      <point x="-31" y="-132" type="curve"/>
      <point x="-49" y="-132"/>
      <point x="-55" y="-150"/>
      <point x="-55" y="-164" type="curve"/>
      <point x="-55" y="-209"/>
      <point x="-24" y="-236"/>
    </contour>
    <contour>
      <point x="130" y="0" type="move" name="bottom"/>
    </contour>
    <contour>
      <point x="130" y="500" type="move" name="top"/>
    </contour>
  </outline>
</glyph>
<glyph name="ascript" format="1">
  <advance width="544"/>
  <unicode hex="0251"/>
  <outline>
    <contour>
      <point x="219" y="-12" type="curve"/>
      <point x="355" y="-12"/>
      <point x="417" y="112"/>
      <point x="434" y="229" type="curve"/>
      <point x="411" y="200" type="line"/>
      <point x="411" y="73" type="line" smooth="yes"/>
      <point x="411" y="20"/>
      <point x="430" y="-7"/>
      <point x="468" y="-7" type="curve"/>
      <point x="492" y="-7"/>
      <point x="508" y="2"/>
      <point x="508" y="17" type="curve"/>
      <point x="508" y="24"/>
      <point x="505" y="31"/>
      <point x="498" y="39" type="curve"/>
      <point x="491" y="23"/>
      <point x="479" y="21"/>
      <point x="471" y="21" type="curve"/>
      <point x="453" y="21"/>
      <point x="441" y="34"/>
      <point x="441" y="71" type="curve"/>
      <point x="442" y="488" type="line" smooth="yes"/>
      <point x="442" y="499"/>
      <point x="438" y="510"/>
      <point x="422" y="510" type="curve"/>
      <point x="415" y="510"/>
      <point x="413" y="508"/>
      <point x="409" y="504" type="curve"/>
      <point x="412" y="494"/>
      <point x="413" y="447"/>
      <point x="411" y="418" type="curve"/>
      <point x="389" y="480"/>
      <point x="334" y="512"/>
      <point x="261" y="512" type="curve"/>
      <point x="123" y="512"/>
      <point x="53" y="400"/>
      <point x="53" y="222" type="curve"/>
      <point x="53" y="144"/>
      <point x="67" y="-12"/>
    </contour>
    <contour>
      <point x="221" y="16" type="curve"/>
      <point x="97" y="16"/>
      <point x="85" y="150"/>
      <point x="85" y="225" type="curve"/>
      <point x="85" y="403"/>
      <point x="151" y="484"/>
      <point x="259" y="484" type="curve"/>
      <point x="387" y="484"/>
      <point x="411" y="369"/>
      <point x="411" y="282" type="curve"/>
      <point x="411" y="131"/>
      <point x="336" y="16"/>
    </contour>
    <contour>
      <point x="274" y="0" type="move" name="bottom"/>
    </contour>
    <contour>
      <point x="274" y="500" type="move" name="top"/>
    </contour>
  </outline>
</glyph>
<glyph name="gravecomb" format="1">
  <advance width="600"/>
  <unicode hex="0300"/>
  <outline>
    <component base="acutecomb" xScale="-1" xOffset="553"/>
    <contour>
      <point x="314" y="500" type="move" name="_top"/>
    </contour>
    <contour>
      <point x="306" y="688" type="move" name="top"/>
    </contour>
  </outline>
</glyph>
<glyph name="acutecomb" format="1">
  <advance width="600"/>
  <unicode hex="0301"/>
  <outline>
    <contour>
      <point x="254" y="557" type="curve"/>
      <point x="365" y="689" type="line"/>
      <point x="351" y="698"/>
      <point x="339" y="701"/>
      <point x="320" y="702" type="curve"/>
      <point x="229" y="562" type="line"/>
      <point x="231" y="557"/>
      <point x="247" y="556"/>
    </contour>
    <contour>
      <point x="252" y="500" type="move" name="_top"/>
    </contour>
    <contour>
      <point x="322" y="677" type="move" name="top"/>
    </contour>
  </outline>
</glyph>
<glyph name="circumflexcomb" format="1">
  <advance width="600"/>
  <unicode hex="0302"/>
  <outline>
    <contour>
      <point x="197" y="556" type="curve"/>
      <point x="300" y="648" type="line"/>
      <point x="403" y="556" type="line"/>
      <point x="409" y="556"/>
      <point x="421" y="558"/>
      <point x="427" y="564" type="curve"/>
      <point x="317" y="682" type="line"/>
      <point x="305" y="684"/>
      <point x="294" y="684"/>
      <point x="282" y="682" type="curve"/>
      <point x="172" y="564" type="line"/>
      <point x="175" y="558"/>
      <point x="191" y="556"/>
    </contour>
    <contour>
      <point x="300" y="500" type="move" name="_top"/>
    </contour>
    <contour>
      <point x="300" y="623" type="move" name="top"/>
    </contour>
  </outline>
</glyph>
<glyph name="tildecomb" format="1">
  <advance width="600"/>
  <unicode hex="0303"/>
  <outline>
    <contour>
      <point x="431" y="651" type="curve"/>
      <point x="426" y="657"/>
      <point x="420" y="660"/>
      <point x="411" y="660" type="curve"/>
      <point x="401" y="633"/>
      <point x="390" y="613"/>
      <point x="362" y="613" type="curve"/>
      <point x="313" y="613"/>
      <point x="296" y="664"/>
      <point x="241" y="664" type="curve"/>
      <point x="205" y="664"/>
      <point x="170" y="642"/>
      <point x="160" y="597" type="curve"/>
      <point x="165" y="591"/>
      <point x="172" y="586"/>
      <point x="179" y="587" type="curve"/>
      <point x="187" y="617"/>
      <point x="212" y="633"/>
      <point x="238" y="633" type="curve"/>
      <point x="285" y="633"/>
      <point x="302" y="582"/>
      <point x="357" y="582" type="curve"/>
      <point x="395" y="582"/>
      <point x="423" y="612"/>
    </contour>
    <contour>
      <point x="296" y="500" type="move" name="_top"/>
    </contour>
    <contour>
      <point x="300" y="668" type="move" name="top"/>
    </contour>
  </outline>
</glyph>
<glyph name="macroncomb" format="1">
  <advance width="600"/>
  <unicode hex="0304"/>
  <outline>
    <contour>
      <point x="417" y="627" type="curve"/>
      <point x="182" y="627" type="line"/>
      <point x="178" y="618"/>
      <point x="178" y="608"/>
      <point x="182" y="599" type="curve"/>
      <point x="417" y="599" type="line"/>
      <point x="421" y="608"/>
      <point x="421" y="618"/>
    </contour>
    <contour>
      <point x="300" y="500" type="move" name="_top"/>
    </contour>
    <contour>
      <point x="300" y="631" type="move" name="top"/>
    </contour>
  </outline>
</glyph>
<glyph name="dieresiscomb" format="1">
  <advance width="600"/>
  <unicode hex="0308"/>
  <outline>
    <contour>
      <point x="220" y="587" type="curve"/>
      <point x="238" y="587"/>
      <point x="254" y="603"/>
      <point x="254" y="621" type="curve"/>
      <point x="254" y="639"/>
      <point x="238" y="655"/>
      <point x="220" y="655" type="curve"/>
      <point x="202" y="655"/>
      <point x="186" y="639"/>
      <point x="186" y="621" type="curve"/>
      <point x="186" y="603"/>
      <point x="202" y="587"/>
    </contour>
    <contour>
      <point x="380" y="587" type="curve"/>
      <point x="398" y="587"/>
      <point x="414" y="603"/>
      <point x="414" y="621" type="curve"/>
      <point x="414" y="639"/>
      <point x="398" y="655"/>
      <point x="380" y="655" type="curve"/>
      <point x="362" y="655"/>
      <point x="346" y="639"/>
      <point x="346" y="621" type="curve"/>
      <point x="346" y="603"/>
      <point x="362" y="587"/>
    </contour>
    <contour>
      <point x="297" y="500" type="move" name="_top"/>
    </contour>
    <contour>
      <point x="297" y="612" type="move" name="top"/>
    </contour>
  </outline>
</glyph>
<glyph name="hungarumlautcomb" format="1">
  <advance width="600"/>
  <unicode hex="030B"/>
  <outline>
    <contour>
      <point x="177" y="537" type="curve"/>
      <point x="316" y="694" type="line"/>
      <point x="303" y="706"/>
      <point x="289" y="710"/>
      <point x="273" y="712" type="curve"/>
      <point x="158" y="550" type="line"/>
      <point x="162" y="545"/>
      <point x="170" y="539"/>
    </contour>
    <contour>
      <point x="303" y="537" type="curve"/>
      <point x="442" y="694" type="line"/>
      <point x="429" y="706"/>
      <point x="415" y="710"/>
      <point x="399" y="712" type="curve"/>
      <point x="284" y="550" type="line"/>
      <point x="288" y="545"/>
      <point x="296" y="539"/>
    </contour>
    <contour>
      <point x="236" y="500" type="move" name="_top"/>
    </contour>
    <contour>
      <point x="232" y="0" type="move" name="top"/>
    </contour>
  </outline>
</glyph>
<glyph name="ogonekcomb" format="1">
  <advance width="600"/>
  <unicode hex="0328"/>
  <outline>
    <contour>
      <point x="307" y="-168" type="curve"/>
      <point x="345" y="-168"/>
      <point x="383" y="-149"/>
      <point x="401" y="-111" type="curve"/>
      <point x="403" y="-103"/>
      <point x="400" y="-97"/>
      <point x="394" y="-93" type="curve"/>
      <point x="383" y="-112"/>
      <point x="353" y="-144"/>
      <point x="311" y="-144" type="curve"/>
      <point x="276" y="-144"/>
      <point x="258" y="-122"/>
      <point x="258" y="-90" type="curve"/>
      <point x="258" y="-49"/>
      <point x="287" y="-26"/>
      <point x="339" y="-2" type="curve"/>
      <point x="328" y="13" type="line"/>
      <point x="278" y="-4"/>
      <point x="226" y="-37"/>
      <point x="226" y="-94" type="curve"/>
      <point x="226" y="-144"/>
      <point x="265" y="-168"/>
    </contour>
    <contour>
      <point x="321" y="0" type="move" name="_ogonek"/>
    </contour>
  </outline>
</glyph>
<glyph name="brevebelowcomb" format="1">
  <advance width="600"/>
  <unicode hex="032E"/>
  <outline>
    <contour>
      <point x="303" y="-120" type="curve"/>
      <point x="233" y="-120"/>
      <point x="201" y="-69"/>
      <point x="190" y="-41" type="curve"/>
      <point x="164" y="-52" type="line"/>
      <point x="173" y="-88"/>
      <point x="213" y="-152"/>
      <point x="297" y="-152" type="curve"/>
      <point x="370" y="-152"/>
      <point x="421" y="-102"/>
      <point x="435" y="-48" type="curve"/>
      <point x="408" y="-43" type="line"/>
      <point x="399" y="-67"/>
      <point x="374" y="-120"/>
    </contour>
    <contour>
      <point x="294" y="0" type="move" name="_bottom"/>
    </contour>
    <contour>
      <point x="298" y="0" type="move" name="bottom"/>
    </contour>
  </outline>
</glyph>
<glyph name="Omega" format="1">
  <advance width="618"/>
  <unicode hex="03A9"/>
  <outline>
    <contour>
      <point x="255" y="0" type="curve"/>
      <point x="255" y="18" type="line"/>
      <point x="174" y="47"/>
      <point x="92" y="181"/>
      <point x="92" y="374" type="curve"/>
      <point x="92" y="579"/>
      <point x="173" y="672"/>
      <point x="309" y="672" type="curve"/>
      <point x="445" y="672"/>
      <point x="526" y="579"/>
      <point x="526" y="374" type="curve"/>
      <point x="526" y="181"/>
      <point x="465" y="47"/>
      <point x="363" y="18" type="curve"/>
      <point x="363" y="0" type="line"/>
      <point x="485" y="23"/>
      <point x="558" y="170"/>
      <point x="558" y="374" type="curve"/>
      <point x="558" y="597"/>
      <point x="466" y="700"/>
      <point x="309" y="700" type="curve"/>
      <point x="152" y="700"/>
      <point x="60" y="597"/>
      <point x="60" y="374" type="curve"/>
      <point x="60" y="169"/>
      <point x="154" y="23"/>
    </contour>
    <contour>
      <point x="47" y="0" type="curve"/>
      <point x="255" y="0" type="line"/>
      <point x="255" y="18" type="line"/>
      <point x="33" y="27" type="line"/>
      <point x="26" y="14"/>
      <point x="32" y="0"/>
    </contour>
    <contour>
      <point x="363" y="18" type="line"/>
      <point x="363" y="0" type="line"/>
      <point x="571" y="0" type="line" smooth="yes"/>
      <point x="586" y="0"/>
      <point x="592" y="14"/>
      <point x="585" y="27" type="curve"/>
    </contour>
  </outline>
</glyph>
<glyph name="alpha" format="1">
  <advance width="585"/>
  <unicode hex="03B1"/>
  <outline>
    <contour>
      <point x="179" y="-12" type="curve"/>
      <point x="297" y="-12"/>
      <point x="347" y="86"/>
      <point x="372" y="203" type="curve"/>
      <point x="375" y="203" type="line"/>
      <point x="373" y="44"/>
      <point x="412" y="-12"/>
      <point x="466" y="-12" type="curve"/>
      <point x="509" y="-12"/>
      <point x="546" y="26"/>
      <point x="546" y="67" type="curve"/>
      <point x="546" y="84"/>
      <point x="540" y="88"/>
      <point x="532" y="91" type="curve"/>
      <point x="528" y="63"/>
      <point x="508" y="16"/>
      <point x="467" y="16" type="curve"/>
      <point x="410" y="16"/>
      <point x="396" y="128"/>
      <point x="396" y="277" type="curve"/>
      <point x="445" y="480" type="line" smooth="yes"/>
      <point x="448" y="493"/>
      <point x="447" y="512"/>
      <point x="428" y="512" type="curve"/>
      <point x="423" y="512"/>
      <point x="418" y="510"/>
      <point x="415" y="508" type="curve"/>
      <point x="419" y="492"/>
      <point x="417" y="484"/>
      <point x="412" y="463" type="curve"/>
      <point x="380" y="328" type="line" smooth="yes"/>
      <point x="348" y="193"/>
      <point x="322" y="16"/>
      <point x="182" y="16" type="curve"/>
      <point x="90" y="16"/>
      <point x="37" y="109"/>
      <point x="37" y="231" type="curve"/>
      <point x="37" y="332"/>
      <point x="89" y="484"/>
      <point x="222" y="484" type="curve"/>
      <point x="301" y="484"/>
      <point x="358" y="421"/>
      <point x="386" y="316" type="curve"/>
      <point x="400" y="352" type="line"/>
      <point x="362" y="467"/>
      <point x="301" y="512"/>
      <point x="220" y="512" type="curve"/>
      <point x="90" y="512"/>
      <point x="5" y="385"/>
      <point x="5" y="231" type="curve"/>
      <point x="5" y="47"/>
      <point x="105" y="-12"/>
    </contour>
    <contour>
      <point x="260" y="500" type="move" name="top"/>
    </contour>
  </outline>
</glyph>
<glyph name="iota" format="1">
  <advance width="191"/>
  <unicode hex="03B9"/>
  <outline>
    <contour>
      <point x="138" y="-12" type="curve"/>
      <point x="160" y="-12"/>
      <point x="186" y="0"/>
      <point x="186" y="22" type="curve"/>
      <point x="186" y="28"/>
      <point x="184" y="35"/>
      <point x="177" y="43" type="curve"/>
      <point x="169" y="26"/>
      <point x="159" y="16"/>
      <point x="139" y="16" type="curve"/>
      <point x="116" y="16"/>
      <point x="101" y="32"/>
      <point x="101" y="69" type="curve"/>
      <point x="101" y="490" type="line" smooth="yes"/>
      <point x="101" y="504"/>
      <point x="95" y="512"/>
      <point x="83" y="512" type="curve"/>
      <point x="74" y="512"/>
      <point x="69" y="508"/>
      <point x="65" y="504" type="curve"/>
      <point x="69" y="488"/>
      <point x="71" y="457"/>
      <point x="71" y="417" type="curve"/>
      <point x="71" y="71" type="line" smooth="yes"/>
      <point x="71" y="21"/>
      <point x="91" y="-12"/>
    </contour>
    <contour>
      <point x="83" y="500" type="move" name="top"/>
    </contour>
  </outline>
</glyph>
<glyph name="lambda" format="1">
  <advance width="507"/>
  <unicode hex="03BB"/>
  <outline>
    <contour>
      <point x="479" y="-12" type="curve"/>
      <point x="516" y="-12"/>
      <point x="527" y="12"/>
      <point x="527" y="22" type="curve"/>
      <point x="527" y="30"/>
      <point x="523" y="38"/>
      <point x="518" y="43" type="curve"/>
      <point x="513" y="31"/>
      <point x="501" y="16"/>
      <point x="483" y="16" type="curve"/>
      <point x="456" y="16"/>
      <point x="446" y="43"/>
      <point x="437" y="65" type="curve"/>
      <point x="216" y="626" type="line" smooth="yes"/>
      <point x="193" y="684"/>
      <point x="166" y="716"/>
      <point x="111" y="716" type="curve"/>
      <point x="77" y="716"/>
      <point x="44" y="700"/>
      <point x="44" y="682" type="curve"/>
      <point x="44" y="673"/>
      <point x="47" y="667"/>
      <point x="53" y="661" type="curve"/>
      <point x="61" y="678"/>
      <point x="83" y="688"/>
      <point x="107" y="688" type="curve"/>
      <point x="136" y="688"/>
      <point x="163" y="683"/>
      <point x="188" y="619" type="curve"/>
      <point x="414" y="39" type="line" smooth="yes"/>
      <point x="429" y="1"/>
      <point x="448" y="-12"/>
    </contour>
    <contour>
      <point x="59" y="-12" type="curve"/>
      <point x="66" y="-12"/>
      <point x="71" y="-11"/>
      <point x="73" y="-10" type="curve"/>
      <point x="71" y="-7"/>
      <point x="71" y="-1"/>
      <point x="71" y="1" type="curve"/>
      <point x="71" y="43"/>
      <point x="208" y="361"/>
      <point x="255" y="477" type="curve"/>
      <point x="235" y="506" type="line"/>
      <point x="175" y="360"/>
      <point x="40" y="39"/>
      <point x="40" y="7" type="curve"/>
      <point x="40" y="1"/>
      <point x="42" y="-12"/>
    </contour>
  </outline>
</glyph>
<glyph name="pi" format="1">
  <advance width="575"/>
  <unicode hex="03C0"/>
  <outline>
    <contour>
      <point x="136" y="87" type="curve"/>
      <point x="135" y="488" type="line"/>
      <point x="105" y="488" type="line"/>
      <point x="107" y="14" type="line" smooth="yes"/>
      <point x="107" y="0"/>
      <point x="113" y="-8"/>
      <point x="124" y="-8" type="curve"/>
      <point x="133" y="-8"/>
      <point x="138" y="-4"/>
      <point x="142" y="0" type="curve"/>
      <point x="138" y="16"/>
      <point x="136" y="47"/>
    </contour>
    <contour>
      <point x="452" y="71" type="curve"/>
      <point x="453" y="488" type="line"/>
      <point x="422" y="488" type="line"/>
      <point x="422" y="73" type="line" smooth="yes"/>
      <point x="422" y="19"/>
      <point x="450" y="-10"/>
      <point x="492" y="-10" type="curve"/>
      <point x="520" y="-10"/>
      <point x="546" y="2"/>
      <point x="546" y="24" type="curve"/>
      <point x="546" y="30"/>
      <point x="544" y="37"/>
      <point x="537" y="45" type="curve"/>
      <point x="529" y="28"/>
      <point x="512" y="18"/>
      <point x="493" y="18" type="curve"/>
      <point x="466" y="18"/>
      <point x="452" y="38"/>
    </contour>
    <contour>
      <point x="26" y="486" type="curve"/>
      <point x="25" y="472" type="line"/>
      <point x="38" y="473"/>
      <point x="72" y="474"/>
      <point x="85" y="474" type="curve"/>
      <point x="538" y="474" type="line" smooth="yes"/>
      <point x="544" y="474"/>
      <point x="548" y="480"/>
      <point x="549" y="488" type="curve"/>
      <point x="550" y="502" type="line"/>
      <point x="540" y="501"/>
      <point x="508" y="500"/>
      <point x="498" y="500" type="curve"/>
      <point x="37" y="500" type="line" smooth="yes"/>
      <point x="31" y="500"/>
      <point x="27" y="494"/>
    </contour>
  </outline>
</glyph>
<glyph name="rho" format="1">
  <advance width="517"/>
  <unicode hex="03C1"/>
  <outline>
    <contour>
      <point x="80" y="137" type="curve"/>
      <point x="61" y="115" type="line"/>
      <point x="96" y="35"/>
      <point x="168" y="-12"/>
      <point x="248" y="-12" type="curve"/>
      <point x="390" y="-12"/>
      <point x="472" y="108"/>
      <point x="472" y="278" type="curve"/>
      <point x="472" y="394"/>
      <point x="407" y="512"/>
      <point x="271" y="512" type="curve"/>
      <point x="160" y="512"/>
      <point x="55" y="433"/>
      <point x="55" y="236" type="curve"/>
      <point x="55" y="-8"/>
      <point x="77" y="-230"/>
      <point x="140" y="-230" type="curve"/>
      <point x="151" y="-230"/>
      <point x="159" y="-222"/>
      <point x="160" y="-213" type="curve"/>
      <point x="124" y="-197"/>
      <point x="85" y="-100"/>
      <point x="88" y="233" type="curve"/>
      <point x="89" y="396"/>
      <point x="167" y="484"/>
      <point x="271" y="484" type="curve"/>
      <point x="381" y="484"/>
      <point x="440" y="388"/>
      <point x="440" y="281" type="curve"/>
      <point x="440" y="131"/>
      <point x="378" y="16"/>
      <point x="248" y="16" type="curve"/>
      <point x="186" y="16"/>
      <point x="115" y="58"/>
    </contour>
  </outline>
</glyph>
<glyph name="danda-deva" format="1">
  <advance width="230"/>
  <unicode hex="0964"/>
  <outline>
    <contour>
      <point x="100" y="730" type="line"/>
      <point x="100" y="-142" type="line"/>
      <point x="130" y="-132" type="line"/>
      <point x="130" y="730" type="line"/>
    </contour>
  </outline>
</glyph>
<glyph name="anusvara-tamil" format="1">
  <advance width="0"/>
  <unicode hex="0B82"/>
  <outline>
    <contour>
      <point x="0" y="607" type="curve"/>
      <point x="57" y="607"/>
      <point x="89" y="646"/>
      <point x="89" y="695" type="curve"/>
      <point x="89" y="744"/>
      <point x="57" y="783"/>
      <point x="0" y="783" type="curve"/>
      <point x="-56" y="783"/>
      <point x="-88" y="744"/>
      <point x="-88" y="695" type="curve"/>
      <point x="-88" y="646"/>
      <point x="-56" y="607"/>
    </contour>
    <contour>
      <point x="0" y="634" type="curve"/>
      <point x="-36" y="634"/>
      <point x="-58" y="661"/>
      <point x="-58" y="695" type="curve"/>
      <point x="-58" y="729"/>
      <point x="-36" y="756"/>
      <point x="0" y="756" type="curve"/>
      <point x="37" y="756"/>
      <point x="59" y="729"/>
      <point x="59" y="695" type="curve"/>
      <point x="59" y="661"/>
      <point x="37" y="634"/>
    </contour>
    <contour>
      <point x="1" y="528" type="move" name="_top"/>
    </contour>
  </outline>
</glyph>
<glyph name="visarga-tamil" format="1">
  <advance width="703"/>
  <unicode hex="0B83"/>
  <outline>
    <contour>
      <point x="353" y="278" type="curve"/>
      <point x="437" y="278"/>
      <point x="486" y="336"/>
      <point x="486" y="409" type="curve"/>
      <point x="486" y="482"/>
      <point x="437" y="540"/>
      <point x="353" y="540" type="curve"/>
      <point x="270" y="540"/>
      <point x="221" y="482"/>
      <point x="221" y="409" type="curve"/>
      <point x="221" y="336"/>
      <point x="270" y="278"/>
    </contour>
    <contour>
      <point x="183" y="-12" type="curve"/>
      <point x="266" y="-12"/>
      <point x="315" y="43"/>
      <point x="315" y="119" type="curve"/>
      <point x="315" y="192"/>
      <point x="266" y="250"/>
      <point x="183" y="250" type="curve"/>
      <point x="99" y="250"/>
      <point x="50" y="192"/>
      <point x="50" y="119" type="curve"/>
      <point x="50" y="46"/>
      <point x="99" y="-12"/>
    </contour>
    <contour>
      <point x="183" y="12" type="curve"/>
      <point x="117" y="12"/>
      <point x="78" y="59"/>
      <point x="78" y="119" type="curve"/>
      <point x="78" y="179"/>
      <point x="117" y="226"/>
      <point x="183" y="226" type="curve"/>
      <point x="248" y="226"/>
      <point x="287" y="179"/>
      <point x="287" y="119" type="curve"/>
      <point x="287" y="59"/>
      <point x="248" y="12"/>
    </contour>
    <contour>
      <point x="520" y="-12" type="curve"/>
      <point x="604" y="-12"/>
      <point x="653" y="46"/>
      <point x="653" y="119" type="curve"/>
      <point x="653" y="192"/>
      <point x="604" y="250"/>
      <point x="520" y="250" type="curve"/>
      <point x="437" y="250"/>
      <point x="388" y="195"/>
      <point x="388" y="119" type="curve"/>
      <point x="388" y="43"/>
      <point x="437" y="-12"/>
    </contour>
    <contour>
      <point x="520" y="12" type="curve"/>
      <point x="455" y="12"/>
      <point x="416" y="59"/>
      <point x="416" y="119" type="curve"/>
      <point x="416" y="179"/>
      <point x="455" y="226"/>
      <point x="520" y="226" type="curve"/>
      <point x="585" y="226"/>
      <point x="625" y="179"/>
      <point x="625" y="119" type="curve"/>
      <point x="625" y="59"/>
      <point x="585" y="12"/>
    </contour>
    <contour>
      <point x="353" y="302" type="curve"/>
      <point x="288" y="302"/>
      <point x="249" y="349"/>
      <point x="249" y="409" type="curve"/>
      <point x="249" y="469"/>
      <point x="288" y="516"/>
      <point x="353" y="516" type="curve"/>
      <point x="418" y="516"/>
      <point x="458" y="469"/>
      <point x="458" y="409" type="curve"/>
      <point x="458" y="349"/>
      <point x="418" y="302"/>
    </contour>
  </outline>
</glyph>
<glyph name="a-tamil" format="1">
  <advance width="1006"/>
  <unicode hex="0B85"/>
  <outline>
    <contour>
      <point x="280" y="-61" type="curve"/>
      <point x="487" y="-61"/>
      <point x="735" y="40"/>
      <point x="736" y="286" type="curve"/>
      <point x="737" y="475"/>
      <point x="629" y="540"/>
      <point x="512" y="540" type="curve"/>
      <point x="400" y="540"/>
      <point x="313" y="477"/>
      <point x="313" y="375" type="curve"/>
      <point x="313" y="311"/>
      <point x="348" y="249"/>
      <point x="425" y="249" type="curve"/>
      <point x="489" y="249"/>
      <point x="540" y="292"/>
      <point x="540" y="357" type="curve"/>
      <point x="540" y="419"/>
      <point x="494" y="459"/>
      <point x="434" y="459" type="curve"/>
      <point x="411" y="459"/>
      <point x="367" y="453"/>
      <point x="341" y="412" type="curve"/>
      <point x="359" y="478"/>
      <point x="420" y="513"/>
      <point x="504" y="513" type="curve"/>
      <point x="637" y="513"/>
      <point x="705" y="432"/>
      <point x="704" y="288" type="curve"/>
      <point x="702" y="12"/>
      <point x="406" y="-35"/>
      <point x="281" y="-35" type="curve"/>
      <point x="171" y="-35"/>
      <point x="61" y="1"/>
      <point x="61" y="80" type="curve"/>
      <point x="61" y="129"/>
      <point x="102" y="160"/>
      <point x="208" y="160" type="curve"/>
      <point x="876" y="160" type="line"/>
      <point x="867" y="186" type="line"/>
      <point x="209" y="186" type="line" smooth="yes"/>
      <point x="84" y="186"/>
      <point x="30" y="147"/>
      <point x="30" y="83" type="curve"/>
      <point x="30" y="2"/>
      <point x="116" y="-61"/>
    </contour>
    <contour>
      <point x="425" y="274" type="curve"/>
      <point x="380" y="274"/>
      <point x="345" y="303"/>
      <point x="345" y="353" type="curve"/>
      <point x="345" y="399"/>
      <point x="375" y="433"/>
      <point x="428" y="433" type="curve"/>
      <point x="477" y="433"/>
      <point x="510" y="403"/>
      <point x="510" y="356" type="curve"/>
      <point x="510" y="307"/>
      <point x="473" y="274"/>
    </contour>
    <contour>
      <point x="869" y="-95" type="curve"/>
      <point x="872" y="-95"/>
      <point x="883" y="-94"/>
      <point x="889" y="-83" type="curve"/>
      <point x="883" y="-73"/>
      <point x="884" y="-48"/>
      <point x="884" y="-14" type="curve"/>
      <point x="884" y="511" type="line" smooth="yes"/>
      <point x="884" y="525"/>
      <point x="877" y="533"/>
      <point x="865" y="533" type="curve"/>
      <point x="856" y="533"/>
      <point x="851" y="529"/>
      <point x="847" y="525" type="curve"/>
      <point x="856" y="495"/>
      <point x="853" y="505"/>
      <point x="853" y="335" type="curve"/>
      <point x="853" y="-55" type="line" smooth="yes"/>
      <point x="853" y="-79"/>
      <point x="854" y="-95"/>
    </contour>
  </outline>
</glyph>
<glyph name="aa-tamil" format="1">
  <advance width="1051"/>
  <unicode hex="0B86"/>
  <outline>
    <contour>
      <point x="585" y="-352" type="curve"/>
      <point x="892" y="-352"/>
      <point x="1031" y="-179"/>
      <point x="1031" y="-13" type="curve"/>
      <point x="1031" y="27"/>
      <point x="1023" y="112"/>
      <point x="951" y="112" type="curve"/>
      <point x="905" y="112"/>
      <point x="869" y="77"/>
      <point x="853" y="34" type="curve"/>
      <point x="852" y="511" type="line"/>
      <point x="852" y="525"/>
      <point x="845" y="533"/>
      <point x="833" y="533" type="curve"/>
      <point x="824" y="533"/>
      <point x="819" y="529"/>
      <point x="815" y="525" type="curve"/>
      <point x="826" y="488"/>
      <point x="821" y="506"/>
      <point x="821" y="335" type="curve"/>
      <point x="822" y="-50" type="line" smooth="yes"/>
      <point x="822" y="-74"/>
      <point x="823" y="-90"/>
      <point x="838" y="-90" type="curve"/>
      <point x="841" y="-90"/>
      <point x="852" y="-89"/>
      <point x="858" y="-78" type="curve"/>
      <point x="856" y="-77"/>
      <point x="855" y="-75"/>
      <point x="855" y="-62" type="curve"/>
      <point x="855" y="29"/>
      <point x="900" y="86"/>
      <point x="945" y="86" type="curve"/>
      <point x="995" y="86"/>
      <point x="998" y="17"/>
      <point x="998" y="-9" type="curve"/>
      <point x="998" y="-191"/>
      <point x="850" y="-326"/>
      <point x="589" y="-326" type="curve"/>
      <point x="436" y="-326"/>
      <point x="371" y="-279"/>
      <point x="371" y="-222" type="curve"/>
      <point x="371" y="-172"/>
      <point x="422" y="-124"/>
      <point x="525" y="-124" type="curve"/>
      <point x="610" y="-124"/>
      <point x="631" y="-157"/>
      <point x="640" y="-173" type="curve"/>
      <point x="653" y="-173"/>
      <point x="662" y="-162"/>
      <point x="662" y="-153" type="curve"/>
      <point x="662" y="-137"/>
      <point x="636" y="-100"/>
      <point x="534" y="-100" type="curve"/>
      <point x="402" y="-100"/>
      <point x="340" y="-161"/>
      <point x="341" y="-226" type="curve"/>
      <point x="342" y="-264"/>
      <point x="366" y="-352"/>
    </contour>
    <contour>
      <point x="282" y="-61" type="curve"/>
      <point x="493" y="-61"/>
      <point x="726" y="39"/>
      <point x="726" y="293" type="curve"/>
      <point x="726" y="450"/>
      <point x="637" y="540"/>
      <point x="503" y="540" type="curve"/>
      <point x="390" y="540"/>
      <point x="303" y="477"/>
      <point x="303" y="375" type="curve"/>
      <point x="303" y="311"/>
      <point x="338" y="249"/>
      <point x="415" y="249" type="curve"/>
      <point x="479" y="249"/>
      <point x="530" y="292"/>
      <point x="530" y="357" type="curve"/>
      <point x="530" y="419"/>
      <point x="484" y="459"/>
      <point x="424" y="459" type="curve"/>
      <point x="401" y="459"/>
      <point x="357" y="453"/>
      <point x="331" y="412" type="curve"/>
      <point x="349" y="478"/>
      <point x="410" y="513"/>
      <point x="495" y="513" type="curve"/>
      <point x="627" y="513"/>
      <point x="697" y="428"/>
      <point x="694" y="288" type="curve"/>
      <point x="688" y="-1"/>
      <point x="389" y="-35"/>
      <point x="281" y="-35" type="curve"/>
      <point x="169" y="-35"/>
      <point x="61" y="1"/>
      <point x="61" y="80" type="curve"/>
      <point x="61" y="129"/>
      <point x="102" y="160"/>
      <point x="208" y="160" type="curve"/>
      <point x="849" y="160" type="line"/>
      <point x="840" y="186" type="line"/>
      <point x="209" y="186" type="line" smooth="yes"/>
      <point x="84" y="186"/>
      <point x="30" y="147"/>
      <point x="30" y="83" type="curve"/>
      <point x="30" y="2"/>
      <point x="115" y="-61"/>
    </contour>
    <contour>
      <point x="415" y="274" type="curve"/>
      <point x="370" y="274"/>
      <point x="335" y="303"/>
      <point x="335" y="353" type="curve"/>
      <point x="335" y="399"/>
      <point x="365" y="433"/>
      <point x="418" y="433" type="curve"/>
      <point x="467" y="433"/>
      <point x="500" y="403"/>
      <point x="500" y="356" type="curve"/>
      <point x="500" y="307"/>
      <point x="463" y="274"/>
    </contour>
  </outline>
</glyph>
<glyph name="i-tamil" format="1">
  <advance width="838"/>
  <unicode hex="0B87"/>
  <outline>
    <contour>
      <point x="197" y="-126" type="curve"/>
      <point x="396" y="-126"/>
      <point x="637" y="74"/>
      <point x="637" y="312" type="curve"/>
      <point x="637" y="451"/>
      <point x="555" y="543"/>
      <point x="437" y="543" type="curve"/>
      <point x="342" y="543"/>
      <point x="276" y="483"/>
      <point x="276" y="410" type="curve"/>
      <point x="276" y="348"/>
      <point x="324" y="299"/>
      <point x="392" y="299" type="curve"/>
      <point x="456" y="299"/>
      <point x="501" y="343"/>
      <point x="501" y="406" type="curve"/>
      <point x="501" y="468"/>
      <point x="457" y="512"/>
      <point x="394" y="512" type="curve"/>
      <point x="384" y="512"/>
      <point x="378" y="511"/>
      <point x="370" y="510" type="curve"/>
      <point x="384" y="516"/>
      <point x="402" y="520"/>
      <point x="427" y="520" type="curve"/>
      <point x="556" y="520"/>
      <point x="610" y="417"/>
      <point x="610" y="307" type="curve"/>
      <point x="610" y="70"/>
      <point x="358" y="-99"/>
      <point x="199" y="-99" type="curve"/>
      <point x="139" y="-99"/>
      <point x="80" y="-75"/>
      <point x="80" y="-6" type="curve"/>
      <point x="80" y="117"/>
      <point x="266" y="169"/>
      <point x="389" y="169" type="curve"/>
      <point x="543" y="169"/>
      <point x="712" y="87"/>
      <point x="712" y="-15" type="curve"/>
      <point x="712" y="-70"/>
      <point x="663" y="-99"/>
      <point x="595" y="-99" type="curve"/>
      <point x="418" y="-99"/>
      <point x="159" y="101"/>
      <point x="159" y="370" type="curve"/>
      <point x="159" y="544"/>
      <point x="268" y="662"/>
      <point x="452" y="662" type="curve"/>
      <point x="631" y="662"/>
      <point x="746" y="551"/>
      <point x="746" y="349" type="curve"/>
      <point x="746" y="284"/>
      <point x="734" y="221"/>
      <point x="721" y="174" type="curve"/>
      <point x="736" y="166"/>
      <point x="751" y="168"/>
      <point x="756" y="191" type="curve"/>
      <point x="765" y="236"/>
      <point x="774" y="287"/>
      <point x="774" y="348" type="curve"/>
      <point x="774" y="567"/>
      <point x="657" y="689"/>
      <point x="451" y="689" type="curve"/>
      <point x="171" y="689"/>
      <point x="131" y="465"/>
      <point x="131" y="364" type="curve"/>
      <point x="131" y="116"/>
      <point x="373" y="-126"/>
      <point x="601" y="-126" type="curve"/>
      <point x="711" y="-126"/>
      <point x="742" y="-70"/>
      <point x="742" y="-20" type="curve"/>
      <point x="742" y="98"/>
      <point x="573" y="193"/>
      <point x="390" y="193" type="curve"/>
      <point x="249" y="193"/>
      <point x="50" y="136"/>
      <point x="50" y="-8" type="curve"/>
      <point x="50" y="-87"/>
      <point x="109" y="-126"/>
    </contour>
    <contour>
      <point x="391" y="326" type="curve"/>
      <point x="341" y="326"/>
      <point x="306" y="361"/>
      <point x="306" y="410" type="curve"/>
      <point x="306" y="458"/>
      <point x="340" y="491"/>
      <point x="389" y="491" type="curve"/>
      <point x="438" y="491"/>
      <point x="472" y="458"/>
      <point x="472" y="408" type="curve"/>
      <point x="472" y="358"/>
      <point x="438" y="326"/>
    </contour>
  </outline>
</glyph>
<glyph name="ii-tamil" format="1">
  <advance width="661"/>
  <unicode hex="0B88"/>
  <outline>
    <contour>
      <point x="420" y="-5" type="curve"/>
      <point x="426" y="-5"/>
      <point x="430" y="-3"/>
      <point x="435" y="2" type="curve"/>
      <point x="433" y="10"/>
      <point x="433" y="22"/>
      <point x="433" y="47" type="curve"/>
      <point x="433" y="508" type="line"/>
      <point x="403" y="514" type="line"/>
      <point x="403" y="12" type="line" smooth="yes"/>
      <point x="403" y="4"/>
      <point x="406" y="-5"/>
    </contour>
    <contour>
      <point x="95" y="514" type="line"/>
      <point x="95" y="0" type="line"/>
      <point x="122" y="0" type="line"/>
      <point x="122" y="508" type="line"/>
    </contour>
    <contour>
      <point x="262" y="221" type="curve"/>
      <point x="280" y="221"/>
      <point x="294" y="236"/>
      <point x="294" y="254" type="curve"/>
      <point x="294" y="271"/>
      <point x="280" y="286"/>
      <point x="262" y="286" type="curve"/>
      <point x="245" y="286"/>
      <point x="231" y="271"/>
      <point x="231" y="254" type="curve"/>
      <point x="231" y="236"/>
      <point x="245" y="221"/>
    </contour>
    <contour>
      <point x="549" y="221" type="curve"/>
      <point x="566" y="221"/>
      <point x="580" y="236"/>
      <point x="580" y="254" type="curve"/>
      <point x="580" y="271"/>
      <point x="566" y="286"/>
      <point x="549" y="286" type="curve"/>
      <point x="531" y="286"/>
      <point x="517" y="271"/>
      <point x="517" y="254" type="curve"/>
      <point x="517" y="236"/>
      <point x="531" y="221"/>
    </contour>
    <contour>
      <point x="95" y="502" type="line"/>
      <point x="616" y="502" type="line"/>
      <point x="626" y="502"/>
      <point x="641" y="502"/>
      <point x="641" y="519" type="curve"/>
      <point x="641" y="522"/>
      <point x="641" y="525"/>
      <point x="640" y="528" type="curve"/>
      <point x="95" y="528" type="line"/>
    </contour>
  </outline>
</glyph>
<glyph name="u-tamil" format="1">
  <advance width="870"/>
  <unicode hex="0B89"/>
  <outline>
    <contour>
      <point x="118" y="0" type="curve"/>
      <point x="850" y="4" type="line"/>
      <point x="850" y="30" type="line"/>
      <point x="125" y="26" type="line" smooth="yes"/>
      <point x="78" y="26"/>
      <point x="71" y="49"/>
      <point x="71" y="68" type="curve"/>
      <point x="71" y="117"/>
      <point x="101" y="113"/>
      <point x="204" y="116" type="curve"/>
      <point x="389" y="121"/>
      <point x="465" y="215"/>
      <point x="465" y="338" type="curve"/>
      <point x="465" y="484"/>
      <point x="363" y="540"/>
      <point x="260" y="540" type="curve"/>
      <point x="138" y="540"/>
      <point x="51" y="464"/>
      <point x="51" y="359" type="curve"/>
      <point x="51" y="296"/>
      <point x="87" y="241"/>
      <point x="156" y="241" type="curve"/>
      <point x="232" y="241"/>
      <point x="270" y="284"/>
      <point x="270" y="343" type="curve"/>
      <point x="270" y="398"/>
      <point x="228" y="443"/>
      <point x="166" y="443" type="curve"/>
      <point x="145" y="443"/>
      <point x="105" y="439"/>
      <point x="80" y="404" type="curve"/>
      <point x="96" y="464"/>
      <point x="152" y="513"/>
      <point x="255" y="513" type="curve"/>
      <point x="371" y="513"/>
      <point x="433" y="446"/>
      <point x="433" y="331" type="curve"/>
      <point x="433" y="175"/>
      <point x="305" y="147"/>
      <point x="190" y="143" type="curve"/>
      <point x="93" y="140"/>
      <point x="40" y="137"/>
      <point x="40" y="70" type="curve"/>
      <point x="40" y="29"/>
      <point x="57" y="0"/>
    </contour>
    <contour>
      <point x="156" y="266" type="curve"/>
      <point x="114" y="266"/>
      <point x="84" y="297"/>
      <point x="83" y="340" type="curve"/>
      <point x="82" y="385"/>
      <point x="115" y="417"/>
      <point x="162" y="417" type="curve"/>
      <point x="208" y="417"/>
      <point x="240" y="387"/>
      <point x="240" y="340" type="curve"/>
      <point x="240" y="295"/>
      <point x="205" y="266"/>
    </contour>
  </outline>
</glyph>
<glyph name="uu-tamil" format="1">
  <advance width="1320"/>
  <unicode hex="0B8A"/>
  <outline>
    <contour>
      <point x="123" y="0" type="curve"/>
      <point x="1285" y="4" type="line"/>
      <point x="1285" y="30" type="line"/>
      <point x="130" y="26" type="line" smooth="yes"/>
      <point x="83" y="26"/>
      <point x="76" y="49"/>
      <point x="76" y="68" type="curve"/>
      <point x="76" y="117"/>
      <point x="106" y="113"/>
      <point x="209" y="116" type="curve"/>
      <point x="394" y="121"/>
      <point x="470" y="217"/>
      <point x="470" y="340" type="curve"/>
      <point x="470" y="484"/>
      <point x="368" y="540"/>
      <point x="265" y="540" type="curve"/>
      <point x="143" y="540"/>
      <point x="56" y="464"/>
      <point x="56" y="359" type="curve"/>
      <point x="56" y="296"/>
      <point x="92" y="241"/>
      <point x="161" y="241" type="curve"/>
      <point x="237" y="241"/>
      <point x="275" y="284"/>
      <point x="275" y="343" type="curve"/>
      <point x="275" y="398"/>
      <point x="233" y="443"/>
      <point x="171" y="443" type="curve"/>
      <point x="150" y="443"/>
      <point x="110" y="439"/>
      <point x="85" y="404" type="curve"/>
      <point x="101" y="464"/>
      <point x="157" y="513"/>
      <point x="260" y="513" type="curve"/>
      <point x="376" y="513"/>
      <point x="438" y="446"/>
      <point x="438" y="333" type="curve"/>
      <point x="438" y="180"/>
      <point x="310" y="147"/>
      <point x="195" y="143" type="curve"/>
      <point x="98" y="140"/>
      <point x="45" y="137"/>
      <point x="45" y="70" type="curve"/>
      <point x="45" y="29"/>
      <point x="62" y="0"/>
    </contour>
    <contour>
      <point x="161" y="266" type="curve"/>
      <point x="119" y="266"/>
      <point x="89" y="297"/>
      <point x="88" y="340" type="curve"/>
      <point x="87" y="385"/>
      <point x="120" y="417"/>
      <point x="167" y="417" type="curve"/>
      <point x="213" y="417"/>
      <point x="245" y="387"/>
      <point x="245" y="340" type="curve"/>
      <point x="245" y="295"/>
      <point x="210" y="266"/>
    </contour>
    <contour>
      <point x="734" y="130" type="curve"/>
      <point x="695" y="130"/>
      <point x="666" y="165"/>
      <point x="666" y="224" type="curve"/>
      <point x="666" y="279"/>
      <point x="690" y="322"/>
      <point x="736" y="322" type="curve"/>
      <point x="784" y="322"/>
      <point x="804" y="277"/>
      <point x="804" y="228" type="curve"/>
      <point x="804" y="168"/>
      <point x="776" y="130"/>
    </contour>
    <contour>
      <point x="710" y="100" type="curve"/>
      <point x="783" y="100"/>
      <point x="836" y="137"/>
      <point x="836" y="226" type="curve"/>
      <point x="836" y="306"/>
      <point x="795" y="349"/>
      <point x="738" y="349" type="curve"/>
      <point x="678" y="349"/>
      <point x="638" y="299"/>
      <point x="638" y="228" type="curve"/>
      <point x="638" y="195"/>
      <point x="646" y="143"/>
      <point x="681" y="122" type="curve"/>
      <point x="631" y="132"/>
      <point x="585" y="170"/>
      <point x="585" y="299" type="curve"/>
      <point x="585" y="472"/>
      <point x="671" y="514"/>
      <point x="754" y="514" type="curve"/>
      <point x="881" y="514"/>
      <point x="927" y="411"/>
      <point x="927" y="365" type="curve"/>
      <point x="927" y="123" type="line" smooth="yes"/>
      <point x="927" y="116"/>
      <point x="927" y="109"/>
      <point x="943" y="109" type="curve"/>
      <point x="949" y="109"/>
      <point x="953" y="112"/>
      <point x="957" y="115" type="curve"/>
      <point x="956" y="121"/>
      <point x="956" y="132"/>
      <point x="956" y="140" type="curve"/>
      <point x="956" y="409" type="line" smooth="yes"/>
      <point x="956" y="493"/>
      <point x="973" y="510"/>
      <point x="1033" y="510" type="curve"/>
      <point x="1217" y="510" type="line" smooth="yes"/>
      <point x="1244" y="510"/>
      <point x="1258" y="514"/>
      <point x="1254" y="533" type="curve"/>
      <point x="1033" y="533" type="line" smooth="yes"/>
      <point x="984" y="533"/>
      <point x="929" y="523"/>
      <point x="929" y="437" type="curve"/>
      <point x="917" y="480"/>
      <point x="858" y="540"/>
      <point x="753" y="540" type="curve"/>
      <point x="636" y="540"/>
      <point x="555" y="472"/>
      <point x="555" y="302" type="curve"/>
      <point x="555" y="147"/>
      <point x="624" y="100"/>
    </contour>
    <contour>
      <point x="1170" y="109" type="curve"/>
      <point x="1176" y="109"/>
      <point x="1180" y="112"/>
      <point x="1185" y="115" type="curve"/>
      <point x="1184" y="121"/>
      <point x="1184" y="132"/>
      <point x="1184" y="150" type="curve"/>
      <point x="1184" y="514" type="line"/>
      <point x="1154" y="519" type="line"/>
      <point x="1154" y="123" type="line" smooth="yes"/>
      <point x="1154" y="116"/>
      <point x="1157" y="109"/>
    </contour>
  </outline>
</glyph>
<glyph name="e-tamil" format="1">
  <advance width="724"/>
  <unicode hex="0B8E"/>
  <outline>
    <contour>
      <point x="265" y="-12" type="curve"/>
      <point x="346" y="-12"/>
      <point x="415" y="36"/>
      <point x="415" y="150" type="curve"/>
      <point x="415" y="249"/>
      <point x="365" y="304"/>
      <point x="290" y="304" type="curve"/>
      <point x="216" y="304"/>
      <point x="165" y="239"/>
      <point x="165" y="151" type="curve"/>
      <point x="165" y="108"/>
      <point x="176" y="44"/>
      <point x="220" y="17" type="curve"/>
      <point x="151" y="27"/>
      <point x="88" y="86"/>
      <point x="88" y="224" type="curve"/>
      <point x="88" y="445"/>
      <point x="218" y="502"/>
      <point x="393" y="502" type="curve"/>
      <point x="699" y="502" type="line" smooth="yes"/>
      <point x="709" y="502"/>
      <point x="724" y="502"/>
      <point x="724" y="519" type="curve"/>
      <point x="724" y="522"/>
      <point x="724" y="525"/>
      <point x="723" y="528" type="curve"/>
      <point x="390" y="528" type="line" smooth="yes"/>
      <point x="181" y="528"/>
      <point x="60" y="444"/>
      <point x="60" y="220" type="curve"/>
      <point x="60" y="55"/>
      <point x="148" y="-12"/>
    </contour>
    <contour>
      <point x="283" y="21" type="curve"/>
      <point x="233" y="21"/>
      <point x="191" y="66"/>
      <point x="191" y="148" type="curve"/>
      <point x="191" y="218"/>
      <point x="224" y="275"/>
      <point x="290" y="275" type="curve"/>
      <point x="358" y="275"/>
      <point x="385" y="215"/>
      <point x="385" y="151" type="curve"/>
      <point x="385" y="72"/>
      <point x="347" y="21"/>
    </contour>
    <contour>
      <point x="556" y="-5" type="curve"/>
      <point x="562" y="-5"/>
      <point x="566" y="-3"/>
      <point x="571" y="2" type="curve"/>
      <point x="569" y="10"/>
      <point x="569" y="22"/>
      <point x="569" y="47" type="curve"/>
      <point x="569" y="508" type="line"/>
      <point x="539" y="514" type="line"/>
      <point x="539" y="12" type="line" smooth="yes"/>
      <point x="539" y="4"/>
      <point x="542" y="-5"/>
    </contour>
  </outline>
</glyph>
<glyph name="ee-tamil" format="1">
  <advance width="721"/>
  <unicode hex="0B8F"/>
  <outline>
    <contour>
      <point x="283" y="20" type="curve"/>
      <point x="233" y="20"/>
      <point x="191" y="65"/>
      <point x="191" y="147" type="curve"/>
      <point x="191" y="217"/>
      <point x="224" y="274"/>
      <point x="290" y="274" type="curve"/>
      <point x="358" y="274"/>
      <point x="385" y="214"/>
      <point x="385" y="150" type="curve"/>
      <point x="385" y="71"/>
      <point x="347" y="20"/>
    </contour>
    <contour>
      <point x="271" y="-200" type="curve"/>
      <point x="341" y="-197"/>
      <point x="566" y="-97"/>
      <point x="566" y="92" type="curve"/>
      <point x="566" y="519" type="line"/>
      <point x="536" y="514" type="line"/>
      <point x="536" y="94" type="line" smooth="yes"/>
      <point x="536" y="-67"/>
      <point x="348" y="-158"/>
      <point x="270" y="-177" type="curve"/>
      <point x="261" y="-179"/>
      <point x="253" y="-180"/>
      <point x="245" y="-180" type="curve"/>
      <point x="247" y="-192"/>
      <point x="259" y="-201"/>
    </contour>
    <contour>
      <point x="393" y="502" type="curve"/>
      <point x="696" y="502" type="line"/>
      <point x="706" y="502"/>
      <point x="721" y="502"/>
      <point x="721" y="519" type="curve"/>
      <point x="721" y="522"/>
      <point x="721" y="525"/>
      <point x="720" y="528" type="curve"/>
      <point x="390" y="528" type="line" smooth="yes"/>
      <point x="181" y="528"/>
      <point x="60" y="444"/>
      <point x="60" y="220" type="curve"/>
      <point x="60" y="54"/>
      <point x="148" y="-13"/>
      <point x="265" y="-13" type="curve"/>
      <point x="346" y="-13"/>
      <point x="415" y="35"/>
      <point x="415" y="149" type="curve"/>
      <point x="415" y="248"/>
      <point x="365" y="303"/>
      <point x="290" y="303" type="curve"/>
      <point x="216" y="303"/>
      <point x="165" y="238"/>
      <point x="165" y="150" type="curve"/>
      <point x="165" y="107"/>
      <point x="176" y="43"/>
      <point x="220" y="16" type="curve"/>
      <point x="151" y="26"/>
      <point x="88" y="85"/>
      <point x="88" y="224" type="curve"/>
      <point x="88" y="445"/>
      <point x="218" y="502"/>
    </contour>
  </outline>
</glyph>
<glyph name="ai-tamil" format="1">
  <advance width="776"/>
  <unicode hex="0B90"/>
  <outline>
    <contour>
      <point x="197" y="-127" type="curve"/>
      <point x="281" y="-127"/>
      <point x="362" y="-68"/>
      <point x="391" y="34" type="curve"/>
      <point x="400" y="-23"/>
      <point x="446" y="-127"/>
      <point x="586" y="-127" type="curve"/>
      <point x="657" y="-127"/>
      <point x="734" y="-88"/>
      <point x="734" y="21" type="curve"/>
      <point x="734" y="123"/>
      <point x="658" y="171"/>
      <point x="621" y="172" type="curve"/>
      <point x="610" y="172"/>
      <point x="601" y="171"/>
      <point x="597" y="155" type="curve"/>
      <point x="658" y="141"/>
      <point x="706" y="93"/>
      <point x="706" y="19" type="curve"/>
      <point x="706" y="-59"/>
      <point x="657" y="-100"/>
      <point x="582" y="-100" type="curve"/>
      <point x="437" y="-100"/>
      <point x="418" y="28"/>
      <point x="411" y="100" type="curve"/>
      <point x="381" y="100" type="line"/>
      <point x="374" y="-1"/>
      <point x="304" y="-100"/>
      <point x="200" y="-100" type="curve"/>
      <point x="145" y="-100"/>
      <point x="74" y="-76"/>
      <point x="74" y="19" type="curve"/>
      <point x="74" y="119"/>
      <point x="149" y="184"/>
      <point x="398" y="191" type="curve"/>
      <point x="594" y="196"/>
      <point x="736" y="249"/>
      <point x="736" y="394" type="curve"/>
      <point x="736" y="496"/>
      <point x="674" y="543"/>
      <point x="579" y="543" type="curve"/>
      <point x="468" y="542"/>
      <point x="424" y="469"/>
      <point x="406" y="393" type="curve"/>
      <point x="385" y="501"/>
      <point x="312" y="543"/>
      <point x="222" y="543" type="curve"/>
      <point x="120" y="543"/>
      <point x="40" y="486"/>
      <point x="40" y="386" type="curve"/>
      <point x="40" y="329"/>
      <point x="69" y="272"/>
      <point x="145" y="272" type="curve"/>
      <point x="205" y="272"/>
      <point x="251" y="311"/>
      <point x="251" y="372" type="curve"/>
      <point x="251" y="428"/>
      <point x="208" y="466"/>
      <point x="153" y="466" type="curve"/>
      <point x="132" y="466"/>
      <point x="94" y="461"/>
      <point x="69" y="425" type="curve"/>
      <point x="84" y="485"/>
      <point x="138" y="516"/>
      <point x="216" y="516" type="curve"/>
      <point x="338" y="516"/>
      <point x="385" y="448"/>
      <point x="387" y="302" type="curve"/>
      <point x="417" y="302" type="line"/>
      <point x="425" y="454"/>
      <point x="481" y="516"/>
      <point x="576" y="516" type="curve"/>
      <point x="637" y="516"/>
      <point x="705" y="490"/>
      <point x="705" y="392" type="curve"/>
      <point x="705" y="277"/>
      <point x="591" y="222"/>
      <point x="395" y="218" type="curve"/>
      <point x="133" y="212"/>
      <point x="43" y="131"/>
      <point x="43" y="21" type="curve"/>
      <point x="43" y="-67"/>
      <point x="98" y="-127"/>
    </contour>
    <contour>
      <point x="146" y="299" type="curve"/>
      <point x="106" y="299"/>
      <point x="75" y="324"/>
      <point x="75" y="369" type="curve"/>
      <point x="75" y="409"/>
      <point x="101" y="439"/>
      <point x="147" y="439" type="curve"/>
      <point x="190" y="439"/>
      <point x="220" y="414"/>
      <point x="220" y="371" type="curve"/>
      <point x="220" y="328"/>
      <point x="188" y="299"/>
    </contour>
  </outline>
</glyph>
<glyph name="o-tamil" format="1">
  <advance width="723"/>
  <unicode hex="0B92"/>
  <outline>
    <contour>
      <point x="381" y="-126" type="curve"/>
      <point x="486" y="-126"/>
      <point x="574" y="-53"/>
      <point x="613" y="49" type="curve"/>
      <point x="606" y="63" type="line"/>
      <point x="584" y="59"/>
      <point x="562" y="58"/>
      <point x="546" y="58" type="curve"/>
      <point x="434" y="58"/>
      <point x="377" y="109"/>
      <point x="377" y="183" type="curve"/>
      <point x="377" y="268"/>
      <point x="451" y="318"/>
      <point x="484" y="323" type="curve"/>
      <point x="471" y="310"/>
      <point x="463" y="283"/>
      <point x="463" y="257" type="curve"/>
      <point x="463" y="197"/>
      <point x="505" y="155"/>
      <point x="566" y="155" type="curve"/>
      <point x="638" y="155"/>
      <point x="683" y="212"/>
      <point x="683" y="300" type="curve"/>
      <point x="683" y="455"/>
      <point x="538" y="540"/>
      <point x="357" y="540" type="curve"/>
      <point x="160" y="540"/>
      <point x="40" y="435"/>
      <point x="40" y="290" type="curve"/>
      <point x="40" y="233"/>
      <point x="69" y="172"/>
      <point x="145" y="172" type="curve"/>
      <point x="205" y="172"/>
      <point x="251" y="211"/>
      <point x="251" y="272" type="curve"/>
      <point x="251" y="328"/>
      <point x="208" y="366"/>
      <point x="153" y="366" type="curve"/>
      <point x="132" y="366"/>
      <point x="87" y="362"/>
      <point x="62" y="315" type="curve"/>
      <point x="65" y="286" type="line"/>
      <point x="65" y="416"/>
      <point x="173" y="513"/>
      <point x="354" y="513" type="curve"/>
      <point x="521" y="513"/>
      <point x="653" y="437"/>
      <point x="653" y="303" type="curve"/>
      <point x="653" y="234"/>
      <point x="619" y="182"/>
      <point x="565" y="182" type="curve"/>
      <point x="522" y="182"/>
      <point x="492" y="214"/>
      <point x="492" y="262" type="curve"/>
      <point x="492" y="292"/>
      <point x="504" y="326"/>
      <point x="546" y="340" type="curve"/>
      <point x="535" y="359" type="line"/>
      <point x="473" y="359"/>
      <point x="348" y="309"/>
      <point x="348" y="184" type="curve"/>
      <point x="348" y="94"/>
      <point x="412" y="35"/>
      <point x="532" y="35" type="curve"/>
      <point x="546" y="35"/>
      <point x="565" y="35"/>
      <point x="580" y="37" type="curve"/>
      <point x="554" y="-25"/>
      <point x="481" y="-100"/>
      <point x="385" y="-100" type="curve"/>
      <point x="321" y="-100"/>
      <point x="274" y="-67"/>
      <point x="274" y="-4" type="curve"/>
      <point x="274" y="6"/>
      <point x="274" y="14"/>
      <point x="275" y="21" type="curve"/>
      <point x="272" y="23"/>
      <point x="269" y="24"/>
      <point x="265" y="24" type="curve"/>
      <point x="257" y="24"/>
      <point x="244" y="19"/>
      <point x="244" y="-12" type="curve"/>
      <point x="244" y="-71"/>
      <point x="290" y="-126"/>
    </contour>
    <contour>
      <point x="146" y="199" type="curve"/>
      <point x="106" y="199"/>
      <point x="75" y="224"/>
      <point x="75" y="269" type="curve"/>
      <point x="75" y="309"/>
      <point x="101" y="339"/>
      <point x="147" y="339" type="curve"/>
      <point x="190" y="339"/>
      <point x="220" y="314"/>
      <point x="220" y="271" type="curve"/>
      <point x="220" y="228"/>
      <point x="188" y="199"/>
    </contour>
  </outline>
</glyph>
<glyph name="oo-tamil" format="1">
  <advance width="722"/>
  <unicode hex="0B93"/>
  <outline>
    <contour>
      <point x="330" y="-142" type="curve"/>
      <point x="484" y="-142"/>
      <point x="563" y="-43"/>
      <point x="613" y="49" type="curve"/>
      <point x="606" y="63" type="line"/>
      <point x="585" y="60"/>
      <point x="565" y="58"/>
      <point x="544" y="58" type="curve"/>
      <point x="449" y="58"/>
      <point x="377" y="98"/>
      <point x="377" y="185" type="curve"/>
      <point x="377" y="271"/>
      <point x="449" y="316"/>
      <point x="484" y="323" type="curve"/>
      <point x="471" y="310"/>
      <point x="463" y="283"/>
      <point x="463" y="257" type="curve"/>
      <point x="463" y="197"/>
      <point x="504" y="155"/>
      <point x="566" y="155" type="curve"/>
      <point x="643" y="155"/>
      <point x="682" y="219"/>
      <point x="682" y="300" type="curve"/>
      <point x="682" y="453"/>
      <point x="544" y="543"/>
      <point x="357" y="543" type="curve"/>
      <point x="160" y="543"/>
      <point x="40" y="438"/>
      <point x="40" y="293" type="curve"/>
      <point x="40" y="236"/>
      <point x="69" y="175"/>
      <point x="145" y="175" type="curve"/>
      <point x="205" y="175"/>
      <point x="251" y="214"/>
      <point x="251" y="275" type="curve"/>
      <point x="251" y="331"/>
      <point x="208" y="369"/>
      <point x="153" y="369" type="curve"/>
      <point x="132" y="369"/>
      <point x="87" y="365"/>
      <point x="62" y="318" type="curve"/>
      <point x="65" y="289" type="line"/>
      <point x="65" y="419"/>
      <point x="174" y="516"/>
      <point x="355" y="516" type="curve"/>
      <point x="529" y="516"/>
      <point x="652" y="436"/>
      <point x="652" y="303" type="curve"/>
      <point x="652" y="238"/>
      <point x="623" y="182"/>
      <point x="565" y="182" type="curve"/>
      <point x="521" y="182"/>
      <point x="492" y="214"/>
      <point x="492" y="261" type="curve"/>
      <point x="492" y="292"/>
      <point x="504" y="326"/>
      <point x="546" y="340" type="curve"/>
      <point x="535" y="359" type="line"/>
      <point x="481" y="358"/>
      <point x="348" y="318"/>
      <point x="348" y="186" type="curve"/>
      <point x="348" y="87"/>
      <point x="422" y="34"/>
      <point x="535" y="34" type="curve"/>
      <point x="549" y="34"/>
      <point x="563" y="34"/>
      <point x="578" y="36" type="curve"/>
      <point x="544" y="-21"/>
      <point x="476" y="-116"/>
      <point x="330" y="-116" type="curve"/>
      <point x="232" y="-116"/>
      <point x="194" y="-67"/>
      <point x="194" y="-19" type="curve"/>
      <point x="194" y="35"/>
      <point x="222" y="71"/>
      <point x="273" y="71" type="curve"/>
      <point x="226" y="71" type="line"/>
      <point x="213" y="51"/>
      <point x="208" y="33"/>
      <point x="208" y="16" type="curve"/>
      <point x="208" y="-27"/>
      <point x="239" y="-55"/>
      <point x="282" y="-55" type="curve"/>
      <point x="331" y="-55"/>
      <point x="360" y="-19"/>
      <point x="360" y="22" type="curve"/>
      <point x="360" y="68"/>
      <point x="322" y="95"/>
      <point x="275" y="95" type="curve"/>
      <point x="211" y="95"/>
      <point x="164" y="48"/>
      <point x="164" y="-21" type="curve"/>
      <point x="164" y="-89"/>
      <point x="217" y="-142"/>
    </contour>
    <contour>
      <point x="282" y="-32" type="curve"/>
      <point x="255" y="-32"/>
      <point x="233" y="-15"/>
      <point x="233" y="20" type="curve"/>
      <point x="233" y="46"/>
      <point x="245" y="70"/>
      <point x="280" y="70" type="curve"/>
      <point x="315" y="70"/>
      <point x="332" y="46"/>
      <point x="332" y="18" type="curve"/>
      <point x="332" y="-11"/>
      <point x="313" y="-32"/>
    </contour>
    <contour>
      <point x="146" y="202" type="curve"/>
      <point x="106" y="202"/>
      <point x="75" y="227"/>
      <point x="75" y="272" type="curve"/>
      <point x="75" y="312"/>
      <point x="101" y="342"/>
      <point x="147" y="342" type="curve"/>
      <point x="190" y="342"/>
      <point x="220" y="317"/>
      <point x="220" y="274" type="curve"/>
      <point x="220" y="231"/>
      <point x="188" y="202"/>
    </contour>
  </outline>
</glyph>
<glyph name="ka-tamil" format="1">
  <advance width="749"/>
  <unicode hex="0B95"/>
  <outline>
    <contour>
      <point x="238" y="-12" type="curve"/>
      <point x="352" y="-12"/>
      <point x="444" y="50"/>
      <point x="444" y="225" type="curve"/>
      <point x="444" y="512" type="line"/>
      <point x="414" y="511" type="line"/>
      <point x="414" y="218" type="line" smooth="yes"/>
      <point x="414" y="55"/>
      <point x="324" y="16"/>
      <point x="240" y="16" type="curve"/>
      <point x="149" y="16"/>
      <point x="78" y="61"/>
      <point x="78" y="150" type="curve"/>
      <point x="78" y="225"/>
      <point x="122" y="283"/>
      <point x="240" y="283" type="curve"/>
      <point x="494" y="283" type="line" smooth="yes"/>
      <point x="628" y="283"/>
      <point x="669" y="238"/>
      <point x="669" y="150" type="curve"/>
      <point x="669" y="63"/>
      <point x="623" y="15"/>
      <point x="535" y="15" type="curve"/>
      <point x="517" y="15"/>
      <point x="509" y="17"/>
      <point x="502" y="18" type="curve"/>
      <point x="498" y="15"/>
      <point x="495" y="11"/>
      <point x="495" y="5" type="curve"/>
      <point x="495" y="-10"/>
      <point x="516" y="-12"/>
      <point x="535" y="-12" type="curve"/>
      <point x="655" y="-12"/>
      <point x="699" y="65"/>
      <point x="699" y="153" type="curve"/>
      <point x="699" y="258"/>
      <point x="643" y="309"/>
      <point x="500" y="309" type="curve"/>
      <point x="244" y="309" type="line" smooth="yes"/>
      <point x="79" y="309"/>
      <point x="50" y="214"/>
      <point x="50" y="149" type="curve"/>
      <point x="50" y="57"/>
      <point x="117" y="-12"/>
    </contour>
    <contour>
      <point x="221" y="502" type="curve"/>
      <point x="600" y="502" type="line"/>
      <point x="610" y="502"/>
      <point x="625" y="502"/>
      <point x="625" y="519" type="curve"/>
      <point x="625" y="522"/>
      <point x="625" y="525"/>
      <point x="624" y="528" type="curve"/>
      <point x="212" y="528" type="line" smooth="yes"/>
      <point x="188" y="528"/>
      <point x="176" y="517"/>
      <point x="176" y="487" type="curve"/>
      <point x="176" y="295" type="line"/>
      <point x="204" y="295" type="line"/>
      <point x="204" y="484" type="line" smooth="yes"/>
      <point x="204" y="498"/>
      <point x="212" y="502"/>
    </contour>
    <contour>
      <point x="460" y="528" type="move" name="imatra"/>
    </contour>
    <contour>
      <point x="428" y="528" type="move" name="top"/>
    </contour>
  </outline>
</glyph>
<glyph name="nga-tamil" format="1">
  <advance width="907"/>
  <unicode hex="0B99"/>
  <outline>
    <contour>
      <point x="95" y="514" type="line"/>
      <point x="95" y="0" type="line"/>
      <point x="122" y="0" type="line"/>
      <point x="122" y="508" type="line"/>
    </contour>
    <contour>
      <point x="366" y="164" type="curve"/>
      <point x="372" y="164"/>
      <point x="376" y="166"/>
      <point x="380" y="168" type="curve"/>
      <point x="380" y="505" type="line"/>
      <point x="350" y="511" type="line"/>
      <point x="350" y="177" type="line" smooth="yes"/>
      <point x="350" y="169"/>
      <point x="352" y="164"/>
    </contour>
    <contour>
      <point x="554" y="528" type="curve"/>
      <point x="95" y="528" type="line"/>
      <point x="95" y="502" type="line"/>
      <point x="530" y="502" type="line" smooth="yes"/>
      <point x="540" y="502"/>
      <point x="555" y="502"/>
      <point x="555" y="519" type="curve"/>
      <point x="555" y="522"/>
      <point x="555" y="525"/>
    </contour>
    <contour>
      <point x="642" y="262" type="curve"/>
      <point x="642" y="323"/>
      <point x="618" y="406"/>
      <point x="506" y="406" type="curve"/>
      <point x="398" y="406"/>
      <point x="365" y="318"/>
      <point x="365" y="258" type="curve"/>
      <point x="380" y="219" type="line"/>
      <point x="378" y="321"/>
      <point x="423" y="378"/>
      <point x="503" y="378" type="curve"/>
      <point x="587" y="378"/>
      <point x="611" y="317"/>
      <point x="611" y="262" type="curve"/>
      <point x="611" y="106"/>
      <point x="415" y="45"/>
      <point x="351" y="22" type="curve"/>
      <point x="351" y="0" type="line"/>
      <point x="805" y="0" type="line" smooth="yes"/>
      <point x="805" y="513" type="line"/>
      <point x="805" y="525"/>
      <point x="797" y="535"/>
      <point x="785" y="535" type="curve"/>
      <point x="777" y="535"/>
      <point x="772" y="531"/>
      <point x="768" y="527" type="curve"/>
      <point x="777" y="513"/>
      <point x="775" y="481"/>
      <point x="775" y="474" type="curve"/>
      <point x="775" y="26" type="line" smooth="yes"/>
      <point x="428" y="26" type="line"/>
      <point x="505" y="56"/>
      <point x="642" y="116"/>
    </contour>
    <contour>
      <point x="837" y="528" type="move" name="imatra"/>
    </contour>
    <contour>
      <point x="477" y="528" type="move" name="top"/>
    </contour>
  </outline>
</glyph>
<glyph name="ca-tamil" format="1">
  <advance width="654"/>
  <unicode hex="0B9A"/>
  <outline>
    <contour>
      <point x="235" y="-13" type="curve"/>
      <point x="341" y="-13"/>
      <point x="430" y="49"/>
      <point x="430" y="225" type="curve"/>
      <point x="430" y="512" type="line"/>
      <point x="400" y="511" type="line"/>
      <point x="400" y="218" type="line" smooth="yes"/>
      <point x="400" y="53"/>
      <point x="313" y="15"/>
      <point x="235" y="15" type="curve"/>
      <point x="153" y="15"/>
      <point x="78" y="62"/>
      <point x="78" y="148" type="curve"/>
      <point x="78" y="223"/>
      <point x="116" y="282"/>
      <point x="229" y="283" type="curve"/>
      <point x="585" y="283" type="line" smooth="yes"/>
      <point x="600" y="283"/>
      <point x="602" y="299"/>
      <point x="599" y="308" type="curve"/>
      <point x="230" y="308" type="line" smooth="yes"/>
      <point x="77" y="308"/>
      <point x="50" y="212"/>
      <point x="50" y="148" type="curve"/>
      <point x="50" y="56"/>
      <point x="126" y="-13"/>
    </contour>
    <contour>
      <point x="174" y="487" type="curve"/>
      <point x="174" y="294" type="line"/>
      <point x="202" y="294" type="line"/>
      <point x="202" y="484" type="line" smooth="yes"/>
      <point x="202" y="498"/>
      <point x="210" y="502"/>
      <point x="219" y="502" type="curve"/>
      <point x="553" y="502" type="line" smooth="yes"/>
      <point x="593" y="502"/>
      <point x="614" y="501"/>
      <point x="614" y="518" type="curve"/>
      <point x="614" y="521"/>
      <point x="614" y="524"/>
      <point x="613" y="528" type="curve"/>
      <point x="210" y="528" type="line" smooth="yes"/>
      <point x="186" y="528"/>
      <point x="174" y="517"/>
    </contour>
    <contour>
      <point x="450" y="528" type="move" name="imatra"/>
    </contour>
    <contour>
      <point x="415" y="528" type="move" name="top"/>
    </contour>
  </outline>
</glyph>
<glyph name="ja-tamil" format="1">
  <advance width="780"/>
  <unicode hex="0B9C"/>
  <outline>
    <contour>
      <point x="532" y="102" type="curve"/>
      <point x="520" y="116" type="line"/>
      <point x="494" y="99"/>
      <point x="473" y="54"/>
      <point x="473" y="3" type="curve"/>
      <point x="473" y="-82"/>
      <point x="531" y="-122"/>
      <point x="602" y="-122" type="curve"/>
      <point x="663" y="-122"/>
      <point x="740" y="-93"/>
      <point x="740" y="14" type="curve"/>
      <point x="740" y="91"/>
      <point x="700" y="147"/>
      <point x="604" y="147" type="curve"/>
      <point x="406" y="147"/>
      <point x="351" y="-94"/>
      <point x="194" y="-94" type="curve"/>
      <point x="148" y="-94"/>
      <point x="79" y="-73"/>
      <point x="79" y="20" type="curve"/>
      <point x="79" y="139"/>
      <point x="191" y="160"/>
      <point x="378" y="192" type="curve"/>
      <point x="607" y="231"/>
      <point x="736" y="250"/>
      <point x="736" y="396" type="curve"/>
      <point x="736" y="496"/>
      <point x="675" y="540"/>
      <point x="583" y="540" type="curve"/>
      <point x="470" y="540"/>
      <point x="425" y="472"/>
      <point x="406" y="390" type="curve"/>
      <point x="392" y="497"/>
      <point x="316" y="540"/>
      <point x="225" y="540" type="curve"/>
      <point x="120" y="540"/>
      <point x="40" y="483"/>
      <point x="40" y="384" type="curve"/>
      <point x="40" y="326"/>
      <point x="68" y="269"/>
      <point x="142" y="269" type="curve"/>
      <point x="205" y="269"/>
      <point x="251" y="309"/>
      <point x="251" y="368" type="curve"/>
      <point x="251" y="425"/>
      <point x="208" y="463"/>
      <point x="153" y="463" type="curve"/>
      <point x="132" y="463"/>
      <point x="94" y="458"/>
      <point x="75" y="425" type="curve"/>
      <point x="90" y="476"/>
      <point x="130" y="513"/>
      <point x="216" y="513" type="curve"/>
      <point x="344" y="513"/>
      <point x="383" y="433"/>
      <point x="388" y="299" type="curve"/>
      <point x="418" y="299" type="line"/>
      <point x="428" y="453"/>
      <point x="486" y="513"/>
      <point x="579" y="513" type="curve"/>
      <point x="638" y="513"/>
      <point x="704" y="489"/>
      <point x="704" y="395" type="curve"/>
      <point x="704" y="271"/>
      <point x="590" y="255"/>
      <point x="374" y="218" type="curve"/>
      <point x="154" y="180"/>
      <point x="47" y="154"/>
      <point x="47" y="22" type="curve"/>
      <point x="47" y="-82"/>
      <point x="115" y="-122"/>
      <point x="191" y="-122" type="curve"/>
      <point x="364" y="-122"/>
      <point x="433" y="89"/>
    </contour>
    <contour>
      <point x="145" y="296" type="curve"/>
      <point x="105" y="296"/>
      <point x="75" y="321"/>
      <point x="75" y="365" type="curve"/>
      <point x="75" y="406"/>
      <point x="101" y="435"/>
      <point x="147" y="435" type="curve"/>
      <point x="190" y="435"/>
      <point x="219" y="410"/>
      <point x="219" y="368" type="curve"/>
      <point x="219" y="325"/>
      <point x="187" y="296"/>
    </contour>
    <contour>
      <point x="606" y="120" type="curve"/>
      <point x="666" y="120"/>
      <point x="707" y="86"/>
      <point x="707" y="15" type="curve"/>
      <point x="707" y="-64"/>
      <point x="656" y="-95"/>
      <point x="601" y="-95" type="curve"/>
      <point x="546" y="-95"/>
      <point x="507" y="-64"/>
      <point x="507" y="10" type="curve"/>
      <point x="507" y="74"/>
      <point x="537" y="120"/>
    </contour>
    <contour>
      <point x="690" y="528" type="move" name="imatra"/>
    </contour>
    <contour>
      <point x="409" y="528" type="move" name="top"/>
    </contour>
  </outline>
</glyph>
<glyph name="nya-tamil" format="1">
  <advance width="1047"/>
  <unicode hex="0B9E"/>
  <outline>
    <contour>
      <point x="453" y="21" type="curve"/>
      <point x="398" y="21"/>
      <point x="357" y="66"/>
      <point x="357" y="147" type="curve"/>
      <point x="357" y="219"/>
      <point x="390" y="275"/>
      <point x="456" y="275" type="curve"/>
      <point x="524" y="275"/>
      <point x="551" y="215"/>
      <point x="551" y="151" type="curve"/>
      <point x="551" y="72"/>
      <point x="511" y="21"/>
    </contour>
    <contour>
      <point x="708" y="-5" type="curve"/>
      <point x="714" y="-5"/>
      <point x="718" y="-3"/>
      <point x="723" y="2" type="curve"/>
      <point x="721" y="10"/>
      <point x="721" y="22"/>
      <point x="721" y="47" type="curve"/>
      <point x="721" y="513" type="line"/>
      <point x="691" y="513" type="line"/>
      <point x="691" y="12" type="line" smooth="yes"/>
      <point x="691" y="4"/>
      <point x="694" y="-5"/>
    </contour>
    <contour>
      <point x="537" y="-168" type="curve"/>
      <point x="823" y="-168"/>
      <point x="997" y="-47"/>
      <point x="997" y="187" type="curve"/>
      <point x="997" y="274"/>
      <point x="973" y="378"/>
      <point x="856" y="378" type="curve"/>
      <point x="735" y="378"/>
      <point x="706" y="267"/>
      <point x="706" y="207" type="curve"/>
      <point x="721" y="172" type="line"/>
      <point x="720" y="278"/>
      <point x="775" y="352"/>
      <point x="857" y="352" type="curve"/>
      <point x="943" y="352"/>
      <point x="967" y="269"/>
      <point x="967" y="184" type="curve"/>
      <point x="967" y="-45"/>
      <point x="793" y="-140"/>
      <point x="537" y="-140" type="curve"/>
      <point x="181" y="-140"/>
      <point x="90" y="45"/>
      <point x="90" y="214" type="curve"/>
      <point x="90" y="347"/>
      <point x="142" y="457"/>
      <point x="201" y="500" type="curve"/>
      <point x="196" y="506"/>
      <point x="189" y="511"/>
      <point x="176" y="505" type="curve"/>
      <point x="124" y="482"/>
      <point x="60" y="351"/>
      <point x="60" y="208" type="curve"/>
      <point x="60" y="58"/>
      <point x="137" y="-168"/>
    </contour>
    <contour>
      <point x="559" y="502" type="curve"/>
      <point x="853" y="502" type="line"/>
      <point x="863" y="502"/>
      <point x="878" y="502"/>
      <point x="878" y="519" type="curve"/>
      <point x="878" y="522"/>
      <point x="878" y="525"/>
      <point x="877" y="528" type="curve"/>
      <point x="556" y="528" type="line" smooth="yes"/>
      <point x="358" y="528"/>
      <point x="236" y="444"/>
      <point x="236" y="228" type="curve"/>
      <point x="236" y="54"/>
      <point x="320" y="-12"/>
      <point x="425" y="-12" type="curve"/>
      <point x="515" y="-12"/>
      <point x="581" y="36"/>
      <point x="581" y="150" type="curve"/>
      <point x="581" y="249"/>
      <point x="530" y="304"/>
      <point x="458" y="304" type="curve"/>
      <point x="380" y="304"/>
      <point x="331" y="238"/>
      <point x="331" y="150" type="curve"/>
      <point x="331" y="108"/>
      <point x="342" y="44"/>
      <point x="386" y="17" type="curve"/>
      <point x="322" y="27"/>
      <point x="264" y="85"/>
      <point x="264" y="227" type="curve"/>
      <point x="264" y="445"/>
      <point x="391" y="502"/>
    </contour>
    <contour>
      <point x="740" y="528" type="move" name="imatra"/>
    </contour>
    <contour>
      <point x="596" y="528" type="move" name="top"/>
    </contour>
  </outline>
</glyph>
<glyph name="tta-tamil" format="1">
  <advance width="764"/>
  <unicode hex="0B9F"/>
  <outline>
    <contour>
      <point x="754" y="0" type="line"/>
      <point x="754" y="26" type="line"/>
      <point x="132" y="26" type="line"/>
      <point x="132" y="511" type="line" smooth="yes"/>
      <point x="132" y="523"/>
      <point x="124" y="533"/>
      <point x="113" y="533" type="curve"/>
      <point x="104" y="533"/>
      <point x="99" y="529"/>
      <point x="95" y="525" type="curve"/>
      <point x="102" y="507"/>
      <point x="102" y="479"/>
      <point x="102" y="459" type="curve"/>
      <point x="102" y="39" type="line" smooth="yes"/>
      <point x="102" y="18"/>
      <point x="99" y="0"/>
      <point x="119" y="0" type="curve"/>
    </contour>
    <contour>
      <point x="424" y="28" type="move" name="imatra"/>
    </contour>
    <contour>
      <point x="413" y="528" type="move" name="top"/>
    </contour>
  </outline>
</glyph>
<glyph name="nna-tamil" format="1">
  <advance width="1493"/>
  <unicode hex="0BA3"/>
  <outline>
    <contour>
      <point x="256" y="-12" type="curve"/>
      <point x="344" y="-12"/>
      <point x="409" y="36"/>
      <point x="409" y="150" type="curve"/>
      <point x="409" y="249"/>
      <point x="359" y="304"/>
      <point x="289" y="304" type="curve"/>
      <point x="214" y="304"/>
      <point x="165" y="240"/>
      <point x="165" y="150" type="curve"/>
      <point x="165" y="108"/>
      <point x="176" y="44"/>
      <point x="220" y="17" type="curve"/>
      <point x="155" y="25"/>
      <point x="88" y="86"/>
      <point x="88" y="227" type="curve"/>
      <point x="88" y="442"/>
      <point x="236" y="513"/>
      <point x="404" y="513" type="curve"/>
      <point x="605" y="513"/>
      <point x="764" y="412"/>
      <point x="764" y="194" type="curve"/>
      <point x="764" y="83"/>
      <point x="720" y="16"/>
      <point x="639" y="16" type="curve"/>
      <point x="561" y="16"/>
      <point x="518" y="78"/>
      <point x="518" y="187" type="curve"/>
      <point x="518" y="377"/>
      <point x="636" y="510"/>
      <point x="835" y="510" type="curve"/>
      <point x="1008" y="510"/>
      <point x="1148" y="406"/>
      <point x="1148" y="196" type="curve"/>
      <point x="1148" y="84"/>
      <point x="1105" y="17"/>
      <point x="1023" y="17" type="curve"/>
      <point x="942" y="17"/>
      <point x="899" y="81"/>
      <point x="899" y="185" type="curve"/>
      <point x="899" y="382"/>
      <point x="1036" y="502"/>
      <point x="1207" y="502" type="curve"/>
      <point x="1468" y="502" type="line" smooth="yes"/>
      <point x="1478" y="502"/>
      <point x="1493" y="502"/>
      <point x="1493" y="519" type="curve"/>
      <point x="1493" y="522"/>
      <point x="1493" y="525"/>
      <point x="1492" y="528" type="curve"/>
      <point x="1210" y="528" type="line" smooth="yes"/>
      <point x="1002" y="528"/>
      <point x="869" y="399"/>
      <point x="869" y="185" type="curve"/>
      <point x="869" y="83"/>
      <point x="903" y="-11"/>
      <point x="1026" y="-11" type="curve"/>
      <point x="1130" y="-11"/>
      <point x="1179" y="74"/>
      <point x="1179" y="190" type="curve"/>
      <point x="1179" y="422"/>
      <point x="1037" y="537"/>
      <point x="836" y="537" type="curve"/>
      <point x="609" y="537"/>
      <point x="488" y="392"/>
      <point x="488" y="188" type="curve"/>
      <point x="488" y="78"/>
      <point x="526" y="-12"/>
      <point x="636" y="-12" type="curve"/>
      <point x="746" y="-12"/>
      <point x="795" y="78"/>
      <point x="795" y="195" type="curve"/>
      <point x="795" y="419"/>
      <point x="627" y="540"/>
      <point x="402" y="540" type="curve"/>
      <point x="197" y="540"/>
      <point x="60" y="440"/>
      <point x="60" y="227" type="curve"/>
      <point x="60" y="55"/>
      <point x="152" y="-12"/>
    </contour>
    <contour>
      <point x="284" y="21" type="curve"/>
      <point x="230" y="21"/>
      <point x="191" y="67"/>
      <point x="191" y="146" type="curve"/>
      <point x="191" y="218"/>
      <point x="223" y="275"/>
      <point x="287" y="275" type="curve"/>
      <point x="352" y="275"/>
      <point x="379" y="216"/>
      <point x="379" y="151" type="curve"/>
      <point x="379" y="72"/>
      <point x="340" y="21"/>
    </contour>
    <contour>
      <point x="1326" y="-5" type="curve"/>
      <point x="1332" y="-5"/>
      <point x="1336" y="-3"/>
      <point x="1341" y="2" type="curve"/>
      <point x="1339" y="10"/>
      <point x="1339" y="22"/>
      <point x="1339" y="47" type="curve"/>
      <point x="1339" y="508" type="line"/>
      <point x="1309" y="514" type="line"/>
      <point x="1309" y="12" type="line" smooth="yes"/>
      <point x="1309" y="4"/>
      <point x="1312" y="-5"/>
    </contour>
    <contour>
      <point x="1348" y="528" type="move" name="imatra"/>
    </contour>
    <contour>
      <point x="836" y="528" type="move" name="top"/>
    </contour>
  </outline>
</glyph>
<glyph name="ta-tamil" format="1">
  <advance width="695"/>
  <unicode hex="0BA4"/>
  <outline>
    <contour>
      <point x="80" y="-265" type="curve"/>
      <point x="95" y="-265"/>
      <point x="104" y="-253"/>
      <point x="105" y="-243" type="curve"/>
      <point x="91" y="-242"/>
      <point x="87" y="-223"/>
      <point x="87" y="-209" type="curve"/>
      <point x="87" y="-140"/>
      <point x="179" y="-124"/>
      <point x="249" y="-124" type="curve"/>
      <point x="383" y="-124" type="line" smooth="yes"/>
      <point x="547" y="-124"/>
      <point x="645" y="-37"/>
      <point x="645" y="98" type="curve"/>
      <point x="645" y="249"/>
      <point x="580" y="310"/>
      <point x="456" y="310" type="curve"/>
      <point x="230" y="310" type="line" smooth="yes"/>
      <point x="77" y="310"/>
      <point x="50" y="214"/>
      <point x="50" y="148" type="curve"/>
      <point x="50" y="57"/>
      <point x="126" y="-12"/>
      <point x="235" y="-12" type="curve"/>
      <point x="341" y="-12"/>
      <point x="430" y="50"/>
      <point x="430" y="225" type="curve"/>
      <point x="430" y="512" type="line"/>
      <point x="400" y="511" type="line"/>
      <point x="400" y="218" type="line" smooth="yes"/>
      <point x="400" y="54"/>
      <point x="313" y="16"/>
      <point x="235" y="16" type="curve"/>
      <point x="153" y="16"/>
      <point x="78" y="63"/>
      <point x="78" y="148" type="curve"/>
      <point x="78" y="225"/>
      <point x="116" y="283"/>
      <point x="229" y="284" type="curve"/>
      <point x="456" y="284" type="line" smooth="yes"/>
      <point x="559" y="284"/>
      <point x="615" y="231"/>
      <point x="615" y="98" type="curve"/>
      <point x="615" y="-17"/>
      <point x="537" y="-97"/>
      <point x="385" y="-97" type="curve"/>
      <point x="238" y="-97" type="line" smooth="yes"/>
      <point x="124" y="-97"/>
      <point x="53" y="-140"/>
      <point x="53" y="-219" type="curve"/>
      <point x="53" y="-246"/>
      <point x="61" y="-265"/>
    </contour>
    <contour>
      <point x="207" y="501" type="curve"/>
      <point x="585" y="502" type="line"/>
      <point x="595" y="502"/>
      <point x="610" y="502"/>
      <point x="610" y="519" type="curve"/>
      <point x="610" y="522"/>
      <point x="610" y="525"/>
      <point x="609" y="528" type="curve"/>
      <point x="198" y="528" type="line" smooth="yes"/>
      <point x="174" y="528"/>
      <point x="162" y="517"/>
      <point x="162" y="487" type="curve"/>
      <point x="162" y="284" type="line"/>
      <point x="190" y="292" type="line"/>
      <point x="190" y="484" type="line" smooth="yes"/>
      <point x="190" y="498"/>
      <point x="198" y="501"/>
    </contour>
    <contour>
      <point x="449" y="528" type="move" name="imatra"/>
    </contour>
    <contour>
      <point x="417" y="528" type="move" name="top"/>
    </contour>
  </outline>
</glyph>
<glyph name="na-tamil" format="1">
  <advance width="720"/>
  <unicode hex="0BA8"/>
  <outline>
    <contour>
      <point x="122" y="-265" type="curve"/>
      <point x="137" y="-265"/>
      <point x="146" y="-253"/>
      <point x="147" y="-243" type="curve"/>
      <point x="133" y="-242"/>
      <point x="129" y="-223"/>
      <point x="129" y="-209" type="curve"/>
      <point x="129" y="-140"/>
      <point x="221" y="-125"/>
      <point x="291" y="-125" type="curve"/>
      <point x="386" y="-125" type="line" smooth="yes"/>
      <point x="599" y="-125"/>
      <point x="665" y="-53"/>
      <point x="665" y="151" type="curve"/>
      <point x="665" y="268"/>
      <point x="643" y="378"/>
      <point x="534" y="378" type="curve"/>
      <point x="425" y="378"/>
      <point x="391" y="268"/>
      <point x="391" y="207" type="curve"/>
      <point x="406" y="172" type="line"/>
      <point x="404" y="280"/>
      <point x="466" y="352"/>
      <point x="536" y="352" type="curve"/>
      <point x="615" y="352"/>
      <point x="635" y="260"/>
      <point x="635" y="147" type="curve"/>
      <point x="635" y="-51"/>
      <point x="574" y="-97"/>
      <point x="385" y="-97" type="curve"/>
      <point x="280" y="-97" type="line" smooth="yes"/>
      <point x="166" y="-97"/>
      <point x="95" y="-140"/>
      <point x="95" y="-219" type="curve"/>
      <point x="95" y="-246"/>
      <point x="103" y="-265"/>
    </contour>
    <contour>
      <point x="121" y="514" type="line"/>
      <point x="121" y="0" type="line"/>
      <point x="148" y="0" type="line"/>
      <point x="148" y="508" type="line"/>
    </contour>
    <contour>
      <point x="393" y="-5" type="curve"/>
      <point x="399" y="-5"/>
      <point x="403" y="-3"/>
      <point x="408" y="2" type="curve"/>
      <point x="406" y="10"/>
      <point x="406" y="22"/>
      <point x="406" y="47" type="curve"/>
      <point x="406" y="513" type="line"/>
      <point x="376" y="513" type="line"/>
      <point x="376" y="12" type="line" smooth="yes"/>
      <point x="376" y="4"/>
      <point x="379" y="-5"/>
    </contour>
    <contour>
      <point x="562" y="528" type="curve"/>
      <point x="121" y="528" type="line"/>
      <point x="121" y="502" type="line"/>
      <point x="538" y="502" type="line" smooth="yes"/>
      <point x="548" y="502"/>
      <point x="563" y="503"/>
      <point x="563" y="519" type="curve"/>
      <point x="563" y="522"/>
      <point x="563" y="525"/>
    </contour>
    <contour>
      <point x="425" y="528" type="move" name="imatra"/>
    </contour>
    <contour>
      <point x="398" y="528" type="move" name="top"/>
    </contour>
  </outline>
</glyph>
<glyph name="nnna-tamil" format="1">
  <advance width="1111"/>
  <unicode hex="0BA9"/>
  <outline>
    <contour>
      <point x="284" y="21" type="curve"/>
      <point x="230" y="21"/>
      <point x="191" y="67"/>
      <point x="191" y="146" type="curve"/>
      <point x="191" y="218"/>
      <point x="223" y="275"/>
      <point x="287" y="275" type="curve"/>
      <point x="352" y="275"/>
      <point x="379" y="216"/>
      <point x="379" y="151" type="curve"/>
      <point x="379" y="72"/>
      <point x="340" y="21"/>
    </contour>
    <contour>
      <point x="943" y="-5" type="curve"/>
      <point x="949" y="-5"/>
      <point x="953" y="-3"/>
      <point x="958" y="2" type="curve"/>
      <point x="956" y="10"/>
      <point x="956" y="22"/>
      <point x="956" y="47" type="curve"/>
      <point x="956" y="507" type="line"/>
      <point x="926" y="513" type="line"/>
      <point x="926" y="12" type="line" smooth="yes"/>
      <point x="926" y="4"/>
      <point x="929" y="-5"/>
    </contour>
    <contour>
      <point x="844" y="502" type="curve"/>
      <point x="1086" y="502" type="line"/>
      <point x="1096" y="502"/>
      <point x="1111" y="502"/>
      <point x="1111" y="519" type="curve"/>
      <point x="1111" y="522"/>
      <point x="1111" y="525"/>
      <point x="1110" y="528" type="curve"/>
      <point x="847" y="528" type="line" smooth="yes"/>
      <point x="645" y="528"/>
      <point x="486" y="397"/>
      <point x="486" y="185" type="curve"/>
      <point x="486" y="81"/>
      <point x="524" y="-12"/>
      <point x="635" y="-12" type="curve"/>
      <point x="744" y="-12"/>
      <point x="796" y="78"/>
      <point x="796" y="200" type="curve"/>
      <point x="796" y="418"/>
      <point x="629" y="540"/>
      <point x="395" y="540" type="curve"/>
      <point x="185" y="540"/>
      <point x="60" y="442"/>
      <point x="60" y="227" type="curve"/>
      <point x="60" y="55"/>
      <point x="151" y="-12"/>
      <point x="257" y="-12" type="curve"/>
      <point x="343" y="-12"/>
      <point x="409" y="36"/>
      <point x="409" y="150" type="curve"/>
      <point x="409" y="249"/>
      <point x="359" y="304"/>
      <point x="289" y="304" type="curve"/>
      <point x="214" y="304"/>
      <point x="165" y="240"/>
      <point x="165" y="150" type="curve"/>
      <point x="165" y="108"/>
      <point x="176" y="44"/>
      <point x="220" y="17" type="curve"/>
      <point x="155" y="25"/>
      <point x="88" y="86"/>
      <point x="88" y="227" type="curve"/>
      <point x="88" y="444"/>
      <point x="233" y="513"/>
      <point x="397" y="513" type="curve"/>
      <point x="609" y="513"/>
      <point x="765" y="409"/>
      <point x="765" y="199" type="curve"/>
      <point x="765" y="84"/>
      <point x="718" y="16"/>
      <point x="639" y="16" type="curve"/>
      <point x="561" y="16"/>
      <point x="516" y="81"/>
      <point x="516" y="184" type="curve"/>
      <point x="516" y="396"/>
      <point x="679" y="502"/>
    </contour>
    <contour>
      <point x="963" y="528" type="move" name="imatra"/>
    </contour>
    <contour>
      <point x="652" y="528" type="move" name="top"/>
    </contour>
  </outline>
</glyph>
<glyph name="pa-tamil" format="1">
  <advance width="804"/>
  <unicode hex="0BAA"/>
  <outline>
    <contour>
      <point x="119" y="0" type="curve"/>
      <point x="685" y="0" type="line" smooth="yes"/>
      <point x="702" y="0"/>
      <point x="702" y="18"/>
      <point x="702" y="39" type="curve"/>
      <point x="702" y="511" type="line" smooth="yes"/>
      <point x="702" y="523"/>
      <point x="694" y="533"/>
      <point x="683" y="533" type="curve"/>
      <point x="674" y="533"/>
      <point x="669" y="529"/>
      <point x="665" y="525" type="curve"/>
      <point x="674" y="511"/>
      <point x="672" y="479"/>
      <point x="672" y="472" type="curve"/>
      <point x="672" y="26" type="line"/>
      <point x="132" y="26" type="line"/>
      <point x="132" y="511" type="line" smooth="yes"/>
      <point x="132" y="523"/>
      <point x="124" y="533"/>
      <point x="113" y="533" type="curve"/>
      <point x="104" y="533"/>
      <point x="99" y="529"/>
      <point x="95" y="525" type="curve"/>
      <point x="104" y="511"/>
      <point x="102" y="479"/>
      <point x="102" y="472" type="curve"/>
      <point x="102" y="39" type="line" smooth="yes"/>
      <point x="102" y="18"/>
      <point x="99" y="0"/>
    </contour>
    <contour>
      <point x="725" y="528" type="move" name="imatra"/>
    </contour>
    <contour>
      <point x="409" y="528" type="move" name="top"/>
    </contour>
  </outline>
</glyph>
<glyph name="ma-tamil" format="1">
  <advance width="799"/>
  <unicode hex="0BAE"/>
  <outline>
    <contour>
      <point x="548" y="540" type="curve"/>
      <point x="481" y="540"/>
      <point x="426" y="507"/>
      <point x="426" y="373" type="curve"/>
      <point x="426" y="26" type="line"/>
      <point x="132" y="26" type="line"/>
      <point x="132" y="511" type="line" smooth="yes"/>
      <point x="132" y="523"/>
      <point x="124" y="533"/>
      <point x="112" y="533" type="curve"/>
      <point x="104" y="533"/>
      <point x="99" y="529"/>
      <point x="95" y="525" type="curve"/>
      <point x="102" y="507"/>
      <point x="102" y="479"/>
      <point x="102" y="459" type="curve"/>
      <point x="102" y="39" type="line" smooth="yes"/>
      <point x="102" y="18"/>
      <point x="99" y="0"/>
      <point x="119" y="0" type="curve"/>
      <point x="576" y="0" type="line" smooth="yes"/>
      <point x="748" y="0"/>
      <point x="749" y="156"/>
      <point x="749" y="240" type="curve"/>
      <point x="749" y="384"/>
      <point x="692" y="540"/>
    </contour>
    <contour>
      <point x="456" y="26" type="line"/>
      <point x="456" y="382" type="line"/>
      <point x="456" y="491"/>
      <point x="505" y="514"/>
      <point x="554" y="514" type="curve"/>
      <point x="679" y="514"/>
      <point x="722" y="360"/>
      <point x="722" y="217" type="curve"/>
      <point x="722" y="115"/>
      <point x="701" y="26"/>
      <point x="571" y="26" type="curve"/>
    </contour>
    <contour>
      <point x="639" y="529" type="move" name="imatra"/>
    </contour>
    <contour>
      <point x="445" y="528" type="move" name="top"/>
    </contour>
  </outline>
</glyph>
<glyph name="ya-tamil" format="1">
  <advance width="895"/>
  <unicode hex="0BAF"/>
  <outline>
    <contour>
      <point x="132" y="106" type="curve"/>
      <point x="132" y="511" type="line" smooth="yes"/>
      <point x="132" y="523"/>
      <point x="124" y="533"/>
      <point x="112" y="533" type="curve"/>
      <point x="104" y="533"/>
      <point x="99" y="529"/>
      <point x="95" y="525" type="curve"/>
      <point x="104" y="511"/>
      <point x="102" y="479"/>
      <point x="102" y="472" type="curve"/>
      <point x="102" y="95" type="line" smooth="yes"/>
      <point x="102" y="47"/>
      <point x="120" y="-12"/>
      <point x="223" y="-12" type="curve"/>
      <point x="323" y="-12"/>
      <point x="389" y="44"/>
      <point x="405" y="73" type="curve"/>
      <point x="391" y="95" type="line"/>
      <point x="350" y="41"/>
      <point x="281" y="15"/>
      <point x="228" y="15" type="curve"/>
      <point x="154" y="15"/>
      <point x="132" y="46"/>
    </contour>
    <contour>
      <point x="793" y="39" type="curve"/>
      <point x="793" y="511" type="line"/>
      <point x="793" y="523"/>
      <point x="785" y="533"/>
      <point x="773" y="533" type="curve"/>
      <point x="765" y="533"/>
      <point x="760" y="529"/>
      <point x="756" y="525" type="curve"/>
      <point x="765" y="511"/>
      <point x="763" y="479"/>
      <point x="763" y="472" type="curve"/>
      <point x="763" y="26" type="line"/>
      <point x="413" y="26" type="line"/>
      <point x="413" y="511" type="line" smooth="yes"/>
      <point x="413" y="523"/>
      <point x="405" y="533"/>
      <point x="393" y="533" type="curve"/>
      <point x="385" y="533"/>
      <point x="380" y="529"/>
      <point x="376" y="525" type="curve"/>
      <point x="385" y="511"/>
      <point x="383" y="479"/>
      <point x="383" y="472" type="curve"/>
      <point x="383" y="39" type="line" smooth="yes"/>
      <point x="383" y="18"/>
      <point x="380" y="0"/>
      <point x="400" y="0" type="curve"/>
      <point x="776" y="0" type="line" smooth="yes"/>
      <point x="796" y="0"/>
      <point x="793" y="18"/>
    </contour>
    <contour>
      <point x="751" y="528" type="move" name="imatra"/>
    </contour>
    <contour>
      <point x="398" y="528" type="move" name="top"/>
    </contour>
  </outline>
</glyph>
<glyph name="ra-tamil" format="1">
  <advance width="590"/>
  <unicode hex="0BB0"/>
  <outline>
    <contour>
      <point x="186" y="-200" type="curve"/>
      <point x="256" y="-197"/>
      <point x="435" y="-119"/>
      <point x="435" y="54" type="curve"/>
      <point x="435" y="508" type="line"/>
      <point x="405" y="514" type="line"/>
      <point x="405" y="54" type="line" smooth="yes"/>
      <point x="405" y="-90"/>
      <point x="263" y="-158"/>
      <point x="185" y="-177" type="curve"/>
      <point x="176" y="-179"/>
      <point x="168" y="-180"/>
      <point x="160" y="-180" type="curve"/>
      <point x="162" y="-192"/>
      <point x="174" y="-201"/>
    </contour>
    <contour>
      <point x="95" y="514" type="line"/>
      <point x="95" y="0" type="line"/>
      <point x="122" y="0" type="line"/>
      <point x="122" y="508" type="line"/>
    </contour>
    <contour>
      <point x="95" y="528" type="line"/>
      <point x="95" y="500" type="line"/>
      <point x="565" y="502" type="line" smooth="yes"/>
      <point x="575" y="502"/>
      <point x="590" y="502"/>
      <point x="590" y="519" type="curve"/>
      <point x="590" y="522"/>
      <point x="590" y="525"/>
      <point x="589" y="528" type="curve"/>
    </contour>
    <contour>
      <point x="443" y="528" type="move" name="imatra"/>
    </contour>
    <contour>
      <point x="268" y="528" type="move" name="top"/>
    </contour>
  </outline>
</glyph>
<glyph name="rra-tamil" format="1">
  <advance width="709"/>
  <unicode hex="0BB1"/>
  <outline>
    <contour>
      <point x="103" y="0" type="line"/>
      <point x="133" y="0" type="line"/>
      <point x="133" y="309" type="line" smooth="yes"/>
      <point x="133" y="375"/>
      <point x="118" y="513"/>
      <point x="236" y="513" type="curve"/>
      <point x="316" y="513"/>
      <point x="331" y="411"/>
      <point x="331" y="347" type="curve"/>
      <point x="331" y="12" type="line" smooth="yes"/>
      <point x="331" y="4"/>
      <point x="332" y="-5"/>
      <point x="345" y="-5" type="curve"/>
      <point x="351" y="-5"/>
      <point x="355" y="-3"/>
      <point x="360" y="2" type="curve"/>
      <point x="358" y="10"/>
      <point x="358" y="22"/>
      <point x="358" y="33" type="curve"/>
      <point x="358" y="337" type="line" smooth="yes"/>
      <point x="358" y="470"/>
      <point x="415" y="513"/>
      <point x="487" y="513" type="curve"/>
      <point x="591" y="513"/>
      <point x="619" y="421"/>
      <point x="619" y="239" type="curve"/>
      <point x="619" y="0"/>
      <point x="573" y="-99"/>
      <point x="374" y="-99" type="curve"/>
      <point x="275" y="-99" type="line" smooth="yes"/>
      <point x="161" y="-99"/>
      <point x="90" y="-141"/>
      <point x="90" y="-219" type="curve"/>
      <point x="90" y="-246"/>
      <point x="98" y="-265"/>
      <point x="117" y="-265" type="curve"/>
      <point x="132" y="-265"/>
      <point x="141" y="-253"/>
      <point x="142" y="-243" type="curve"/>
      <point x="128" y="-242"/>
      <point x="124" y="-223"/>
      <point x="124" y="-209" type="curve"/>
      <point x="124" y="-140"/>
      <point x="216" y="-125"/>
      <point x="286" y="-125" type="curve"/>
      <point x="354" y="-125" type="line" smooth="yes"/>
      <point x="591" y="-125"/>
      <point x="649" y="-41"/>
      <point x="649" y="241" type="curve"/>
      <point x="649" y="415"/>
      <point x="626" y="540"/>
      <point x="490" y="540" type="curve"/>
      <point x="407" y="540"/>
      <point x="362" y="495"/>
      <point x="345" y="422" type="curve"/>
      <point x="333" y="501"/>
      <point x="296" y="540"/>
      <point x="231" y="540" type="curve"/>
      <point x="120" y="540"/>
      <point x="103" y="437"/>
      <point x="103" y="363" type="curve"/>
    </contour>
    <contour>
      <point x="597" y="528" type="move" name="imatra"/>
    </contour>
    <contour>
      <point x="367" y="528" type="move" name="top"/>
    </contour>
  </outline>
</glyph>
<glyph name="la-tamil" format="1">
  <advance width="849"/>
  <unicode hex="0BB2"/>
  <outline>
    <contour>
      <point x="259" y="-12" type="curve"/>
      <point x="347" y="-12"/>
      <point x="413" y="36"/>
      <point x="413" y="149" type="curve"/>
      <point x="413" y="249"/>
      <point x="362" y="304"/>
      <point x="291" y="304" type="curve"/>
      <point x="215" y="304"/>
      <point x="165" y="240"/>
      <point x="165" y="150" type="curve"/>
      <point x="165" y="108"/>
      <point x="176" y="44"/>
      <point x="220" y="17" type="curve"/>
      <point x="146" y="25"/>
      <point x="88" y="101"/>
      <point x="88" y="247" type="curve"/>
      <point x="88" y="466"/>
      <point x="218" y="513"/>
      <point x="316" y="513" type="curve"/>
      <point x="474" y="513"/>
      <point x="475" y="392"/>
      <point x="473" y="263" type="curve"/>
      <point x="471" y="146"/>
      <point x="471" y="-12"/>
      <point x="616" y="-12" type="curve"/>
      <point x="731" y="-12"/>
      <point x="794" y="88"/>
      <point x="794" y="260" type="curve"/>
      <point x="794" y="456"/>
      <point x="713" y="540"/>
      <point x="683" y="540" type="curve"/>
      <point x="671" y="540"/>
      <point x="666" y="527"/>
      <point x="666" y="517" type="curve"/>
      <point x="689" y="502"/>
      <point x="766" y="442"/>
      <point x="766" y="261" type="curve"/>
      <point x="766" y="151"/>
      <point x="737" y="15"/>
      <point x="616" y="15" type="curve"/>
      <point x="504" y="15"/>
      <point x="504" y="133"/>
      <point x="505" y="262" type="curve"/>
      <point x="506" y="420"/>
      <point x="498" y="540"/>
      <point x="322" y="540" type="curve"/>
      <point x="176" y="540"/>
      <point x="60" y="457"/>
      <point x="60" y="245" type="curve"/>
      <point x="60" y="61"/>
      <point x="149" y="-12"/>
    </contour>
    <contour>
      <point x="286" y="21" type="curve"/>
      <point x="231" y="21"/>
      <point x="191" y="67"/>
      <point x="191" y="147" type="curve"/>
      <point x="191" y="218"/>
      <point x="223" y="275"/>
      <point x="289" y="275" type="curve"/>
      <point x="356" y="275"/>
      <point x="383" y="215"/>
      <point x="383" y="150" type="curve"/>
      <point x="383" y="72"/>
      <point x="343" y="21"/>
    </contour>
    <contour>
      <point x="691" y="528" type="move" name="imatra"/>
    </contour>
    <contour>
      <point x="395" y="528" type="move" name="top"/>
    </contour>
  </outline>
</glyph>
<glyph name="lla-tamil" format="1">
  <advance width="1027"/>
  <unicode hex="0BB3"/>
  <outline>
    <contour>
      <point x="257" y="-12" type="curve"/>
      <point x="349" y="-12"/>
      <point x="415" y="36"/>
      <point x="415" y="149" type="curve"/>
      <point x="415" y="249"/>
      <point x="364" y="304"/>
      <point x="292" y="304" type="curve"/>
      <point x="215" y="304"/>
      <point x="165" y="240"/>
      <point x="165" y="150" type="curve"/>
      <point x="165" y="108"/>
      <point x="176" y="44"/>
      <point x="220" y="17" type="curve"/>
      <point x="151" y="29"/>
      <point x="88" y="78"/>
      <point x="88" y="235" type="curve"/>
      <point x="88" y="456"/>
      <point x="202" y="512"/>
      <point x="312" y="512" type="curve"/>
      <point x="474" y="512"/>
      <point x="534" y="384"/>
      <point x="534" y="321" type="curve"/>
      <point x="534" y="12" type="line" smooth="yes"/>
      <point x="533" y="4"/>
      <point x="534" y="-5"/>
      <point x="547" y="-5" type="curve"/>
      <point x="557" y="-5"/>
      <point x="561" y="-3"/>
      <point x="566" y="2" type="curve"/>
      <point x="564" y="10"/>
      <point x="564" y="22"/>
      <point x="564" y="33" type="curve"/>
      <point x="564" y="370" type="line" smooth="yes"/>
      <point x="564" y="480"/>
      <point x="586" y="502"/>
      <point x="665" y="502" type="curve"/>
      <point x="1002" y="502" type="line" smooth="yes"/>
      <point x="1012" y="502"/>
      <point x="1027" y="502"/>
      <point x="1027" y="519" type="curve"/>
      <point x="1027" y="522"/>
      <point x="1027" y="525"/>
      <point x="1026" y="528" type="curve"/>
      <point x="665" y="528" type="line" smooth="yes"/>
      <point x="603" y="528"/>
      <point x="534" y="515"/>
      <point x="534" y="406" type="curve"/>
      <point x="516" y="462"/>
      <point x="443" y="540"/>
      <point x="310" y="540" type="curve"/>
      <point x="164" y="540"/>
      <point x="60" y="453"/>
      <point x="60" y="239" type="curve"/>
      <point x="60" y="48"/>
      <point x="148" y="-12"/>
    </contour>
    <contour>
      <point x="287" y="21" type="curve"/>
      <point x="231" y="21"/>
      <point x="191" y="67"/>
      <point x="191" y="146" type="curve"/>
      <point x="191" y="218"/>
      <point x="224" y="275"/>
      <point x="290" y="275" type="curve"/>
      <point x="358" y="275"/>
      <point x="385" y="215"/>
      <point x="385" y="150" type="curve"/>
      <point x="385" y="72"/>
      <point x="345" y="21"/>
    </contour>
    <contour>
      <point x="859" y="-5" type="curve"/>
      <point x="865" y="-5"/>
      <point x="869" y="-3"/>
      <point x="874" y="2" type="curve"/>
      <point x="872" y="10"/>
      <point x="872" y="22"/>
      <point x="872" y="47" type="curve"/>
      <point x="872" y="515" type="line"/>
      <point x="842" y="521" type="line"/>
      <point x="842" y="12" type="line" smooth="yes"/>
      <point x="842" y="4"/>
      <point x="845" y="-5"/>
    </contour>
    <contour>
      <point x="856" y="528" type="move" name="imatra"/>
    </contour>
    <contour>
      <point x="534" y="528" type="move" name="top"/>
    </contour>
  </outline>
</glyph>
<glyph name="llla-tamil" format="1">
  <advance width="799"/>
  <unicode hex="0BB4"/>
  <outline>
    <contour>
      <point x="246" y="-259" type="curve"/>
      <point x="374" y="-259"/>
      <point x="418" y="-153"/>
      <point x="503" y="-153" type="curve"/>
      <point x="677" y="-153" type="line"/>
      <point x="677" y="-127" type="line"/>
      <point x="505" y="-127" type="line" smooth="yes"/>
      <point x="456" y="-127"/>
      <point x="456" y="-124"/>
      <point x="456" y="-33" type="curve"/>
      <point x="456" y="0" type="line"/>
      <point x="576" y="0" type="line" smooth="yes"/>
      <point x="748" y="0"/>
      <point x="749" y="156"/>
      <point x="749" y="240" type="curve"/>
      <point x="749" y="385"/>
      <point x="692" y="540"/>
      <point x="548" y="540" type="curve"/>
      <point x="481" y="540"/>
      <point x="426" y="507"/>
      <point x="426" y="376" type="curve"/>
      <point x="426" y="26" type="line"/>
      <point x="132" y="26" type="line"/>
      <point x="132" y="511" type="line" smooth="yes"/>
      <point x="132" y="523"/>
      <point x="124" y="533"/>
      <point x="112" y="533" type="curve"/>
      <point x="104" y="533"/>
      <point x="99" y="529"/>
      <point x="95" y="525" type="curve"/>
      <point x="102" y="507"/>
      <point x="102" y="479"/>
      <point x="102" y="459" type="curve"/>
      <point x="102" y="39" type="line" smooth="yes"/>
      <point x="102" y="18"/>
      <point x="99" y="0"/>
      <point x="119" y="0" type="curve"/>
      <point x="426" y="0" type="line"/>
      <point x="426" y="-33" type="line" smooth="yes"/>
      <point x="426" y="-91"/>
      <point x="422" y="-128"/>
      <point x="448" y="-136" type="curve"/>
      <point x="398" y="-159"/>
      <point x="339" y="-233"/>
      <point x="245" y="-233" type="curve"/>
      <point x="184" y="-233"/>
      <point x="158" y="-201"/>
      <point x="158" y="-153" type="curve"/>
      <point x="158" y="-101"/>
      <point x="188" y="-92"/>
      <point x="204" y="-92" type="curve"/>
      <point x="210" y="-92"/>
      <point x="214" y="-93"/>
      <point x="217" y="-95" type="curve"/>
      <point x="221" y="-91"/>
      <point x="223" y="-86"/>
      <point x="223" y="-81" type="curve"/>
      <point x="223" y="-71"/>
      <point x="213" y="-64"/>
      <point x="198" y="-64" type="curve"/>
      <point x="170" y="-64"/>
      <point x="128" y="-87"/>
      <point x="128" y="-154" type="curve"/>
      <point x="128" y="-214"/>
      <point x="162" y="-259"/>
    </contour>
    <contour>
      <point x="571" y="26" type="curve"/>
      <point x="456" y="26" type="line"/>
      <point x="456" y="385" type="line" smooth="yes"/>
      <point x="456" y="491"/>
      <point x="505" y="514"/>
      <point x="554" y="514" type="curve"/>
      <point x="679" y="514"/>
      <point x="722" y="361"/>
      <point x="722" y="217" type="curve"/>
      <point x="722" y="115"/>
      <point x="701" y="26"/>
    </contour>
    <contour>
      <point x="647" y="528" type="move" name="imatra"/>
    </contour>
    <contour>
      <point x="589" y="528" type="move" name="top"/>
    </contour>
  </outline>
</glyph>
<glyph name="va-tamil" format="1">
  <advance width="1008"/>
  <unicode hex="0BB5"/>
  <outline>
    <contour>
      <point x="267" y="-12" type="curve"/>
      <point x="356" y="-18"/>
      <point x="421" y="30"/>
      <point x="421" y="149" type="curve"/>
      <point x="421" y="249"/>
      <point x="371" y="304"/>
      <point x="300" y="304" type="curve"/>
      <point x="224" y="304"/>
      <point x="175" y="239"/>
      <point x="175" y="150" type="curve"/>
      <point x="175" y="108"/>
      <point x="186" y="38"/>
      <point x="230" y="17" type="curve"/>
      <point x="151" y="26"/>
      <point x="88" y="96"/>
      <point x="88" y="240" type="curve"/>
      <point x="88" y="451"/>
      <point x="218" y="512"/>
      <point x="349" y="512" type="curve"/>
      <point x="507" y="512"/>
      <point x="583" y="416"/>
      <point x="583" y="279" type="curve"/>
      <point x="583" y="139"/>
      <point x="509" y="56"/>
      <point x="469" y="14" type="curve"/>
      <point x="469" y="0" type="line"/>
      <point x="906" y="0" type="line"/>
      <point x="906" y="511" type="line" smooth="yes"/>
      <point x="906" y="523"/>
      <point x="898" y="533"/>
      <point x="886" y="533" type="curve"/>
      <point x="878" y="533"/>
      <point x="873" y="529"/>
      <point x="869" y="525" type="curve"/>
      <point x="878" y="511"/>
      <point x="876" y="479"/>
      <point x="876" y="472" type="curve"/>
      <point x="876" y="26" type="line"/>
      <point x="520" y="26" type="line"/>
      <point x="572" y="91"/>
      <point x="615" y="173"/>
      <point x="615" y="282" type="curve"/>
      <point x="615" y="427"/>
      <point x="534" y="539"/>
      <point x="351" y="539" type="curve"/>
      <point x="175" y="539"/>
      <point x="60" y="441"/>
      <point x="60" y="239" type="curve"/>
      <point x="60" y="59"/>
      <point x="151" y="-12"/>
    </contour>
    <contour>
      <point x="295" y="21" type="curve"/>
      <point x="240" y="15"/>
      <point x="201" y="67"/>
      <point x="201" y="146" type="curve"/>
      <point x="201" y="218"/>
      <point x="233" y="275"/>
      <point x="298" y="275" type="curve"/>
      <point x="364" y="275"/>
      <point x="391" y="215"/>
      <point x="391" y="150" type="curve"/>
      <point x="391" y="72"/>
      <point x="352" y="15"/>
    </contour>
    <contour>
      <point x="906" y="528" type="move" name="imatra"/>
    </contour>
    <contour>
      <point x="453" y="528" type="move" name="top"/>
    </contour>
  </outline>
</glyph>
<glyph name="sha-tamil" format="1">
  <advance width="911"/>
  <unicode hex="0BB6"/>
  <outline>
    <contour>
      <point x="248" y="-12" type="curve"/>
      <point x="377" y="-12"/>
      <point x="394" y="90"/>
      <point x="394" y="171" type="curve"/>
      <point x="394" y="519" type="line"/>
      <point x="367" y="519" type="line"/>
      <point x="367" y="208" type="line" smooth="yes"/>
      <point x="367" y="155"/>
      <point x="382" y="15"/>
      <point x="248" y="15" type="curve"/>
      <point x="144" y="15"/>
      <point x="129" y="122"/>
      <point x="129" y="193" type="curve"/>
      <point x="129" y="511" type="line" smooth="yes"/>
      <point x="129" y="524"/>
      <point x="122" y="533"/>
      <point x="110" y="533" type="curve"/>
      <point x="104" y="533"/>
      <point x="96" y="530"/>
      <point x="95" y="526" type="curve"/>
      <point x="101" y="518"/>
      <point x="102" y="506"/>
      <point x="102" y="495" type="curve"/>
      <point x="102" y="177" type="line" smooth="yes"/>
      <point x="102" y="32"/>
      <point x="171" y="-12"/>
    </contour>
    <contour>
      <point x="663" y="-12" type="curve"/>
      <point x="792" y="-12"/>
      <point x="809" y="90"/>
      <point x="809" y="171" type="curve"/>
      <point x="809" y="519" type="line"/>
      <point x="782" y="519" type="line"/>
      <point x="782" y="208" type="line" smooth="yes"/>
      <point x="782" y="155"/>
      <point x="797" y="15"/>
      <point x="663" y="15" type="curve"/>
      <point x="559" y="15"/>
      <point x="544" y="122"/>
      <point x="544" y="193" type="curve"/>
      <point x="544" y="520" type="line"/>
      <point x="517" y="520" type="line"/>
      <point x="517" y="177" type="line" smooth="yes"/>
      <point x="517" y="32"/>
      <point x="586" y="-12"/>
    </contour>
    <contour>
      <point x="367" y="500" type="line"/>
      <point x="809" y="502" type="line"/>
      <point x="809" y="528" type="line"/>
      <point x="367" y="528" type="line"/>
    </contour>
    <contour>
      <point x="793" y="528" type="move" name="imatra"/>
    </contour>
    <contour>
      <point x="453" y="528" type="move" name="top"/>
    </contour>
  </outline>
</glyph>
<glyph name="ssa-tamil" format="1">
  <advance width="1241"/>
  <unicode hex="0BB7"/>
  <outline>
    <contour>
      <point x="267" y="-12" type="curve"/>
      <point x="356" y="-12"/>
      <point x="421" y="36"/>
      <point x="421" y="149" type="curve"/>
      <point x="421" y="249"/>
      <point x="371" y="304"/>
      <point x="300" y="304" type="curve"/>
      <point x="224" y="304"/>
      <point x="175" y="239"/>
      <point x="175" y="150" type="curve"/>
      <point x="175" y="108"/>
      <point x="186" y="44"/>
      <point x="230" y="17" type="curve"/>
      <point x="151" y="26"/>
      <point x="88" y="96"/>
      <point x="88" y="240" type="curve"/>
      <point x="88" y="451"/>
      <point x="218" y="513"/>
      <point x="349" y="513" type="curve"/>
      <point x="507" y="513"/>
      <point x="583" y="416"/>
      <point x="583" y="279" type="curve"/>
      <point x="583" y="139"/>
      <point x="509" y="56"/>
      <point x="469" y="14" type="curve"/>
      <point x="469" y="0" type="line"/>
      <point x="1156" y="0" type="line"/>
      <point x="1156" y="26" type="line"/>
      <point x="520" y="26" type="line"/>
      <point x="572" y="91"/>
      <point x="615" y="173"/>
      <point x="615" y="282" type="curve"/>
      <point x="615" y="428"/>
      <point x="534" y="540"/>
      <point x="351" y="540" type="curve"/>
      <point x="175" y="540"/>
      <point x="60" y="442"/>
      <point x="60" y="239" type="curve"/>
      <point x="60" y="59"/>
      <point x="151" y="-12"/>
    </contour>
    <contour>
      <point x="295" y="21" type="curve"/>
      <point x="240" y="21"/>
      <point x="201" y="67"/>
      <point x="201" y="146" type="curve"/>
      <point x="201" y="218"/>
      <point x="233" y="275"/>
      <point x="298" y="275" type="curve"/>
      <point x="364" y="275"/>
      <point x="391" y="215"/>
      <point x="391" y="150" type="curve"/>
      <point x="391" y="72"/>
      <point x="352" y="21"/>
    </contour>
    <contour>
      <point x="915" y="306" type="curve"/>
      <point x="915" y="-246" type="line"/>
      <point x="945" y="-246" type="line"/>
      <point x="945" y="313" type="line" smooth="yes"/>
      <point x="945" y="450"/>
      <point x="904" y="510"/>
      <point x="819" y="510" type="curve"/>
      <point x="739" y="510"/>
      <point x="695" y="458"/>
      <point x="695" y="370" type="curve"/>
      <point x="695" y="268"/>
      <point x="753" y="216"/>
      <point x="869" y="216" type="curve"/>
      <point x="1038" y="216"/>
      <point x="1119" y="327"/>
      <point x="1144" y="358" type="curve"/>
      <point x="1126" y="373" type="line"/>
      <point x="1066" y="301"/>
      <point x="973" y="242"/>
      <point x="865" y="242" type="curve"/>
      <point x="770" y="242"/>
      <point x="721" y="287"/>
      <point x="725" y="374" type="curve"/>
      <point x="728" y="441"/>
      <point x="761" y="481"/>
      <point x="818" y="481" type="curve"/>
      <point x="884" y="481"/>
      <point x="915" y="429"/>
    </contour>
    <contour>
      <point x="1126" y="373" type="line"/>
      <point x="1126" y="0" type="line"/>
      <point x="1156" y="0" type="line"/>
      <point x="1156" y="373" type="line"/>
    </contour>
    <contour>
      <point x="882" y="490" type="move" name="imatra"/>
    </contour>
    <contour>
      <point x="695" y="528" type="move" name="top"/>
    </contour>
  </outline>
</glyph>
<glyph name="sa-tamil" format="1">
  <advance width="1141"/>
  <unicode hex="0BB8"/>
  <outline>
    <contour>
      <point x="257" y="-12" type="curve"/>
      <point x="349" y="-12"/>
      <point x="415" y="36"/>
      <point x="415" y="149" type="curve"/>
      <point x="415" y="249"/>
      <point x="364" y="304"/>
      <point x="292" y="304" type="curve"/>
      <point x="215" y="304"/>
      <point x="165" y="240"/>
      <point x="165" y="150" type="curve"/>
      <point x="165" y="108"/>
      <point x="176" y="44"/>
      <point x="220" y="17" type="curve"/>
      <point x="151" y="29"/>
      <point x="88" y="76"/>
      <point x="88" y="234" type="curve"/>
      <point x="88" y="458"/>
      <point x="205" y="519"/>
      <point x="305" y="519" type="curve"/>
      <point x="456" y="519"/>
      <point x="533" y="365"/>
      <point x="533" y="259" type="curve"/>
      <point x="533" y="12" type="line" smooth="yes"/>
      <point x="533" y="4"/>
      <point x="534" y="-5"/>
      <point x="547" y="-5" type="curve"/>
      <point x="556" y="-5"/>
      <point x="560" y="-3"/>
      <point x="565" y="2" type="curve"/>
      <point x="563" y="10"/>
      <point x="563" y="22"/>
      <point x="563" y="33" type="curve"/>
      <point x="563" y="370" type="line" smooth="yes"/>
      <point x="563" y="440"/>
      <point x="580" y="519"/>
      <point x="676" y="519" type="curve"/>
      <point x="796" y="519"/>
      <point x="789" y="386"/>
      <point x="789" y="263" type="curve"/>
      <point x="789" y="123"/>
      <point x="789" y="-12"/>
      <point x="921" y="-12" type="curve"/>
      <point x="1015" y="-12"/>
      <point x="1090" y="87"/>
      <point x="1090" y="275" type="curve"/>
      <point x="1100" y="450"/>
      <point x="1017" y="546"/>
      <point x="988" y="546" type="curve"/>
      <point x="977" y="546"/>
      <point x="972" y="532"/>
      <point x="972" y="523" type="curve"/>
      <point x="993" y="511"/>
      <point x="1072" y="434"/>
      <point x="1062" y="275" type="curve"/>
      <point x="1062" y="153"/>
      <point x="1026" y="15"/>
      <point x="918" y="15" type="curve"/>
      <point x="823" y="15"/>
      <point x="818" y="119"/>
      <point x="821" y="262" type="curve"/>
      <point x="824" y="395"/>
      <point x="828" y="546"/>
      <point x="676" y="546" type="curve"/>
      <point x="548" y="546"/>
      <point x="533" y="448"/>
      <point x="533" y="376" type="curve"/>
      <point x="498" y="461"/>
      <point x="435" y="546"/>
      <point x="306" y="546" type="curve"/>
      <point x="165" y="546"/>
      <point x="60" y="453"/>
      <point x="60" y="239" type="curve"/>
      <point x="60" y="47"/>
      <point x="150" y="-12"/>
    </contour>
    <contour>
      <point x="287" y="21" type="curve"/>
      <point x="231" y="21"/>
      <point x="191" y="67"/>
      <point x="191" y="146" type="curve"/>
      <point x="191" y="218"/>
      <point x="224" y="275"/>
      <point x="290" y="275" type="curve"/>
      <point x="358" y="275"/>
      <point x="385" y="215"/>
      <point x="385" y="150" type="curve"/>
      <point x="385" y="72"/>
      <point x="345" y="21"/>
    </contour>
    <contour>
      <point x="1039" y="528" type="move" name="imatra"/>
    </contour>
    <contour>
      <point x="533" y="528" type="move" name="top"/>
    </contour>
  </outline>
</glyph>
<glyph name="ha-tamil" format="1">
  <advance width="1387"/>
  <unicode hex="0BB9"/>
  <outline>
    <contour>
      <point x="131" y="-265" type="curve"/>
      <point x="146" y="-265"/>
      <point x="155" y="-253"/>
      <point x="156" y="-243" type="curve"/>
      <point x="142" y="-242"/>
      <point x="138" y="-223"/>
      <point x="138" y="-209" type="curve"/>
      <point x="138" y="-140"/>
      <point x="230" y="-125"/>
      <point x="300" y="-125" type="curve"/>
      <point x="1018" y="-125" type="line" smooth="yes"/>
      <point x="1263" y="-125"/>
      <point x="1327" y="-42"/>
      <point x="1327" y="214" type="curve"/>
      <point x="1327" y="416"/>
      <point x="1308" y="540"/>
      <point x="1165" y="540" type="curve"/>
      <point x="1087" y="540"/>
      <point x="1042" y="496"/>
      <point x="1024" y="416" type="curve"/>
      <point x="1013" y="504"/>
      <point x="952" y="540"/>
      <point x="903" y="540" type="curve"/>
      <point x="802" y="540"/>
      <point x="780" y="446"/>
      <point x="780" y="357" type="curve"/>
      <point x="780" y="26" type="line"/>
      <point x="510" y="26" type="line"/>
      <point x="562" y="91"/>
      <point x="605" y="173"/>
      <point x="605" y="282" type="curve"/>
      <point x="605" y="428"/>
      <point x="524" y="540"/>
      <point x="341" y="540" type="curve"/>
      <point x="171" y="540"/>
      <point x="60" y="442"/>
      <point x="60" y="239" type="curve"/>
      <point x="60" y="59"/>
      <point x="147" y="-12"/>
      <point x="257" y="-12" type="curve"/>
      <point x="346" y="-12"/>
      <point x="411" y="36"/>
      <point x="411" y="149" type="curve"/>
      <point x="411" y="249"/>
      <point x="361" y="304"/>
      <point x="290" y="304" type="curve"/>
      <point x="214" y="304"/>
      <point x="165" y="239"/>
      <point x="165" y="150" type="curve"/>
      <point x="165" y="108"/>
      <point x="176" y="44"/>
      <point x="220" y="17" type="curve"/>
      <point x="147" y="26"/>
      <point x="88" y="96"/>
      <point x="88" y="240" type="curve"/>
      <point x="88" y="451"/>
      <point x="213" y="513"/>
      <point x="339" y="513" type="curve"/>
      <point x="497" y="513"/>
      <point x="573" y="416"/>
      <point x="573" y="279" type="curve"/>
      <point x="573" y="139"/>
      <point x="499" y="56"/>
      <point x="459" y="14" type="curve"/>
      <point x="459" y="0" type="line"/>
      <point x="810" y="0" type="line"/>
      <point x="810" y="320" type="line" smooth="yes"/>
      <point x="810" y="397"/>
      <point x="805" y="513"/>
      <point x="903" y="513" type="curve"/>
      <point x="990" y="513"/>
      <point x="1010" y="407"/>
      <point x="1010" y="341" type="curve"/>
      <point x="1010" y="12" type="line" smooth="yes"/>
      <point x="1010" y="4"/>
      <point x="1011" y="-5"/>
      <point x="1024" y="-5" type="curve"/>
      <point x="1030" y="-5"/>
      <point x="1034" y="-3"/>
      <point x="1039" y="2" type="curve"/>
      <point x="1037" y="10"/>
      <point x="1037" y="22"/>
      <point x="1037" y="33" type="curve"/>
      <point x="1037" y="331" type="line" smooth="yes"/>
      <point x="1037" y="468"/>
      <point x="1093" y="513"/>
      <point x="1165" y="513" type="curve"/>
      <point x="1268" y="513"/>
      <point x="1297" y="423"/>
      <point x="1297" y="217" type="curve"/>
      <point x="1297" y="-33"/>
      <point x="1235" y="-99"/>
      <point x="1017" y="-99" type="curve"/>
      <point x="289" y="-99" type="line" smooth="yes"/>
      <point x="175" y="-99"/>
      <point x="104" y="-141"/>
      <point x="104" y="-219" type="curve"/>
      <point x="104" y="-246"/>
      <point x="112" y="-265"/>
    </contour>
    <contour>
      <point x="285" y="21" type="curve"/>
      <point x="230" y="21"/>
      <point x="191" y="67"/>
      <point x="191" y="146" type="curve"/>
      <point x="191" y="218"/>
      <point x="223" y="275"/>
      <point x="288" y="275" type="curve"/>
      <point x="354" y="275"/>
      <point x="381" y="215"/>
      <point x="381" y="150" type="curve"/>
      <point x="381" y="72"/>
      <point x="342" y="21"/>
    </contour>
    <contour>
      <point x="1239" y="528" type="move" name="imatra"/>
    </contour>
    <contour>
      <point x="1024" y="528" type="move" name="top"/>
    </contour>
  </outline>
</glyph>
<glyph name="aaMatra-tamil" format="1">
  <advance width="614"/>
  <unicode hex="0BBE"/>
  <outline>
    <contour>
      <point x="447" y="-5" type="curve"/>
      <point x="453" y="-5"/>
      <point x="457" y="-3"/>
      <point x="462" y="2" type="curve"/>
      <point x="460" y="10"/>
      <point x="460" y="22"/>
      <point x="460" y="47" type="curve"/>
      <point x="460" y="508" type="line"/>
      <point x="430" y="514" type="line"/>
      <point x="430" y="12" type="line" smooth="yes"/>
      <point x="430" y="4"/>
      <point x="433" y="-5"/>
    </contour>
    <contour>
      <point x="117" y="514" type="line"/>
      <point x="117" y="0" type="line"/>
      <point x="147" y="0" type="line"/>
      <point x="147" y="508" type="line"/>
    </contour>
    <contour>
      <point x="117" y="528" type="line"/>
      <point x="117" y="502" type="line"/>
      <point x="574" y="502" type="line" smooth="yes"/>
      <point x="597" y="502"/>
      <point x="614" y="503"/>
      <point x="614" y="517" type="curve"/>
      <point x="614" y="520"/>
      <point x="614" y="524"/>
      <point x="612" y="528" type="curve"/>
    </contour>
    <contour>
      <point x="447" y="528" type="move" name="imatra"/>
    </contour>
    <contour>
      <point x="296" y="528" type="move" name="top"/>
    </contour>
  </outline>
</glyph>
<glyph name="iMatra-tamil" format="1">
  <advance width="264"/>
  <unicode hex="0BBF"/>
  <outline>
    <contour>
      <point x="131" y="-5" type="curve"/>
      <point x="139" y="-5"/>
      <point x="144" y="-3"/>
      <point x="149" y="2" type="curve"/>
      <point x="147" y="10"/>
      <point x="147" y="22"/>
      <point x="147" y="33" type="curve"/>
      <point x="147" y="434" type="line" smooth="yes"/>
      <point x="147" y="617"/>
      <point x="103" y="772"/>
      <point x="-86" y="772" type="curve"/>
      <point x="-211" y="772"/>
      <point x="-262" y="704"/>
      <point x="-262" y="629" type="curve"/>
      <point x="-262" y="562"/>
      <point x="-221" y="508"/>
      <point x="-133" y="508" type="curve"/>
      <point x="-129" y="515"/>
      <point x="-128" y="522"/>
      <point x="-128" y="528" type="curve"/>
      <point x="-191" y="528"/>
      <point x="-234" y="567"/>
      <point x="-234" y="629" type="curve"/>
      <point x="-234" y="697"/>
      <point x="-183" y="746"/>
      <point x="-87" y="746" type="curve"/>
      <point x="77" y="746"/>
      <point x="117" y="602"/>
      <point x="117" y="426" type="curve"/>
      <point x="117" y="12" type="line" smooth="yes"/>
      <point x="117" y="4"/>
      <point x="115" y="-5"/>
    </contour>
  </outline>
</glyph>
<glyph name="iiMatra-tamil" format="1">
  <advance width="600"/>
  <unicode hex="0BC0"/>
  <outline>
    <contour>
      <point x="305" y="512" type="curve"/>
      <point x="309" y="528" type="line"/>
      <point x="269" y="534"/>
      <point x="184" y="566"/>
      <point x="184" y="660" type="curve"/>
      <point x="184" y="738"/>
      <point x="251" y="783"/>
      <point x="334" y="783" type="curve"/>
      <point x="349" y="783"/>
      <point x="364" y="782"/>
      <point x="379" y="779" type="curve"/>
      <point x="326" y="782"/>
      <point x="278" y="735"/>
      <point x="278" y="681" type="curve"/>
      <point x="278" y="618"/>
      <point x="326" y="583"/>
      <point x="382" y="583" type="curve"/>
      <point x="441" y="583"/>
      <point x="484" y="621"/>
      <point x="484" y="681" type="curve"/>
      <point x="484" y="737"/>
      <point x="446" y="807"/>
      <point x="333" y="807" type="curve"/>
      <point x="222" y="807"/>
      <point x="153" y="752"/>
      <point x="153" y="661" type="curve"/>
      <point x="153" y="536"/>
      <point x="284" y="511"/>
    </contour>
    <contour>
      <point x="381" y="609" type="curve"/>
      <point x="327" y="609"/>
      <point x="307" y="647"/>
      <point x="307" y="683" type="curve"/>
      <point x="307" y="718"/>
      <point x="327" y="757"/>
      <point x="381" y="757" type="curve"/>
      <point x="433" y="757"/>
      <point x="454" y="721"/>
      <point x="454" y="682" type="curve"/>
      <point x="454" y="637"/>
      <point x="427" y="609"/>
    </contour>
    <contour>
      <point x="309" y="528" type="move" name="_imatra"/>
    </contour>
  </outline>
</glyph>
<glyph name="uMatra-tamil" format="1">
  <advance width="374"/>
  <unicode hex="0BC1"/>
  <outline>
    <contour>
      <point x="181" y="266" type="curve"/>
      <point x="265" y="266"/>
      <point x="314" y="324"/>
      <point x="314" y="397" type="curve"/>
      <point x="314" y="470"/>
      <point x="265" y="528"/>
      <point x="181" y="528" type="curve"/>
      <point x="-118" y="528" type="line"/>
      <point x="-118" y="502" type="line"/>
      <point x="103" y="502" type="line"/>
      <point x="68" y="478"/>
      <point x="49" y="440"/>
      <point x="49" y="395" type="curve"/>
      <point x="49" y="324"/>
      <point x="98" y="266"/>
    </contour>
    <contour>
      <point x="181" y="290" type="curve"/>
      <point x="116" y="290"/>
      <point x="77" y="337"/>
      <point x="77" y="397" type="curve"/>
      <point x="77" y="457"/>
      <point x="116" y="502"/>
      <point x="181" y="502" type="curve"/>
      <point x="246" y="502"/>
      <point x="286" y="457"/>
      <point x="286" y="397" type="curve"/>
      <point x="286" y="337"/>
      <point x="246" y="290"/>
    </contour>
  </outline>
</glyph>
<glyph name="uuMatra-tamil" format="1">
  <advance width="569"/>
  <unicode hex="0BC2"/>
  <outline>
    <contour>
      <point x="214" y="266" type="curve"/>
      <point x="298" y="266"/>
      <point x="347" y="324"/>
      <point x="347" y="397" type="curve"/>
      <point x="347" y="470"/>
      <point x="298" y="528"/>
      <point x="207" y="528" type="curve"/>
      <point x="169" y="528" type="line"/>
      <point x="198" y="565"/>
      <point x="266" y="589"/>
      <point x="327" y="589" type="curve"/>
      <point x="405" y="589"/>
      <point x="481" y="543"/>
      <point x="481" y="437" type="curve"/>
      <point x="481" y="370"/>
      <point x="448" y="297"/>
      <point x="367" y="286" type="curve"/>
      <point x="366" y="276"/>
      <point x="365" y="270"/>
      <point x="382" y="270" type="curve"/>
      <point x="406" y="270"/>
      <point x="509" y="301"/>
      <point x="509" y="434" type="curve"/>
      <point x="509" y="570"/>
      <point x="411" y="612"/>
      <point x="328" y="612" type="curve"/>
      <point x="238" y="612"/>
      <point x="173" y="576"/>
      <point x="132" y="528" type="curve"/>
      <point x="-149" y="528" type="line"/>
      <point x="-149" y="502" type="line"/>
      <point x="114" y="502" type="line"/>
      <point x="92" y="468"/>
      <point x="82" y="430"/>
      <point x="82" y="395" type="curve"/>
      <point x="82" y="324"/>
      <point x="131" y="266"/>
    </contour>
    <contour>
      <point x="214" y="290" type="curve"/>
      <point x="149" y="290"/>
      <point x="110" y="337"/>
      <point x="110" y="397" type="curve"/>
      <point x="110" y="457"/>
      <point x="149" y="502"/>
      <point x="214" y="502" type="curve"/>
      <point x="279" y="502"/>
      <point x="319" y="457"/>
      <point x="319" y="397" type="curve"/>
      <point x="319" y="337"/>
      <point x="279" y="290"/>
    </contour>
  </outline>
</glyph>
<glyph name="eMatra-tamil" format="1">
  <advance width="737"/>
  <unicode hex="0BC6"/>
  <outline>
    <contour>
      <point x="306" y="-12" type="curve"/>
      <point x="413" y="-12"/>
      <point x="475" y="36"/>
      <point x="475" y="148" type="curve"/>
      <point x="475" y="249"/>
      <point x="424" y="304"/>
      <point x="352" y="304" type="curve"/>
      <point x="275" y="304"/>
      <point x="225" y="240"/>
      <point x="225" y="150" type="curve"/>
      <point x="225" y="108"/>
      <point x="236" y="44"/>
      <point x="280" y="17" type="curve"/>
      <point x="187" y="25"/>
      <point x="88" y="84"/>
      <point x="88" y="292" type="curve"/>
      <point x="88" y="544"/>
      <point x="225" y="642"/>
      <point x="363" y="642" type="curve"/>
      <point x="523" y="642"/>
      <point x="594" y="509"/>
      <point x="594" y="350" type="curve"/>
      <point x="593" y="7" type="line" smooth="yes"/>
      <point x="593" y="-1"/>
      <point x="594" y="-10"/>
      <point x="607" y="-10" type="curve"/>
      <point x="613" y="-10"/>
      <point x="617" y="-8"/>
      <point x="622" y="-3" type="curve"/>
      <point x="620" y="5"/>
      <point x="620" y="17"/>
      <point x="620" y="28" type="curve"/>
      <point x="620" y="365" type="line" smooth="yes"/>
      <point x="620" y="543"/>
      <point x="539" y="668"/>
      <point x="364" y="668" type="curve"/>
      <point x="189" y="668"/>
      <point x="60" y="542"/>
      <point x="60" y="291" type="curve"/>
      <point x="60" y="58"/>
      <point x="177" y="-12"/>
    </contour>
    <contour>
      <point x="347" y="21" type="curve"/>
      <point x="291" y="21"/>
      <point x="251" y="67"/>
      <point x="251" y="146" type="curve"/>
      <point x="251" y="218"/>
      <point x="284" y="275"/>
      <point x="350" y="275" type="curve"/>
      <point x="418" y="275"/>
      <point x="445" y="215"/>
      <point x="445" y="150" type="curve"/>
      <point x="445" y="72"/>
      <point x="405" y="21"/>
    </contour>
  </outline>
</glyph>
<glyph name="eeMatra-tamil" format="1">
  <advance width="602"/>
  <unicode hex="0BC7"/>
  <outline>
    <contour>
      <point x="373" y="-12" type="curve"/>
      <point x="479" y="-12"/>
      <point x="537" y="36"/>
      <point x="537" y="140" type="curve"/>
      <point x="537" y="242"/>
      <point x="487" y="291"/>
      <point x="415" y="291" type="curve"/>
      <point x="335" y="291"/>
      <point x="285" y="229"/>
      <point x="285" y="142" type="curve"/>
      <point x="285" y="94"/>
      <point x="300" y="38"/>
      <point x="342" y="14" type="curve"/>
      <point x="191" y="40"/>
      <point x="92" y="135"/>
      <point x="92" y="321" type="curve"/>
      <point x="92" y="481"/>
      <point x="160" y="619"/>
      <point x="328" y="639" type="curve"/>
      <point x="290" y="616"/>
      <point x="273" y="560"/>
      <point x="273" y="510" type="curve"/>
      <point x="273" y="425"/>
      <point x="322" y="370"/>
      <point x="400" y="370" type="curve"/>
      <point x="472" y="370"/>
      <point x="523" y="416"/>
      <point x="523" y="513" type="curve"/>
      <point x="523" y="620"/>
      <point x="465" y="668"/>
      <point x="360" y="668" type="curve"/>
      <point x="143" y="668"/>
      <point x="60" y="487"/>
      <point x="60" y="318" type="curve"/>
      <point x="60" y="119"/>
      <point x="177" y="-12"/>
    </contour>
    <contour>
      <point x="409" y="18" type="curve"/>
      <point x="354" y="18"/>
      <point x="313" y="65"/>
      <point x="313" y="140" type="curve"/>
      <point x="313" y="214"/>
      <point x="353" y="265"/>
      <point x="416" y="265" type="curve"/>
      <point x="481" y="265"/>
      <point x="507" y="209"/>
      <point x="507" y="147" type="curve"/>
      <point x="507" y="70"/>
      <point x="467" y="18"/>
    </contour>
    <contour>
      <point x="398" y="396" type="curve"/>
      <point x="333" y="396"/>
      <point x="301" y="443"/>
      <point x="301" y="512" type="curve"/>
      <point x="301" y="589"/>
      <point x="341" y="635"/>
      <point x="395" y="635" type="curve"/>
      <point x="453" y="635"/>
      <point x="493" y="582"/>
      <point x="493" y="508" type="curve"/>
      <point x="493" y="448"/>
      <point x="466" y="396"/>
    </contour>
  </outline>
</glyph>
<glyph name="aiMatra-tamil" format="1">
  <advance width="1090"/>
  <unicode hex="0BC8"/>
  <outline>
    <contour>
      <point x="838" y="-12" type="curve"/>
      <point x="944" y="-12"/>
      <point x="1040" y="76"/>
      <point x="1040" y="241" type="curve"/>
      <point x="1040" y="415"/>
      <point x="946" y="540"/>
      <point x="768" y="540" type="curve"/>
      <point x="587" y="540"/>
      <point x="476" y="393"/>
      <point x="476" y="188" type="curve"/>
      <point x="476" y="76"/>
      <point x="510" y="-12"/>
      <point x="613" y="-12" type="curve"/>
      <point x="715" y="-12"/>
      <point x="766" y="76"/>
      <point x="766" y="200" type="curve"/>
      <point x="766" y="418"/>
      <point x="614" y="540"/>
      <point x="393" y="540" type="curve"/>
      <point x="195" y="540"/>
      <point x="60" y="442"/>
      <point x="60" y="227" type="curve"/>
      <point x="60" y="54"/>
      <point x="152" y="-12"/>
      <point x="256" y="-12" type="curve"/>
      <point x="344" y="-12"/>
      <point x="409" y="36"/>
      <point x="409" y="150" type="curve"/>
      <point x="409" y="249"/>
      <point x="359" y="304"/>
      <point x="289" y="304" type="curve"/>
      <point x="214" y="304"/>
      <point x="165" y="240"/>
      <point x="165" y="150" type="curve"/>
      <point x="165" y="108"/>
      <point x="176" y="44"/>
      <point x="220" y="17" type="curve"/>
      <point x="151" y="26"/>
      <point x="88" y="90"/>
      <point x="88" y="228" type="curve"/>
      <point x="88" y="436"/>
      <point x="234" y="513"/>
      <point x="395" y="513" type="curve"/>
      <point x="594" y="513"/>
      <point x="735" y="409"/>
      <point x="735" y="198" type="curve"/>
      <point x="735" y="82"/>
      <point x="690" y="16"/>
      <point x="616" y="16" type="curve"/>
      <point x="545" y="16"/>
      <point x="506" y="77"/>
      <point x="506" y="187" type="curve"/>
      <point x="506" y="376"/>
      <point x="614" y="513"/>
      <point x="766" y="513" type="curve"/>
      <point x="913" y="513"/>
      <point x="1009" y="403"/>
      <point x="1009" y="239" type="curve"/>
      <point x="1009" y="73"/>
      <point x="897" y="8"/>
      <point x="820" y="8" type="curve"/>
      <point x="819" y="-1"/>
      <point x="825" y="-9"/>
    </contour>
    <contour>
      <point x="284" y="21" type="curve"/>
      <point x="230" y="21"/>
      <point x="191" y="67"/>
      <point x="191" y="146" type="curve"/>
      <point x="191" y="218"/>
      <point x="223" y="275"/>
      <point x="287" y="275" type="curve"/>
      <point x="352" y="275"/>
      <point x="379" y="216"/>
      <point x="379" y="151" type="curve"/>
      <point x="379" y="72"/>
      <point x="340" y="21"/>
    </contour>
  </outline>
</glyph>
<glyph name="oMatra-tamil" format="1">
  <advance width="1925"/>
  <unicode hex="0BCA"/>
  <outline>
    <contour>
      <point x="810" y="56" type="curve"/>
      <point x="826" y="56"/>
      <point x="838" y="68"/>
      <point x="838" y="84" type="curve"/>
      <point x="838" y="100"/>
      <point x="826" y="112"/>
      <point x="810" y="112" type="curve"/>
      <point x="795" y="112"/>
      <point x="783" y="100"/>
      <point x="783" y="84" type="curve"/>
      <point x="783" y="68"/>
      <point x="795" y="56"/>
    </contour>
    <contour>
      <point x="755" y="139" type="curve"/>
      <point x="771" y="139"/>
      <point x="783" y="151"/>
      <point x="783" y="167" type="curve"/>
      <point x="783" y="183"/>
      <point x="771" y="195"/>
      <point x="755" y="195" type="curve"/>
      <point x="740" y="195"/>
      <point x="728" y="183"/>
      <point x="728" y="167" type="curve"/>
      <point x="728" y="151"/>
      <point x="740" y="139"/>
    </contour>
    <contour>
      <point x="895" y="-1" type="curve"/>
      <point x="911" y="-1"/>
      <point x="923" y="11"/>
      <point x="923" y="27" type="curve"/>
      <point x="923" y="43"/>
      <point x="911" y="55"/>
      <point x="895" y="55" type="curve"/>
      <point x="880" y="55"/>
      <point x="868" y="43"/>
      <point x="868" y="27" type="curve"/>
      <point x="868" y="11"/>
      <point x="880" y="-1"/>
    </contour>
    <contour>
      <point x="734" y="237" type="curve"/>
      <point x="750" y="237"/>
      <point x="762" y="249"/>
      <point x="762" y="265" type="curve"/>
      <point x="762" y="281"/>
      <point x="750" y="293"/>
      <point x="734" y="293" type="curve"/>
      <point x="719" y="293"/>
      <point x="707" y="281"/>
      <point x="707" y="265" type="curve"/>
      <point x="707" y="249"/>
      <point x="719" y="237"/>
    </contour>
    <contour>
      <point x="993" y="-20" type="curve"/>
      <point x="1008" y="-20"/>
      <point x="1020" y="-8"/>
      <point x="1020" y="8" type="curve"/>
      <point x="1020" y="24"/>
      <point x="1008" y="36"/>
      <point x="993" y="36" type="curve"/>
      <point x="977" y="36"/>
      <point x="965" y="24"/>
      <point x="965" y="8" type="curve"/>
      <point x="965" y="-8"/>
      <point x="977" y="-20"/>
    </contour>
    <contour>
      <point x="1091" y="-1" type="curve"/>
      <point x="1106" y="-1"/>
      <point x="1118" y="11"/>
      <point x="1118" y="27" type="curve"/>
      <point x="1118" y="43"/>
      <point x="1106" y="55"/>
      <point x="1091" y="55" type="curve"/>
      <point x="1075" y="55"/>
      <point x="1063" y="43"/>
      <point x="1063" y="27" type="curve"/>
      <point x="1063" y="11"/>
      <point x="1075" y="-1"/>
    </contour>
    <contour>
      <point x="753" y="337" type="curve"/>
      <point x="769" y="337"/>
      <point x="781" y="349"/>
      <point x="781" y="365" type="curve"/>
      <point x="781" y="381"/>
      <point x="769" y="393"/>
      <point x="753" y="393" type="curve"/>
      <point x="738" y="393"/>
      <point x="726" y="381"/>
      <point x="726" y="365" type="curve"/>
      <point x="726" y="349"/>
      <point x="738" y="337"/>
    </contour>
    <contour>
      <point x="1176" y="56" type="curve"/>
      <point x="1191" y="56"/>
      <point x="1203" y="68"/>
      <point x="1203" y="84" type="curve"/>
      <point x="1203" y="100"/>
      <point x="1191" y="112"/>
      <point x="1176" y="112" type="curve"/>
      <point x="1160" y="112"/>
      <point x="1148" y="100"/>
      <point x="1148" y="84" type="curve"/>
      <point x="1148" y="68"/>
      <point x="1160" y="56"/>
    </contour>
    <contour>
      <point x="810" y="421" type="curve"/>
      <point x="826" y="421"/>
      <point x="838" y="433"/>
      <point x="838" y="449" type="curve"/>
      <point x="838" y="465"/>
      <point x="826" y="477"/>
      <point x="810" y="477" type="curve"/>
      <point x="795" y="477"/>
      <point x="783" y="465"/>
      <point x="783" y="449" type="curve"/>
      <point x="783" y="433"/>
      <point x="795" y="421"/>
    </contour>
    <contour>
      <point x="1231" y="139" type="curve"/>
      <point x="1246" y="139"/>
      <point x="1258" y="151"/>
      <point x="1258" y="167" type="curve"/>
      <point x="1258" y="183"/>
      <point x="1246" y="195"/>
      <point x="1231" y="195" type="curve"/>
      <point x="1215" y="195"/>
      <point x="1203" y="183"/>
      <point x="1203" y="167" type="curve"/>
      <point x="1203" y="151"/>
      <point x="1215" y="139"/>
    </contour>
    <contour>
      <point x="893" y="477" type="curve"/>
      <point x="909" y="477"/>
      <point x="921" y="489"/>
      <point x="921" y="505" type="curve"/>
      <point x="921" y="521"/>
      <point x="909" y="533"/>
      <point x="893" y="533" type="curve"/>
      <point x="878" y="533"/>
      <point x="866" y="521"/>
      <point x="866" y="505" type="curve"/>
      <point x="866" y="489"/>
      <point x="878" y="477"/>
    </contour>
    <contour>
      <point x="993" y="496" type="curve"/>
      <point x="1008" y="496"/>
      <point x="1020" y="508"/>
      <point x="1020" y="524" type="curve"/>
      <point x="1020" y="540"/>
      <point x="1008" y="552"/>
      <point x="993" y="552" type="curve"/>
      <point x="977" y="552"/>
      <point x="965" y="540"/>
      <point x="965" y="524" type="curve"/>
      <point x="965" y="508"/>
      <point x="977" y="496"/>
    </contour>
    <contour>
      <point x="1252" y="237" type="curve"/>
      <point x="1267" y="237"/>
      <point x="1279" y="249"/>
      <point x="1279" y="265" type="curve"/>
      <point x="1279" y="281"/>
      <point x="1267" y="293"/>
      <point x="1252" y="293" type="curve"/>
      <point x="1236" y="293"/>
      <point x="1224" y="281"/>
      <point x="1224" y="265" type="curve"/>
      <point x="1224" y="249"/>
      <point x="1236" y="237"/>
    </contour>
    <contour>
      <point x="1093" y="477" type="curve"/>
      <point x="1108" y="477"/>
      <point x="1120" y="489"/>
      <point x="1120" y="505" type="curve"/>
      <point x="1120" y="521"/>
      <point x="1108" y="533"/>
      <point x="1093" y="533" type="curve"/>
      <point x="1077" y="533"/>
      <point x="1065" y="521"/>
      <point x="1065" y="505" type="curve"/>
      <point x="1065" y="489"/>
      <point x="1077" y="477"/>
    </contour>
    <contour>
      <point x="1233" y="337" type="curve"/>
      <point x="1248" y="337"/>
      <point x="1260" y="349"/>
      <point x="1260" y="365" type="curve"/>
      <point x="1260" y="381"/>
      <point x="1248" y="393"/>
      <point x="1233" y="393" type="curve"/>
      <point x="1217" y="393"/>
      <point x="1205" y="381"/>
      <point x="1205" y="365" type="curve"/>
      <point x="1205" y="349"/>
      <point x="1217" y="337"/>
    </contour>
    <contour>
      <point x="1176" y="421" type="curve"/>
      <point x="1191" y="421"/>
      <point x="1203" y="433"/>
      <point x="1203" y="449" type="curve"/>
      <point x="1203" y="465"/>
      <point x="1191" y="477"/>
      <point x="1176" y="477" type="curve"/>
      <point x="1160" y="477"/>
      <point x="1148" y="465"/>
      <point x="1148" y="449" type="curve"/>
      <point x="1148" y="433"/>
      <point x="1160" y="421"/>
    </contour>
    <component base="aaMatra-tamil" xOffset="1316"/>
    <component base="eMatra-tamil" xOffset="-29"/>
  </outline>
</glyph>
<glyph name="ooMatra-tamil" format="1">
  <advance width="1789"/>
  <unicode hex="0BCB"/>
  <outline>
    <contour>
      <point x="1057" y="421" type="curve"/>
      <point x="1072" y="421"/>
      <point x="1084" y="433"/>
      <point x="1084" y="449" type="curve"/>
      <point x="1084" y="465"/>
      <point x="1072" y="477"/>
      <point x="1057" y="477" type="curve"/>
      <point x="1041" y="477"/>
      <point x="1029" y="465"/>
      <point x="1029" y="449" type="curve"/>
      <point x="1029" y="433"/>
      <point x="1041" y="421"/>
    </contour>
    <contour>
      <point x="691" y="56" type="curve"/>
      <point x="707" y="56"/>
      <point x="719" y="68"/>
      <point x="719" y="84" type="curve"/>
      <point x="719" y="100"/>
      <point x="707" y="112"/>
      <point x="691" y="112" type="curve"/>
      <point x="676" y="112"/>
      <point x="664" y="100"/>
      <point x="664" y="84" type="curve"/>
      <point x="664" y="68"/>
      <point x="676" y="56"/>
    </contour>
    <contour>
      <point x="636" y="139" type="curve"/>
      <point x="652" y="139"/>
      <point x="664" y="151"/>
      <point x="664" y="167" type="curve"/>
      <point x="664" y="183"/>
      <point x="652" y="195"/>
      <point x="636" y="195" type="curve"/>
      <point x="621" y="195"/>
      <point x="609" y="183"/>
      <point x="609" y="167" type="curve"/>
      <point x="609" y="151"/>
      <point x="621" y="139"/>
    </contour>
    <contour>
      <point x="776" y="-1" type="curve"/>
      <point x="792" y="-1"/>
      <point x="804" y="11"/>
      <point x="804" y="27" type="curve"/>
      <point x="804" y="43"/>
      <point x="792" y="55"/>
      <point x="776" y="55" type="curve"/>
      <point x="761" y="55"/>
      <point x="749" y="43"/>
      <point x="749" y="27" type="curve"/>
      <point x="749" y="11"/>
      <point x="761" y="-1"/>
    </contour>
    <contour>
      <point x="615" y="237" type="curve"/>
      <point x="631" y="237"/>
      <point x="643" y="249"/>
      <point x="643" y="265" type="curve"/>
      <point x="643" y="281"/>
      <point x="631" y="293"/>
      <point x="615" y="293" type="curve"/>
      <point x="600" y="293"/>
      <point x="588" y="281"/>
      <point x="588" y="265" type="curve"/>
      <point x="588" y="249"/>
      <point x="600" y="237"/>
    </contour>
    <contour>
      <point x="874" y="-20" type="curve"/>
      <point x="889" y="-20"/>
      <point x="901" y="-8"/>
      <point x="901" y="8" type="curve"/>
      <point x="901" y="24"/>
      <point x="889" y="36"/>
      <point x="874" y="36" type="curve"/>
      <point x="858" y="36"/>
      <point x="846" y="24"/>
      <point x="846" y="8" type="curve"/>
      <point x="846" y="-8"/>
      <point x="858" y="-20"/>
    </contour>
    <contour>
      <point x="972" y="-1" type="curve"/>
      <point x="987" y="-1"/>
      <point x="999" y="11"/>
      <point x="999" y="27" type="curve"/>
      <point x="999" y="43"/>
      <point x="987" y="55"/>
      <point x="972" y="55" type="curve"/>
      <point x="956" y="55"/>
      <point x="944" y="43"/>
      <point x="944" y="27" type="curve"/>
      <point x="944" y="11"/>
      <point x="956" y="-1"/>
    </contour>
    <contour>
      <point x="634" y="337" type="curve"/>
      <point x="650" y="337"/>
      <point x="662" y="349"/>
      <point x="662" y="365" type="curve"/>
      <point x="662" y="381"/>
      <point x="650" y="393"/>
      <point x="634" y="393" type="curve"/>
      <point x="619" y="393"/>
      <point x="607" y="381"/>
      <point x="607" y="365" type="curve"/>
      <point x="607" y="349"/>
      <point x="619" y="337"/>
    </contour>
    <contour>
      <point x="1057" y="56" type="curve"/>
      <point x="1072" y="56"/>
      <point x="1084" y="68"/>
      <point x="1084" y="84" type="curve"/>
      <point x="1084" y="100"/>
      <point x="1072" y="112"/>
      <point x="1057" y="112" type="curve"/>
      <point x="1041" y="112"/>
      <point x="1029" y="100"/>
      <point x="1029" y="84" type="curve"/>
      <point x="1029" y="68"/>
      <point x="1041" y="56"/>
    </contour>
    <contour>
      <point x="691" y="421" type="curve"/>
      <point x="707" y="421"/>
      <point x="719" y="433"/>
      <point x="719" y="449" type="curve"/>
      <point x="719" y="465"/>
      <point x="707" y="477"/>
      <point x="691" y="477" type="curve"/>
      <point x="676" y="477"/>
      <point x="664" y="465"/>
      <point x="664" y="449" type="curve"/>
      <point x="664" y="433"/>
      <point x="676" y="421"/>
    </contour>
    <contour>
      <point x="1112" y="139" type="curve"/>
      <point x="1127" y="139"/>
      <point x="1139" y="151"/>
      <point x="1139" y="167" type="curve"/>
      <point x="1139" y="183"/>
      <point x="1127" y="195"/>
      <point x="1112" y="195" type="curve"/>
      <point x="1096" y="195"/>
      <point x="1084" y="183"/>
      <point x="1084" y="167" type="curve"/>
      <point x="1084" y="151"/>
      <point x="1096" y="139"/>
    </contour>
    <contour>
      <point x="774" y="477" type="curve"/>
      <point x="790" y="477"/>
      <point x="802" y="489"/>
      <point x="802" y="505" type="curve"/>
      <point x="802" y="521"/>
      <point x="790" y="533"/>
      <point x="774" y="533" type="curve"/>
      <point x="759" y="533"/>
      <point x="747" y="521"/>
      <point x="747" y="505" type="curve"/>
      <point x="747" y="489"/>
      <point x="759" y="477"/>
    </contour>
    <contour>
      <point x="874" y="496" type="curve"/>
      <point x="889" y="496"/>
      <point x="901" y="508"/>
      <point x="901" y="524" type="curve"/>
      <point x="901" y="540"/>
      <point x="889" y="552"/>
      <point x="874" y="552" type="curve"/>
      <point x="858" y="552"/>
      <point x="846" y="540"/>
      <point x="846" y="524" type="curve"/>
      <point x="846" y="508"/>
      <point x="858" y="496"/>
    </contour>
    <contour>
      <point x="1133" y="237" type="curve"/>
      <point x="1148" y="237"/>
      <point x="1160" y="249"/>
      <point x="1160" y="265" type="curve"/>
      <point x="1160" y="281"/>
      <point x="1148" y="293"/>
      <point x="1133" y="293" type="curve"/>
      <point x="1117" y="293"/>
      <point x="1105" y="281"/>
      <point x="1105" y="265" type="curve"/>
      <point x="1105" y="249"/>
      <point x="1117" y="237"/>
    </contour>
    <contour>
      <point x="974" y="477" type="curve"/>
      <point x="989" y="477"/>
      <point x="1001" y="489"/>
      <point x="1001" y="505" type="curve"/>
      <point x="1001" y="521"/>
      <point x="989" y="533"/>
      <point x="974" y="533" type="curve"/>
      <point x="958" y="533"/>
      <point x="946" y="521"/>
      <point x="946" y="505" type="curve"/>
      <point x="946" y="489"/>
      <point x="958" y="477"/>
    </contour>
    <contour>
      <point x="1114" y="337" type="curve"/>
      <point x="1129" y="337"/>
      <point x="1141" y="349"/>
      <point x="1141" y="365" type="curve"/>
      <point x="1141" y="381"/>
      <point x="1129" y="393"/>
      <point x="1114" y="393" type="curve"/>
      <point x="1098" y="393"/>
      <point x="1086" y="381"/>
      <point x="1086" y="365" type="curve"/>
      <point x="1086" y="349"/>
      <point x="1098" y="337"/>
    </contour>
    <component base="eeMatra-tamil"/>
    <component base="aaMatra-tamil" xOffset="1183"/>
  </outline>
</glyph>
